<?xml version="1.0" encoding="UTF-8"?>
<!DOCTYPE svg PUBLIC "-//W3C//DTD SVG 1.1//EN" "http://www.w3.org/Graphics/SVG/1.1/DTD/svg11.dtd">
<svg xmlns="http://www.w3.org/2000/svg" version="1.1" width="1326px" height="1207px" style="shape-rendering:geometricPrecision; text-rendering:geometricPrecision; image-rendering:optimizeQuality; fill-rule:evenodd; clip-rule:evenodd" xmlns:xlink="http://www.w3.org/1999/xlink">
<g><path style="opacity:1" fill="#7f807f" d="M -0.5,-0.5 C 441.5,-0.5 883.5,-0.5 1325.5,-0.5C 1325.5,295.833 1325.5,592.167 1325.5,888.5C 1074.5,888.5 823.5,888.5 572.5,888.5C 572.5,994.5 572.5,1100.5 572.5,1206.5C 381.5,1206.5 190.5,1206.5 -0.5,1206.5C -0.5,804.167 -0.5,401.833 -0.5,-0.5 Z"/></g>
<g><path style="opacity:1" fill="#fefefe" d="M 2.5,2.5 C 442.5,2.5 882.5,2.5 1322.5,2.5C 1322.5,296.833 1322.5,591.167 1322.5,885.5C 1258.5,885.5 1194.5,885.5 1130.5,885.5C 1130.5,859.167 1130.5,832.833 1130.5,806.5C 1073.5,806.5 1016.5,806.5 959.5,806.5C 959.5,832.833 959.5,859.167 959.5,885.5C 829.833,885.333 700.166,885.5 570.5,886C 569.501,991.763 569.168,1097.6 569.5,1203.5C 380.5,1203.5 191.5,1203.5 2.5,1203.5C 2.5,803.167 2.5,402.833 2.5,2.5 Z"/></g>
<g><path style="opacity:1" fill="#bebfbe" d="M 673.5,129.5 C 673.5,128.5 673.5,127.5 673.5,126.5C 733.833,126.5 794.167,126.5 854.5,126.5C 854.5,104.167 854.5,81.8333 854.5,59.5C 855.5,59.5 856.5,59.5 857.5,59.5C 857.5,82.8333 857.5,106.167 857.5,129.5C 796.167,129.5 734.833,129.5 673.5,129.5 Z"/></g>
<g><path style="opacity:1" fill="#bebfbe" d="M 691.5,155.5 C 691.5,154.833 691.5,154.167 691.5,153.5C 762.833,153.5 834.167,153.5 905.5,153.5C 905.5,122.167 905.5,90.8333 905.5,59.5C 906.5,59.5 907.5,59.5 908.5,59.5C 908.5,91.5 908.5,123.5 908.5,155.5C 836.167,155.5 763.833,155.5 691.5,155.5 Z"/></g>
<g><path style="opacity:1" fill="#000000" d="M 673.5,126.5 C 673.5,127.5 673.5,128.5 673.5,129.5C 641.851,131.493 609.851,132.159 577.5,131.5C 577.5,139.833 577.5,148.167 577.5,156.5C 576.833,156.5 576.167,156.5 575.5,156.5C 575.5,134.167 575.5,111.833 575.5,89.5C 608.167,89.5 640.833,89.5 673.5,89.5C 673.5,101.833 673.5,114.167 673.5,126.5 Z"/></g>
<g><path style="opacity:1" fill="#fefffe" d="M 577.5,90.5 C 584.833,90.5 592.167,90.5 599.5,90.5C 599.5,91.8333 599.5,93.1667 599.5,94.5C 592.167,94.5 584.833,94.5 577.5,94.5C 577.5,93.1667 577.5,91.8333 577.5,90.5 Z"/></g>
<g><path style="opacity:1" fill="#fefffe" d="M 601.5,90.5 C 608.833,90.5 616.167,90.5 623.5,90.5C 623.5,91.8333 623.5,93.1667 623.5,94.5C 616.167,94.5 608.833,94.5 601.5,94.5C 601.5,93.1667 601.5,91.8333 601.5,90.5 Z"/></g>
<g><path style="opacity:1" fill="#fefffe" d="M 625.5,90.5 C 632.833,90.5 640.167,90.5 647.5,90.5C 647.5,91.8333 647.5,93.1667 647.5,94.5C 640.167,94.5 632.833,94.5 625.5,94.5C 625.5,93.1667 625.5,91.8333 625.5,90.5 Z"/></g>
<g><path style="opacity:1" fill="#fefffe" d="M 649.5,90.5 C 656.833,90.5 664.167,90.5 671.5,90.5C 671.5,91.8333 671.5,93.1667 671.5,94.5C 664.167,94.5 656.833,94.5 649.5,94.5C 649.5,93.1667 649.5,91.8333 649.5,90.5 Z"/></g>
<g><path style="opacity:1" fill="#fefffe" d="M 577.5,95.5 C 584.833,95.5 592.167,95.5 599.5,95.5C 599.5,96.8333 599.5,98.1667 599.5,99.5C 592.167,99.5 584.833,99.5 577.5,99.5C 577.5,98.1667 577.5,96.8333 577.5,95.5 Z"/></g>
<g><path style="opacity:1" fill="#fefffe" d="M 601.5,95.5 C 608.833,95.5 616.167,95.5 623.5,95.5C 623.5,96.8333 623.5,98.1667 623.5,99.5C 616.167,99.5 608.833,99.5 601.5,99.5C 601.5,98.1667 601.5,96.8333 601.5,95.5 Z"/></g>
<g><path style="opacity:1" fill="#fefffe" d="M 625.5,95.5 C 632.833,95.5 640.167,95.5 647.5,95.5C 647.5,96.8333 647.5,98.1667 647.5,99.5C 640.167,99.5 632.833,99.5 625.5,99.5C 625.5,98.1667 625.5,96.8333 625.5,95.5 Z"/></g>
<g><path style="opacity:1" fill="#fefffe" d="M 649.5,95.5 C 656.833,95.5 664.167,95.5 671.5,95.5C 671.5,96.8333 671.5,98.1667 671.5,99.5C 664.167,99.5 656.833,99.5 649.5,99.5C 649.5,98.1667 649.5,96.8333 649.5,95.5 Z"/></g>
<g><path style="opacity:1" fill="#fefffe" d="M 577.5,100.5 C 584.833,100.5 592.167,100.5 599.5,100.5C 599.5,101.833 599.5,103.167 599.5,104.5C 592.167,104.5 584.833,104.5 577.5,104.5C 577.5,103.167 577.5,101.833 577.5,100.5 Z"/></g>
<g><path style="opacity:1" fill="#fefffe" d="M 601.5,100.5 C 608.833,100.5 616.167,100.5 623.5,100.5C 623.5,101.833 623.5,103.167 623.5,104.5C 616.167,104.5 608.833,104.5 601.5,104.5C 601.5,103.167 601.5,101.833 601.5,100.5 Z"/></g>
<g><path style="opacity:1" fill="#fefffe" d="M 625.5,100.5 C 632.833,100.5 640.167,100.5 647.5,100.5C 647.5,101.833 647.5,103.167 647.5,104.5C 640.167,104.5 632.833,104.5 625.5,104.5C 625.5,103.167 625.5,101.833 625.5,100.5 Z"/></g>
<g><path style="opacity:1" fill="#fefffe" d="M 649.5,100.5 C 656.833,100.5 664.167,100.5 671.5,100.5C 671.5,101.833 671.5,103.167 671.5,104.5C 664.167,104.5 656.833,104.5 649.5,104.5C 649.5,103.167 649.5,101.833 649.5,100.5 Z"/></g>
<g><path style="opacity:1" fill="#7e7f7f" d="M 1103.5,117.5 C 1103.5,117.833 1103.5,118.167 1103.5,118.5C 1095.5,118.5 1087.5,118.5 1079.5,118.5C 1079.5,131.833 1079.5,145.167 1079.5,158.5C 1087.5,158.5 1095.5,158.5 1103.5,158.5C 1103.5,158.833 1103.5,159.167 1103.5,159.5C 1095.5,159.5 1087.5,159.5 1079.5,159.5C 1079.5,172.833 1079.5,186.167 1079.5,199.5C 1087.5,199.5 1095.5,199.5 1103.5,199.5C 1103.5,199.833 1103.5,200.167 1103.5,200.5C 1095.5,200.5 1087.5,200.5 1079.5,200.5C 1079.5,213.833 1079.5,227.167 1079.5,240.5C 1087.5,240.5 1095.5,240.5 1103.5,240.5C 1103.5,240.833 1103.5,241.167 1103.5,241.5C 1095.5,241.5 1087.5,241.5 1079.5,241.5C 1079.5,254.833 1079.5,268.167 1079.5,281.5C 1087.5,281.5 1095.5,281.5 1103.5,281.5C 1103.5,281.833 1103.5,282.167 1103.5,282.5C 1095.5,282.5 1087.5,282.5 1079.5,282.5C 1079.5,286.833 1079.5,291.167 1079.5,295.5C 1035.84,294.843 992.176,294.843 948.5,295.5C 948.5,369.5 948.5,443.5 948.5,517.5C 853.332,517.833 758.332,517.499 663.5,516.5C 663.5,515.833 663.5,515.167 663.5,514.5C 670.648,513.508 677.981,513.175 685.5,513.5C 685.5,468.167 685.5,422.833 685.5,377.5C 694.537,378.463 703.537,378.463 712.5,377.5C 713.498,369.193 713.831,360.86 713.5,352.5C 715.833,352.5 718.167,352.5 720.5,352.5C 720.5,355.5 720.5,358.5 720.5,361.5C 751.833,361.5 783.167,361.5 814.5,361.5C 815.481,351.859 815.481,342.192 814.5,332.5C 816.167,332.5 817.833,332.5 819.5,332.5C 819.5,330.5 819.5,328.5 819.5,326.5C 820.5,326.5 821.5,326.5 822.5,326.5C 822.5,329.5 822.5,332.5 822.5,335.5C 863.167,335.5 903.833,335.5 944.5,335.5C 944.5,314.833 944.5,294.167 944.5,273.5C 934.833,273.5 925.167,273.5 915.5,273.5C 915.5,272.167 915.5,270.833 915.5,269.5C 925.167,269.5 934.833,269.5 944.5,269.5C 944.5,260.167 944.5,250.833 944.5,241.5C 925.5,241.5 906.5,241.5 887.5,241.5C 887.5,250.833 887.5,260.167 887.5,269.5C 892.5,269.5 897.5,269.5 902.5,269.5C 902.5,270.833 902.5,272.167 902.5,273.5C 879.5,273.5 856.5,273.5 833.5,273.5C 833.5,272.5 833.5,271.5 833.5,270.5C 829.833,270.5 826.167,270.5 822.5,270.5C 822.5,283.833 822.5,297.167 822.5,310.5C 821.5,310.5 820.5,310.5 819.5,310.5C 819.5,297.167 819.5,283.833 819.5,270.5C 810.854,269.386 802.187,269.386 793.5,270.5C 793.5,286.833 793.5,303.167 793.5,319.5C 773.5,319.5 753.5,319.5 733.5,319.5C 733.5,318.5 733.5,317.5 733.5,316.5C 740.5,316.5 747.5,316.5 754.5,316.5C 754.5,315.5 754.5,314.5 754.5,313.5C 755.5,313.5 756.5,313.5 757.5,313.5C 757.5,314.5 757.5,315.5 757.5,316.5C 768.5,316.5 779.5,316.5 790.5,316.5C 790.5,298.5 790.5,280.5 790.5,262.5C 779.51,261.443 768.51,261.443 757.5,262.5C 757.5,274.5 757.5,286.5 757.5,298.5C 756.5,298.5 755.5,298.5 754.5,298.5C 754.5,272.167 754.5,245.833 754.5,219.5C 733.5,219.5 712.5,219.5 691.5,219.5C 691.5,230.167 691.5,240.833 691.5,251.5C 693.5,251.5 695.5,251.5 697.5,251.5C 697.5,266.5 697.5,281.5 697.5,296.5C 702.833,296.5 708.167,296.5 713.5,296.5C 713.5,294.167 713.5,291.833 713.5,289.5C 714.5,289.5 715.5,289.5 716.5,289.5C 716.5,298.5 716.5,307.5 716.5,316.5C 717.5,316.5 718.5,316.5 719.5,316.5C 719.5,317.5 719.5,318.5 719.5,319.5C 717.5,319.5 715.5,319.5 713.5,319.5C 713.5,312.833 713.5,306.167 713.5,299.5C 706.167,299.5 698.833,299.5 691.5,299.5C 691.5,298.5 691.5,297.5 691.5,296.5C 689.167,296.5 686.833,296.5 684.5,296.5C 684.5,294.167 684.5,291.833 684.5,289.5C 643.833,289.5 603.167,289.5 562.5,289.5C 562.5,290.833 562.5,292.167 562.5,293.5C 524.167,293.5 485.833,293.5 447.5,293.5C 447.5,292.167 447.5,290.833 447.5,289.5C 454.5,289.5 461.5,289.5 468.5,289.5C 469.551,280.81 469.551,272.144 468.5,263.5C 463.167,263.5 457.833,263.5 452.5,263.5C 452.5,265.167 452.5,266.833 452.5,268.5C 445.833,268.5 439.167,268.5 432.5,268.5C 432.5,277.833 432.5,287.167 432.5,296.5C 430.833,296.5 429.167,296.5 427.5,296.5C 427.5,287.167 427.5,277.833 427.5,268.5C 420.833,268.5 414.167,268.5 407.5,268.5C 407.5,266.833 407.5,265.167 407.5,263.5C 401.833,263.5 396.167,263.5 390.5,263.5C 389.449,272.144 389.449,280.81 390.5,289.5C 397.167,289.5 403.833,289.5 410.5,289.5C 410.5,290.833 410.5,292.167 410.5,293.5C 333.483,293.373 256.483,293.373 179.5,293.5C 179.5,294.5 179.5,295.5 179.5,296.5C 178.5,296.5 177.5,296.5 176.5,296.5C 176.784,298.415 176.451,300.081 175.5,301.5C 174.833,301.5 174.167,301.5 173.5,301.5C 172.501,253.336 172.168,205.003 172.5,156.5C 306.833,156.5 441.167,156.5 575.5,156.5C 576.167,156.5 576.833,156.5 577.5,156.5C 613.833,156.5 650.167,156.5 686.5,156.5C 686.5,154.833 686.5,153.167 686.5,151.5C 688.781,151.077 690.448,151.744 691.5,153.5C 691.5,154.167 691.5,154.833 691.5,155.5C 775.665,156.499 859.998,156.833 944.5,156.5C 944.5,138.5 944.5,120.5 944.5,102.5C 989.5,102.5 1034.5,102.5 1079.5,102.5C 1079.5,107.5 1079.5,112.5 1079.5,117.5C 1087.5,117.5 1095.5,117.5 1103.5,117.5 Z"/></g>
<g><path style="opacity:1" fill="#fefffe" d="M 577.5,105.5 C 584.833,105.5 592.167,105.5 599.5,105.5C 599.5,106.833 599.5,108.167 599.5,109.5C 592.167,109.5 584.833,109.5 577.5,109.5C 577.5,108.167 577.5,106.833 577.5,105.5 Z"/></g>
<g><path style="opacity:1" fill="#fefffe" d="M 601.5,105.5 C 608.833,105.5 616.167,105.5 623.5,105.5C 623.5,106.833 623.5,108.167 623.5,109.5C 616.167,109.5 608.833,109.5 601.5,109.5C 601.5,108.167 601.5,106.833 601.5,105.5 Z"/></g>
<g><path style="opacity:1" fill="#fefffe" d="M 625.5,105.5 C 632.833,105.5 640.167,105.5 647.5,105.5C 647.5,106.833 647.5,108.167 647.5,109.5C 640.167,109.5 632.833,109.5 625.5,109.5C 625.5,108.167 625.5,106.833 625.5,105.5 Z"/></g>
<g><path style="opacity:1" fill="#fefffe" d="M 649.5,105.5 C 656.833,105.5 664.167,105.5 671.5,105.5C 671.5,106.833 671.5,108.167 671.5,109.5C 664.167,109.5 656.833,109.5 649.5,109.5C 649.5,108.167 649.5,106.833 649.5,105.5 Z"/></g>
<g><path style="opacity:1" fill="#fefffe" d="M 948.5,106.5 C 990.833,106.5 1033.17,106.5 1075.5,106.5C 1075.5,140.167 1075.5,173.833 1075.5,207.5C 1033.17,208.427 990.839,208.427 948.5,207.5C 948.5,173.833 948.5,140.167 948.5,106.5 Z"/></g>
<g><path style="opacity:1" fill="#fefffe" d="M 577.5,110.5 C 584.833,110.5 592.167,110.5 599.5,110.5C 599.5,111.833 599.5,113.167 599.5,114.5C 592.167,114.5 584.833,114.5 577.5,114.5C 577.5,113.167 577.5,111.833 577.5,110.5 Z"/></g>
<g><path style="opacity:1" fill="#fefffe" d="M 601.5,110.5 C 608.833,110.5 616.167,110.5 623.5,110.5C 623.5,111.833 623.5,113.167 623.5,114.5C 616.167,114.5 608.833,114.5 601.5,114.5C 601.5,113.167 601.5,111.833 601.5,110.5 Z"/></g>
<g><path style="opacity:1" fill="#fefffe" d="M 625.5,110.5 C 632.833,110.5 640.167,110.5 647.5,110.5C 647.5,111.833 647.5,113.167 647.5,114.5C 640.167,114.5 632.833,114.5 625.5,114.5C 625.5,113.167 625.5,111.833 625.5,110.5 Z"/></g>
<g><path style="opacity:1" fill="#fefffe" d="M 649.5,110.5 C 656.833,110.5 664.167,110.5 671.5,110.5C 671.5,111.833 671.5,113.167 671.5,114.5C 664.167,114.5 656.833,114.5 649.5,114.5C 649.5,113.167 649.5,111.833 649.5,110.5 Z"/></g>
<g><path style="opacity:1" fill="#fefffe" d="M 577.5,115.5 C 584.833,115.5 592.167,115.5 599.5,115.5C 599.5,116.833 599.5,118.167 599.5,119.5C 592.167,119.5 584.833,119.5 577.5,119.5C 577.5,118.167 577.5,116.833 577.5,115.5 Z"/></g>
<g><path style="opacity:1" fill="#fefffe" d="M 601.5,115.5 C 608.833,115.5 616.167,115.5 623.5,115.5C 623.5,116.833 623.5,118.167 623.5,119.5C 616.167,119.5 608.833,119.5 601.5,119.5C 601.5,118.167 601.5,116.833 601.5,115.5 Z"/></g>
<g><path style="opacity:1" fill="#fefffe" d="M 625.5,115.5 C 632.833,115.5 640.167,115.5 647.5,115.5C 647.5,116.833 647.5,118.167 647.5,119.5C 640.167,119.5 632.833,119.5 625.5,119.5C 625.5,118.167 625.5,116.833 625.5,115.5 Z"/></g>
<g><path style="opacity:1" fill="#fefffe" d="M 649.5,115.5 C 656.833,115.5 664.167,115.5 671.5,115.5C 671.5,116.833 671.5,118.167 671.5,119.5C 664.167,119.5 656.833,119.5 649.5,119.5C 649.5,118.167 649.5,116.833 649.5,115.5 Z"/></g>
<g><path style="opacity:1" fill="#8a8a8a" d="M 1103.5,117.5 C 1112.17,117.334 1120.84,117.5 1129.5,118C 1121.51,118.5 1113.51,118.666 1105.5,118.5C 1105.5,131.833 1105.5,145.167 1105.5,158.5C 1137.5,158.833 1137.5,159.167 1105.5,159.5C 1105.5,172.833 1105.5,186.167 1105.5,199.5C 1137.5,199.833 1137.5,200.167 1105.5,200.5C 1105.5,213.833 1105.5,227.167 1105.5,240.5C 1137.5,240.833 1137.5,241.167 1105.5,241.5C 1105.5,254.833 1105.5,268.167 1105.5,281.5C 1113.51,281.334 1121.51,281.5 1129.5,282C 1120.84,282.5 1112.17,282.666 1103.5,282.5C 1103.5,282.167 1103.5,281.833 1103.5,281.5C 1103.5,268.167 1103.5,254.833 1103.5,241.5C 1103.5,241.167 1103.5,240.833 1103.5,240.5C 1103.5,227.167 1103.5,213.833 1103.5,200.5C 1103.5,200.167 1103.5,199.833 1103.5,199.5C 1103.5,186.167 1103.5,172.833 1103.5,159.5C 1103.5,159.167 1103.5,158.833 1103.5,158.5C 1103.5,145.167 1103.5,131.833 1103.5,118.5C 1103.5,118.167 1103.5,117.833 1103.5,117.5 Z"/></g>
<g><path style="opacity:1" fill="#fefffe" d="M 1103.5,118.5 C 1103.5,131.833 1103.5,145.167 1103.5,158.5C 1095.5,158.5 1087.5,158.5 1079.5,158.5C 1079.5,145.167 1079.5,131.833 1079.5,118.5C 1087.5,118.5 1095.5,118.5 1103.5,118.5 Z"/></g>
<g><path style="opacity:1" fill="#fefffe" d="M 577.5,120.5 C 584.833,120.5 592.167,120.5 599.5,120.5C 599.5,121.833 599.5,123.167 599.5,124.5C 592.167,124.5 584.833,124.5 577.5,124.5C 577.5,123.167 577.5,121.833 577.5,120.5 Z"/></g>
<g><path style="opacity:1" fill="#fefffe" d="M 601.5,120.5 C 608.833,120.5 616.167,120.5 623.5,120.5C 623.5,121.833 623.5,123.167 623.5,124.5C 616.167,124.5 608.833,124.5 601.5,124.5C 601.5,123.167 601.5,121.833 601.5,120.5 Z"/></g>
<g><path style="opacity:1" fill="#fefffe" d="M 625.5,120.5 C 632.833,120.5 640.167,120.5 647.5,120.5C 647.5,121.833 647.5,123.167 647.5,124.5C 640.167,124.5 632.833,124.5 625.5,124.5C 625.5,123.167 625.5,121.833 625.5,120.5 Z"/></g>
<g><path style="opacity:1" fill="#fefffe" d="M 649.5,120.5 C 656.833,120.5 664.167,120.5 671.5,120.5C 671.5,121.833 671.5,123.167 671.5,124.5C 664.167,124.5 656.833,124.5 649.5,124.5C 649.5,123.167 649.5,121.833 649.5,120.5 Z"/></g>
<g><path style="opacity:1" fill="#fefffe" d="M 577.5,125.5 C 584.833,125.5 592.167,125.5 599.5,125.5C 599.5,126.833 599.5,128.167 599.5,129.5C 592.167,129.5 584.833,129.5 577.5,129.5C 577.5,128.167 577.5,126.833 577.5,125.5 Z"/></g>
<g><path style="opacity:1" fill="#fefffe" d="M 601.5,125.5 C 608.833,125.5 616.167,125.5 623.5,125.5C 623.5,126.833 623.5,128.167 623.5,129.5C 616.167,129.5 608.833,129.5 601.5,129.5C 601.5,128.167 601.5,126.833 601.5,125.5 Z"/></g>
<g><path style="opacity:1" fill="#fefffe" d="M 625.5,125.5 C 632.833,125.5 640.167,125.5 647.5,125.5C 647.5,126.833 647.5,128.167 647.5,129.5C 640.167,129.5 632.833,129.5 625.5,129.5C 625.5,128.167 625.5,126.833 625.5,125.5 Z"/></g>
<g><path style="opacity:1" fill="#fefffe" d="M 649.5,125.5 C 656.833,125.5 664.167,125.5 671.5,125.5C 671.5,126.833 671.5,128.167 671.5,129.5C 664.167,129.5 656.833,129.5 649.5,129.5C 649.5,128.167 649.5,126.833 649.5,125.5 Z"/></g>
<g><path style="opacity:1" fill="#fefffe" d="M 1103.5,159.5 C 1103.5,172.833 1103.5,186.167 1103.5,199.5C 1095.5,199.5 1087.5,199.5 1079.5,199.5C 1079.5,186.167 1079.5,172.833 1079.5,159.5C 1087.5,159.5 1095.5,159.5 1103.5,159.5 Z"/></g>
<g><path style="opacity:1" fill="#fefffe" d="M 176.5,160.5 C 196.833,160.5 217.167,160.5 237.5,160.5C 237.5,179.167 237.5,197.833 237.5,216.5C 231.167,216.5 224.833,216.5 218.5,216.5C 218.5,212.5 218.5,208.5 218.5,204.5C 204.481,205.17 190.481,205.17 176.5,204.5C 176.5,189.833 176.5,175.167 176.5,160.5 Z"/></g>
<g><path style="opacity:1" fill="#fefffe" d="M 241.5,160.5 C 303.833,160.5 366.167,160.5 428.5,160.5C 428.5,192.5 428.5,224.5 428.5,256.5C 414.5,256.5 400.5,256.5 386.5,256.5C 387.786,267.502 387.786,278.502 386.5,289.5C 338.167,289.5 289.833,289.5 241.5,289.5C 241.5,246.5 241.5,203.5 241.5,160.5 Z"/></g>
<g><path style="opacity:1" fill="#fefffe" d="M 431.5,160.5 C 473.5,160.5 515.5,160.5 557.5,160.5C 557.5,203.5 557.5,246.5 557.5,289.5C 529.167,289.5 500.833,289.5 472.5,289.5C 471.214,278.502 471.214,267.502 472.5,256.5C 458.833,256.5 445.167,256.5 431.5,256.5C 431.5,224.5 431.5,192.5 431.5,160.5 Z"/></g>
<g><path style="opacity:1" fill="#fefffe" d="M 562.5,160.5 C 603.833,160.5 645.167,160.5 686.5,160.5C 686.5,202.5 686.5,244.5 686.5,286.5C 645.157,287.168 603.824,287.168 562.5,286.5C 562.5,244.5 562.5,202.5 562.5,160.5 Z"/></g>
<g><path style="opacity:1" fill="#fefffe" d="M 691.5,160.5 C 727.5,160.5 763.5,160.5 799.5,160.5C 799.5,175.833 799.5,191.167 799.5,206.5C 794.833,206.5 790.167,206.5 785.5,206.5C 785.5,207.5 785.5,208.5 785.5,209.5C 787.766,209.141 789.599,209.808 791,211.5C 790.834,227.49 790.667,243.49 790.5,259.5C 779.51,260.557 768.51,260.557 757.5,259.5C 757.5,245.833 757.5,232.167 757.5,218.5C 761.5,218.5 765.5,218.5 769.5,218.5C 769.5,214.5 769.5,210.5 769.5,206.5C 768.5,206.5 767.5,206.5 766.5,206.5C 766.5,209.5 766.5,212.5 766.5,215.5C 741.5,215.5 716.5,215.5 691.5,215.5C 691.5,197.167 691.5,178.833 691.5,160.5 Z"/></g>
<g><path style="opacity:1" fill="#fefffe" d="M 802.5,160.5 C 811.167,160.5 819.833,160.5 828.5,160.5C 828.832,171.52 828.499,182.52 827.5,193.5C 819.2,194.546 810.867,194.546 802.5,193.5C 802.5,182.5 802.5,171.5 802.5,160.5 Z"/></g>
<g><path style="opacity:1" fill="#fefffe" d="M 831.5,160.5 C 846.833,160.5 862.167,160.5 877.5,160.5C 877.5,170.5 877.5,180.5 877.5,190.5C 873.5,190.5 869.5,190.5 865.5,190.5C 865.5,191.5 865.5,192.5 865.5,193.5C 870.5,193.5 875.5,193.5 880.5,193.5C 880.5,182.5 880.5,171.5 880.5,160.5C 901.833,160.5 923.167,160.5 944.5,160.5C 944.5,186.167 944.5,211.833 944.5,237.5C 922.167,237.5 899.833,237.5 877.5,237.5C 877.5,228.5 877.5,219.5 877.5,210.5C 876.167,210.5 874.833,210.5 873.5,210.5C 873.5,217.5 873.5,224.5 873.5,231.5C 863.494,231.666 853.494,231.5 843.5,231C 842.471,222.897 842.471,214.73 843.5,206.5C 839.5,206.5 835.5,206.5 831.5,206.5C 831.5,191.167 831.5,175.833 831.5,160.5 Z"/></g>
<g><path style="opacity:1" fill="#fefffe" d="M 810.5,195.5 C 816.229,195.212 821.896,195.546 827.5,196.5C 828.492,200.783 828.826,205.116 828.5,209.5C 832.5,209.5 836.5,209.5 840.5,209.5C 841.457,216.477 841.623,223.477 841,230.5C 838.959,231.423 836.792,231.756 834.5,231.5C 835.347,243.519 835.347,255.519 834.5,267.5C 820.82,268.391 807.154,268.391 793.5,267.5C 793.4,248.822 793.233,230.156 793,211.5C 795.804,209.656 798.97,208.989 802.5,209.5C 802.5,205.167 802.5,200.833 802.5,196.5C 805.385,196.806 808.052,196.473 810.5,195.5 Z"/></g>
<g><path style="opacity:1" fill="#fefffe" d="M 1103.5,200.5 C 1103.5,213.833 1103.5,227.167 1103.5,240.5C 1095.5,240.5 1087.5,240.5 1079.5,240.5C 1079.5,227.167 1079.5,213.833 1079.5,200.5C 1087.5,200.5 1095.5,200.5 1103.5,200.5 Z"/></g>
<g><path style="opacity:1" fill="#fefffe" d="M 184.5,207.5 C 194.826,208.018 205.159,208.351 215.5,208.5C 215.5,212.167 215.5,215.833 215.5,219.5C 222.833,219.5 230.167,219.5 237.5,219.5C 237.5,242.833 237.5,266.167 237.5,289.5C 217.173,290.527 196.84,290.527 176.5,289.5C 176.5,262.5 176.5,235.5 176.5,208.5C 179.385,208.806 182.052,208.473 184.5,207.5 Z"/></g>
<g><path style="opacity:1" fill="#fefffe" d="M 1008.5,209.5 C 1030.83,210.255 1053.16,210.588 1075.5,210.5C 1075.5,237.5 1075.5,264.5 1075.5,291.5C 1033.18,292.116 990.843,292.116 948.5,291.5C 948.5,264.5 948.5,237.5 948.5,210.5C 968.674,210.83 988.674,210.497 1008.5,209.5 Z"/></g>
<g><path style="opacity:1" fill="#fefffe" d="M 663.5,514.5 C 639.5,514.5 615.5,514.5 591.5,514.5C 584.352,513.508 577.019,513.175 569.5,513.5C 569.5,469.167 569.5,424.833 569.5,380.5C 567.5,380.5 565.5,380.5 563.5,380.5C 563.5,385.167 563.5,389.833 563.5,394.5C 552.833,395.833 542.167,395.833 531.5,394.5C 531.5,389.833 531.5,385.167 531.5,380.5C 509.833,380.5 488.167,380.5 466.5,380.5C 466.5,372.5 466.5,364.5 466.5,356.5C 495.833,356.5 525.167,356.5 554.5,356.5C 554.5,343.5 554.5,330.5 554.5,317.5C 525.167,317.5 495.833,317.5 466.5,317.5C 465.5,317.5 464.5,317.5 463.5,317.5C 463.5,323.833 463.5,330.167 463.5,336.5C 367.835,337.833 272.168,337.833 176.5,336.5C 176.768,334.901 176.434,333.568 175.5,332.5C 175.5,322.167 175.5,311.833 175.5,301.5C 176.451,300.081 176.784,298.415 176.5,296.5C 177.5,296.5 178.5,296.5 179.5,296.5C 179.5,295.5 179.5,294.5 179.5,293.5C 256.483,293.373 333.483,293.373 410.5,293.5C 410.5,292.167 410.5,290.833 410.5,289.5C 403.833,289.5 397.167,289.5 390.5,289.5C 389.449,280.81 389.449,272.144 390.5,263.5C 396.167,263.5 401.833,263.5 407.5,263.5C 407.5,265.167 407.5,266.833 407.5,268.5C 414.167,268.5 420.833,268.5 427.5,268.5C 427.5,277.833 427.5,287.167 427.5,296.5C 429.167,296.5 430.833,296.5 432.5,296.5C 432.5,287.167 432.5,277.833 432.5,268.5C 439.167,268.5 445.833,268.5 452.5,268.5C 452.5,266.833 452.5,265.167 452.5,263.5C 457.833,263.5 463.167,263.5 468.5,263.5C 469.551,272.144 469.551,280.81 468.5,289.5C 461.5,289.5 454.5,289.5 447.5,289.5C 447.5,290.833 447.5,292.167 447.5,293.5C 485.833,293.5 524.167,293.5 562.5,293.5C 562.5,292.167 562.5,290.833 562.5,289.5C 603.167,289.5 643.833,289.5 684.5,289.5C 684.5,291.833 684.5,294.167 684.5,296.5C 686.833,296.5 689.167,296.5 691.5,296.5C 691.5,297.5 691.5,298.5 691.5,299.5C 698.833,299.5 706.167,299.5 713.5,299.5C 713.5,306.167 713.5,312.833 713.5,319.5C 715.5,319.5 717.5,319.5 719.5,319.5C 719.5,318.5 719.5,317.5 719.5,316.5C 718.5,316.5 717.5,316.5 716.5,316.5C 716.5,307.5 716.5,298.5 716.5,289.5C 715.5,289.5 714.5,289.5 713.5,289.5C 713.5,291.833 713.5,294.167 713.5,296.5C 708.167,296.5 702.833,296.5 697.5,296.5C 697.5,281.5 697.5,266.5 697.5,251.5C 695.5,251.5 693.5,251.5 691.5,251.5C 691.5,240.833 691.5,230.167 691.5,219.5C 712.5,219.5 733.5,219.5 754.5,219.5C 754.5,245.833 754.5,272.167 754.5,298.5C 755.5,298.5 756.5,298.5 757.5,298.5C 757.5,286.5 757.5,274.5 757.5,262.5C 768.51,261.443 779.51,261.443 790.5,262.5C 790.5,280.5 790.5,298.5 790.5,316.5C 779.5,316.5 768.5,316.5 757.5,316.5C 757.5,315.5 757.5,314.5 757.5,313.5C 756.5,313.5 755.5,313.5 754.5,313.5C 754.5,314.5 754.5,315.5 754.5,316.5C 747.5,316.5 740.5,316.5 733.5,316.5C 733.5,317.5 733.5,318.5 733.5,319.5C 753.5,319.5 773.5,319.5 793.5,319.5C 793.5,303.167 793.5,286.833 793.5,270.5C 802.187,269.386 810.854,269.386 819.5,270.5C 819.5,283.833 819.5,297.167 819.5,310.5C 820.5,310.5 821.5,310.5 822.5,310.5C 822.5,297.167 822.5,283.833 822.5,270.5C 826.167,270.5 829.833,270.5 833.5,270.5C 833.5,271.5 833.5,272.5 833.5,273.5C 856.5,273.5 879.5,273.5 902.5,273.5C 902.5,272.167 902.5,270.833 902.5,269.5C 897.5,269.5 892.5,269.5 887.5,269.5C 887.5,260.167 887.5,250.833 887.5,241.5C 906.5,241.5 925.5,241.5 944.5,241.5C 944.5,250.833 944.5,260.167 944.5,269.5C 934.833,269.5 925.167,269.5 915.5,269.5C 915.5,270.833 915.5,272.167 915.5,273.5C 925.167,273.5 934.833,273.5 944.5,273.5C 944.5,294.167 944.5,314.833 944.5,335.5C 903.833,335.5 863.167,335.5 822.5,335.5C 822.5,332.5 822.5,329.5 822.5,326.5C 821.5,326.5 820.5,326.5 819.5,326.5C 819.5,328.5 819.5,330.5 819.5,332.5C 817.833,332.5 816.167,332.5 814.5,332.5C 815.481,342.192 815.481,351.859 814.5,361.5C 783.167,361.5 751.833,361.5 720.5,361.5C 720.5,358.5 720.5,355.5 720.5,352.5C 718.167,352.5 715.833,352.5 713.5,352.5C 713.831,360.86 713.498,369.193 712.5,377.5C 703.537,378.463 694.537,378.463 685.5,377.5C 685.5,422.833 685.5,468.167 685.5,513.5C 677.981,513.175 670.648,513.508 663.5,514.5 Z"/></g>
<g><path style="opacity:1" fill="#fefffe" d="M 837.5,235.5 C 850.167,235.5 862.833,235.5 875.5,235.5C 875.5,237.5 875.5,239.5 875.5,241.5C 878.5,241.5 881.5,241.5 884.5,241.5C 884.5,250.833 884.5,260.167 884.5,269.5C 868.833,269.5 853.167,269.5 837.5,269.5C 836.388,258.175 836.388,246.842 837.5,235.5 Z"/></g>
<g><path style="opacity:1" fill="#fefffe" d="M 1103.5,241.5 C 1103.5,254.833 1103.5,268.167 1103.5,281.5C 1095.5,281.5 1087.5,281.5 1079.5,281.5C 1079.5,268.167 1079.5,254.833 1079.5,241.5C 1087.5,241.5 1095.5,241.5 1103.5,241.5 Z"/></g>
<g><path style="opacity:1" fill="#577686" d="M 173.5,301.5 C 174.167,301.5 174.833,301.5 175.5,301.5C 175.5,311.833 175.5,322.167 175.5,332.5C 174.833,332.5 174.167,332.5 173.5,332.5C 173.5,322.167 173.5,311.833 173.5,301.5 Z"/></g>
<g><path style="opacity:1" fill="#7f8080" d="M 466.5,317.5 C 466.5,330.5 466.5,343.5 466.5,356.5C 466.5,364.5 466.5,372.5 466.5,380.5C 488.167,380.5 509.833,380.5 531.5,380.5C 531.5,385.167 531.5,389.833 531.5,394.5C 542.167,395.833 552.833,395.833 563.5,394.5C 563.5,389.833 563.5,385.167 563.5,380.5C 565.5,380.5 567.5,380.5 569.5,380.5C 569.5,424.833 569.5,469.167 569.5,513.5C 577.019,513.175 584.352,513.508 591.5,514.5C 591.5,515.167 591.5,515.833 591.5,516.5C 452.001,517.5 312.334,517.833 172.5,517.5C 172.5,470.5 172.5,423.5 172.5,376.5C 164.833,376.5 157.167,376.5 149.5,376.5C 149.167,376.5 148.833,376.5 148.5,376.5C 156.316,375.508 164.316,375.174 172.5,375.5C 172.171,360.99 172.504,346.657 173.5,332.5C 174.167,332.5 174.833,332.5 175.5,332.5C 176.434,333.568 176.768,334.901 176.5,336.5C 272.168,337.833 367.835,337.833 463.5,336.5C 463.5,330.167 463.5,323.833 463.5,317.5C 464.5,317.5 465.5,317.5 466.5,317.5 Z"/></g>
<g><path style="opacity:1" fill="#000000" d="M 466.5,317.5 C 495.833,317.5 525.167,317.5 554.5,317.5C 554.5,330.5 554.5,343.5 554.5,356.5C 525.167,356.5 495.833,356.5 466.5,356.5C 466.5,343.5 466.5,330.5 466.5,317.5 Z"/></g>
<g><path style="opacity:1" fill="#fefffe" d="M 468.5,319.5 C 469.833,319.5 471.167,319.5 472.5,319.5C 472.5,325.167 472.5,330.833 472.5,336.5C 471.167,336.5 469.833,336.5 468.5,336.5C 468.5,330.833 468.5,325.167 468.5,319.5 Z"/></g>
<g><path style="opacity:1" fill="#fefffe" d="M 473.5,319.5 C 474.833,319.5 476.167,319.5 477.5,319.5C 477.5,325.167 477.5,330.833 477.5,336.5C 476.167,336.5 474.833,336.5 473.5,336.5C 473.5,330.833 473.5,325.167 473.5,319.5 Z"/></g>
<g><path style="opacity:1" fill="#fefffe" d="M 478.5,319.5 C 479.833,319.5 481.167,319.5 482.5,319.5C 482.5,325.167 482.5,330.833 482.5,336.5C 481.167,336.5 479.833,336.5 478.5,336.5C 478.5,330.833 478.5,325.167 478.5,319.5 Z"/></g>
<g><path style="opacity:1" fill="#fefffe" d="M 483.5,319.5 C 484.833,319.5 486.167,319.5 487.5,319.5C 487.5,325.167 487.5,330.833 487.5,336.5C 486.167,336.5 484.833,336.5 483.5,336.5C 483.5,330.833 483.5,325.167 483.5,319.5 Z"/></g>
<g><path style="opacity:1" fill="#fefffe" d="M 488.5,319.5 C 489.833,319.5 491.167,319.5 492.5,319.5C 492.5,325.167 492.5,330.833 492.5,336.5C 491.167,336.5 489.833,336.5 488.5,336.5C 488.5,330.833 488.5,325.167 488.5,319.5 Z"/></g>
<g><path style="opacity:1" fill="#fefffe" d="M 493.5,319.5 C 494.833,319.5 496.167,319.5 497.5,319.5C 497.5,325.167 497.5,330.833 497.5,336.5C 496.167,336.5 494.833,336.5 493.5,336.5C 493.5,330.833 493.5,325.167 493.5,319.5 Z"/></g>
<g><path style="opacity:1" fill="#fefffe" d="M 498.5,319.5 C 499.833,319.5 501.167,319.5 502.5,319.5C 502.5,325.167 502.5,330.833 502.5,336.5C 501.167,336.5 499.833,336.5 498.5,336.5C 498.5,330.833 498.5,325.167 498.5,319.5 Z"/></g>
<g><path style="opacity:1" fill="#fefffe" d="M 503.5,319.5 C 504.833,319.5 506.167,319.5 507.5,319.5C 507.5,325.167 507.5,330.833 507.5,336.5C 506.167,336.5 504.833,336.5 503.5,336.5C 503.5,330.833 503.5,325.167 503.5,319.5 Z"/></g>
<g><path style="opacity:1" fill="#fefffe" d="M 508.5,319.5 C 509.833,319.5 511.167,319.5 512.5,319.5C 512.5,325.167 512.5,330.833 512.5,336.5C 511.167,336.5 509.833,336.5 508.5,336.5C 508.5,330.833 508.5,325.167 508.5,319.5 Z"/></g>
<g><path style="opacity:1" fill="#fefffe" d="M 513.5,319.5 C 514.833,319.5 516.167,319.5 517.5,319.5C 517.5,325.167 517.5,330.833 517.5,336.5C 516.167,336.5 514.833,336.5 513.5,336.5C 513.5,330.833 513.5,325.167 513.5,319.5 Z"/></g>
<g><path style="opacity:1" fill="#fefffe" d="M 518.5,319.5 C 519.833,319.5 521.167,319.5 522.5,319.5C 522.5,325.167 522.5,330.833 522.5,336.5C 521.167,336.5 519.833,336.5 518.5,336.5C 518.5,330.833 518.5,325.167 518.5,319.5 Z"/></g>
<g><path style="opacity:1" fill="#fefffe" d="M 523.5,319.5 C 524.833,319.5 526.167,319.5 527.5,319.5C 527.5,325.167 527.5,330.833 527.5,336.5C 526.167,336.5 524.833,336.5 523.5,336.5C 523.5,330.833 523.5,325.167 523.5,319.5 Z"/></g>
<g><path style="opacity:1" fill="#fefffe" d="M 528.5,319.5 C 529.833,319.5 531.167,319.5 532.5,319.5C 532.5,325.167 532.5,330.833 532.5,336.5C 531.167,336.5 529.833,336.5 528.5,336.5C 528.5,330.833 528.5,325.167 528.5,319.5 Z"/></g>
<g><path style="opacity:1" fill="#fefffe" d="M 533.5,319.5 C 534.833,319.5 536.167,319.5 537.5,319.5C 537.5,325.167 537.5,330.833 537.5,336.5C 536.167,336.5 534.833,336.5 533.5,336.5C 533.5,330.833 533.5,325.167 533.5,319.5 Z"/></g>
<g><path style="opacity:1" fill="#fefffe" d="M 538.5,319.5 C 539.833,319.5 541.167,319.5 542.5,319.5C 542.5,325.167 542.5,330.833 542.5,336.5C 541.167,336.5 539.833,336.5 538.5,336.5C 538.5,330.833 538.5,325.167 538.5,319.5 Z"/></g>
<g><path style="opacity:1" fill="#fefffe" d="M 543.5,319.5 C 544.833,319.5 546.167,319.5 547.5,319.5C 547.5,325.167 547.5,330.833 547.5,336.5C 546.167,336.5 544.833,336.5 543.5,336.5C 543.5,330.833 543.5,325.167 543.5,319.5 Z"/></g>
<g><path style="opacity:1" fill="#fefffe" d="M 548.5,319.5 C 549.833,319.5 551.167,319.5 552.5,319.5C 552.5,325.167 552.5,330.833 552.5,336.5C 551.167,336.5 549.833,336.5 548.5,336.5C 548.5,330.833 548.5,325.167 548.5,319.5 Z"/></g>
<g><path style="opacity:1" fill="#fefffe" d="M 468.5,337.5 C 469.833,337.5 471.167,337.5 472.5,337.5C 472.5,343.167 472.5,348.833 472.5,354.5C 471.167,354.5 469.833,354.5 468.5,354.5C 468.5,348.833 468.5,343.167 468.5,337.5 Z"/></g>
<g><path style="opacity:1" fill="#fefffe" d="M 473.5,337.5 C 474.833,337.5 476.167,337.5 477.5,337.5C 477.5,343.167 477.5,348.833 477.5,354.5C 476.167,354.5 474.833,354.5 473.5,354.5C 473.5,348.833 473.5,343.167 473.5,337.5 Z"/></g>
<g><path style="opacity:1" fill="#fefffe" d="M 478.5,337.5 C 479.833,337.5 481.167,337.5 482.5,337.5C 482.5,343.167 482.5,348.833 482.5,354.5C 481.167,354.5 479.833,354.5 478.5,354.5C 478.5,348.833 478.5,343.167 478.5,337.5 Z"/></g>
<g><path style="opacity:1" fill="#fefffe" d="M 483.5,337.5 C 484.833,337.5 486.167,337.5 487.5,337.5C 487.5,343.167 487.5,348.833 487.5,354.5C 486.167,354.5 484.833,354.5 483.5,354.5C 483.5,348.833 483.5,343.167 483.5,337.5 Z"/></g>
<g><path style="opacity:1" fill="#fefffe" d="M 488.5,337.5 C 489.833,337.5 491.167,337.5 492.5,337.5C 492.5,343.167 492.5,348.833 492.5,354.5C 491.167,354.5 489.833,354.5 488.5,354.5C 488.5,348.833 488.5,343.167 488.5,337.5 Z"/></g>
<g><path style="opacity:1" fill="#fefffe" d="M 493.5,337.5 C 494.833,337.5 496.167,337.5 497.5,337.5C 497.5,343.167 497.5,348.833 497.5,354.5C 496.167,354.5 494.833,354.5 493.5,354.5C 493.5,348.833 493.5,343.167 493.5,337.5 Z"/></g>
<g><path style="opacity:1" fill="#fefffe" d="M 498.5,337.5 C 499.833,337.5 501.167,337.5 502.5,337.5C 502.5,343.167 502.5,348.833 502.5,354.5C 501.167,354.5 499.833,354.5 498.5,354.5C 498.5,348.833 498.5,343.167 498.5,337.5 Z"/></g>
<g><path style="opacity:1" fill="#fefffe" d="M 503.5,337.5 C 504.833,337.5 506.167,337.5 507.5,337.5C 507.5,343.167 507.5,348.833 507.5,354.5C 506.167,354.5 504.833,354.5 503.5,354.5C 503.5,348.833 503.5,343.167 503.5,337.5 Z"/></g>
<g><path style="opacity:1" fill="#fefffe" d="M 508.5,337.5 C 509.833,337.5 511.167,337.5 512.5,337.5C 512.5,343.167 512.5,348.833 512.5,354.5C 511.167,354.5 509.833,354.5 508.5,354.5C 508.5,348.833 508.5,343.167 508.5,337.5 Z"/></g>
<g><path style="opacity:1" fill="#fefffe" d="M 513.5,337.5 C 514.833,337.5 516.167,337.5 517.5,337.5C 517.5,343.167 517.5,348.833 517.5,354.5C 516.167,354.5 514.833,354.5 513.5,354.5C 513.5,348.833 513.5,343.167 513.5,337.5 Z"/></g>
<g><path style="opacity:1" fill="#fefffe" d="M 518.5,337.5 C 519.833,337.5 521.167,337.5 522.5,337.5C 522.5,343.167 522.5,348.833 522.5,354.5C 521.167,354.5 519.833,354.5 518.5,354.5C 518.5,348.833 518.5,343.167 518.5,337.5 Z"/></g>
<g><path style="opacity:1" fill="#fefffe" d="M 523.5,337.5 C 524.833,337.5 526.167,337.5 527.5,337.5C 527.5,343.167 527.5,348.833 527.5,354.5C 526.167,354.5 524.833,354.5 523.5,354.5C 523.5,348.833 523.5,343.167 523.5,337.5 Z"/></g>
<g><path style="opacity:1" fill="#fefffe" d="M 528.5,337.5 C 529.833,337.5 531.167,337.5 532.5,337.5C 532.5,343.167 532.5,348.833 532.5,354.5C 531.167,354.5 529.833,354.5 528.5,354.5C 528.5,348.833 528.5,343.167 528.5,337.5 Z"/></g>
<g><path style="opacity:1" fill="#fefffe" d="M 533.5,337.5 C 534.833,337.5 536.167,337.5 537.5,337.5C 537.5,343.167 537.5,348.833 537.5,354.5C 536.167,354.5 534.833,354.5 533.5,354.5C 533.5,348.833 533.5,343.167 533.5,337.5 Z"/></g>
<g><path style="opacity:1" fill="#fefffe" d="M 538.5,337.5 C 539.833,337.5 541.167,337.5 542.5,337.5C 542.5,343.167 542.5,348.833 542.5,354.5C 541.167,354.5 539.833,354.5 538.5,354.5C 538.5,348.833 538.5,343.167 538.5,337.5 Z"/></g>
<g><path style="opacity:1" fill="#fefffe" d="M 543.5,337.5 C 544.833,337.5 546.167,337.5 547.5,337.5C 547.5,343.167 547.5,348.833 547.5,354.5C 546.167,354.5 544.833,354.5 543.5,354.5C 543.5,348.833 543.5,343.167 543.5,337.5 Z"/></g>
<g><path style="opacity:1" fill="#fefffe" d="M 548.5,337.5 C 549.833,337.5 551.167,337.5 552.5,337.5C 552.5,343.167 552.5,348.833 552.5,354.5C 551.167,354.5 549.833,354.5 548.5,354.5C 548.5,348.833 548.5,343.167 548.5,337.5 Z"/></g>
<g><path style="opacity:1" fill="#fefffe" d="M 228.5,338.5 C 234.229,338.212 239.896,338.546 245.5,339.5C 246.833,365.167 246.833,390.833 245.5,416.5C 238.521,417.711 231.521,417.711 224.5,416.5C 224.5,415.167 224.5,413.833 224.5,412.5C 208.5,412.5 192.5,412.5 176.5,412.5C 176.5,388.167 176.5,363.833 176.5,339.5C 194.008,339.83 211.341,339.497 228.5,338.5 Z"/></g>
<g><path style="opacity:1" fill="#fefffe" d="M 312.5,338.5 C 318.545,338.303 324.545,338.637 330.5,339.5C 330.994,397.486 330.994,455.486 330.5,513.5C 303.833,513.5 277.167,513.5 250.5,513.5C 250.5,492.833 250.5,472.167 250.5,451.5C 235.854,452.11 221.187,452.11 206.5,451.5C 205.833,446.167 205.167,446.167 204.5,451.5C 195.167,451.5 185.833,451.5 176.5,451.5C 176.5,439.167 176.5,426.833 176.5,414.5C 185.833,414.5 195.167,414.5 204.5,414.5C 205.167,443.833 205.833,443.833 206.5,414.5C 211.833,414.5 217.167,414.5 222.5,414.5C 222.5,416.167 222.5,417.833 222.5,419.5C 231.175,418.249 239.841,418.249 248.5,419.5C 248.5,407.833 248.5,396.167 248.5,384.5C 267.5,384.5 286.5,384.5 305.5,384.5C 305.053,369.528 305.053,354.528 305.5,339.5C 308.059,339.802 310.393,339.468 312.5,338.5 Z"/></g>
<g><path style="opacity:1" fill="#fefffe" d="M 420.5,338.5 C 434.824,339.143 449.158,339.476 463.5,339.5C 463.5,353.167 463.5,366.833 463.5,380.5C 439.833,380.5 416.167,380.5 392.5,380.5C 392.5,366.833 392.5,353.167 392.5,339.5C 402.015,339.827 411.348,339.494 420.5,338.5 Z"/></g>
<g><path style="opacity:1" fill="#fefffe" d="M 817.5,338.5 C 859.833,338.5 902.167,338.5 944.5,338.5C 944.5,396.833 944.5,455.167 944.5,513.5C 902.167,513.5 859.833,513.5 817.5,513.5C 817.414,455.139 817.414,396.805 817.5,338.5 Z"/></g>
<g><path style="opacity:1" fill="#fefffe" d="M 248.5,339.5 C 266.5,339.5 284.5,339.5 302.5,339.5C 302.898,353.873 302.898,368.206 302.5,382.5C 284.5,382.5 266.5,382.5 248.5,382.5C 248.5,368.167 248.5,353.833 248.5,339.5 Z"/></g>
<g><path style="opacity:1" fill="#fefffe" d="M 333.5,339.5 C 352.167,339.5 370.833,339.5 389.5,339.5C 389.5,397.5 389.5,455.5 389.5,513.5C 370.833,513.5 352.167,513.5 333.5,513.5C 333.006,455.486 333.006,397.486 333.5,339.5 Z"/></g>
<g><path style="opacity:1" fill="#fefffe" d="M 717.5,366.5 C 749.5,366.5 781.5,366.5 813.5,366.5C 813.5,415.5 813.5,464.5 813.5,513.5C 772.167,513.5 730.833,513.5 689.5,513.5C 689.5,469.5 689.5,425.5 689.5,381.5C 698.833,380.167 708.167,380.167 717.5,381.5C 717.5,376.5 717.5,371.5 717.5,366.5 Z"/></g>
<g><path style="opacity:1" fill="#5d5d5d" d="M 954.5,369.5 C 965.833,369.5 977.167,369.5 988.5,369.5C 988.5,372.167 988.5,374.833 988.5,377.5C 994.167,377.5 999.833,377.5 1005.5,377.5C 1005.5,374.833 1005.5,372.167 1005.5,369.5C 1006.5,369.5 1007.5,369.5 1008.5,369.5C 1008.5,399.833 1008.5,430.167 1008.5,460.5C 990.5,460.5 972.5,460.5 954.5,460.5C 954.5,430.167 954.5,399.833 954.5,369.5 Z"/></g>
<g><path style="opacity:1" fill="#fefffe" d="M 957.5,372.5 C 963.5,372.5 969.5,372.5 975.5,372.5C 975.5,375.833 975.5,379.167 975.5,382.5C 969.5,382.5 963.5,382.5 957.5,382.5C 957.5,379.167 957.5,375.833 957.5,372.5 Z"/></g>
<g><path style="opacity:1" fill="#fefffe" d="M 978.5,372.5 C 980.833,372.5 983.167,372.5 985.5,372.5C 985.5,394.167 985.5,415.833 985.5,437.5C 983.167,437.5 980.833,437.5 978.5,437.5C 978.5,415.833 978.5,394.167 978.5,372.5 Z"/></g>
<g><path style="opacity:1" fill="#000000" d="M 148.5,376.5 C 148.833,376.5 149.167,376.5 149.5,376.5C 149.5,422.5 149.5,468.5 149.5,514.5C 139.5,514.5 129.5,514.5 119.5,514.5C 119.333,468.499 119.5,422.499 120,376.5C 124.582,377.802 129.415,378.469 134.5,378.5C 139.551,378.493 144.217,377.827 148.5,376.5 Z"/></g>
<g><path style="opacity:1" fill="#fefffe" d="M 988.5,378.5 C 994.167,378.5 999.833,378.5 1005.5,378.5C 1005.5,379.833 1005.5,381.167 1005.5,382.5C 999.833,382.5 994.167,382.5 988.5,382.5C 988.5,381.167 988.5,379.833 988.5,378.5 Z"/></g>
<g><path style="opacity:1" fill="#fefffe" d="M 120.5,379.5 C 129.833,379.5 139.167,379.5 148.5,379.5C 148.5,380.833 148.5,382.167 148.5,383.5C 139.167,383.5 129.833,383.5 120.5,383.5C 120.5,382.167 120.5,380.833 120.5,379.5 Z"/></g>
<g><path style="opacity:1" fill="#fefffe" d="M 392.5,383.5 C 437.833,383.5 483.167,383.5 528.5,383.5C 528.5,388.5 528.5,393.5 528.5,398.5C 540.503,397.25 552.503,397.25 564.5,398.5C 564.5,436.833 564.5,475.167 564.5,513.5C 507.167,513.5 449.833,513.5 392.5,513.5C 392.5,470.167 392.5,426.833 392.5,383.5 Z"/></g>
<g><path style="opacity:1" fill="#fefffe" d="M 957.5,383.5 C 963.5,383.5 969.5,383.5 975.5,383.5C 975.5,384.833 975.5,386.167 975.5,387.5C 969.5,387.5 963.5,387.5 957.5,387.5C 957.5,386.167 957.5,384.833 957.5,383.5 Z"/></g>
<g><path style="opacity:1" fill="#fefffe" d="M 988.5,383.5 C 994.167,383.5 999.833,383.5 1005.5,383.5C 1005.5,384.833 1005.5,386.167 1005.5,387.5C 999.833,387.5 994.167,387.5 988.5,387.5C 988.5,386.167 988.5,384.833 988.5,383.5 Z"/></g>
<g><path style="opacity:1" fill="#fefffe" d="M 120.5,384.5 C 129.833,384.5 139.167,384.5 148.5,384.5C 148.5,385.833 148.5,387.167 148.5,388.5C 139.167,388.5 129.833,388.5 120.5,388.5C 120.5,387.167 120.5,385.833 120.5,384.5 Z"/></g>
<g><path style="opacity:1" fill="#fefffe" d="M 957.5,388.5 C 963.5,388.5 969.5,388.5 975.5,388.5C 975.5,389.833 975.5,391.167 975.5,392.5C 969.5,392.5 963.5,392.5 957.5,392.5C 957.5,391.167 957.5,389.833 957.5,388.5 Z"/></g>
<g><path style="opacity:1" fill="#fefffe" d="M 988.5,388.5 C 994.167,388.5 999.833,388.5 1005.5,388.5C 1005.5,389.833 1005.5,391.167 1005.5,392.5C 999.833,392.5 994.167,392.5 988.5,392.5C 988.5,391.167 988.5,389.833 988.5,388.5 Z"/></g>
<g><path style="opacity:1" fill="#fefffe" d="M 120.5,389.5 C 129.833,389.5 139.167,389.5 148.5,389.5C 148.5,390.833 148.5,392.167 148.5,393.5C 139.167,393.5 129.833,393.5 120.5,393.5C 120.5,392.167 120.5,390.833 120.5,389.5 Z"/></g>
<g><path style="opacity:1" fill="#fefffe" d="M 957.5,393.5 C 963.5,393.5 969.5,393.5 975.5,393.5C 975.5,394.833 975.5,396.167 975.5,397.5C 969.5,397.5 963.5,397.5 957.5,397.5C 957.5,396.167 957.5,394.833 957.5,393.5 Z"/></g>
<g><path style="opacity:1" fill="#fefffe" d="M 988.5,393.5 C 994.167,393.5 999.833,393.5 1005.5,393.5C 1005.5,394.833 1005.5,396.167 1005.5,397.5C 999.833,397.5 994.167,397.5 988.5,397.5C 988.5,396.167 988.5,394.833 988.5,393.5 Z"/></g>
<g><path style="opacity:1" fill="#fefffe" d="M 120.5,394.5 C 129.833,394.5 139.167,394.5 148.5,394.5C 148.5,395.833 148.5,397.167 148.5,398.5C 139.167,398.5 129.833,398.5 120.5,398.5C 120.5,397.167 120.5,395.833 120.5,394.5 Z"/></g>
<g><path style="opacity:1" fill="#fefffe" d="M 957.5,398.5 C 963.5,398.5 969.5,398.5 975.5,398.5C 975.5,399.833 975.5,401.167 975.5,402.5C 969.5,402.5 963.5,402.5 957.5,402.5C 957.5,401.167 957.5,399.833 957.5,398.5 Z"/></g>
<g><path style="opacity:1" fill="#fefffe" d="M 988.5,398.5 C 994.167,398.5 999.833,398.5 1005.5,398.5C 1005.5,399.833 1005.5,401.167 1005.5,402.5C 999.833,402.5 994.167,402.5 988.5,402.5C 988.5,401.167 988.5,399.833 988.5,398.5 Z"/></g>
<g><path style="opacity:1" fill="#fefffe" d="M 120.5,399.5 C 129.833,399.5 139.167,399.5 148.5,399.5C 148.5,400.833 148.5,402.167 148.5,403.5C 139.167,403.5 129.833,403.5 120.5,403.5C 120.5,402.167 120.5,400.833 120.5,399.5 Z"/></g>
<g><path style="opacity:1" fill="#fefffe" d="M 957.5,403.5 C 963.5,403.5 969.5,403.5 975.5,403.5C 975.5,404.833 975.5,406.167 975.5,407.5C 969.5,407.5 963.5,407.5 957.5,407.5C 957.5,406.167 957.5,404.833 957.5,403.5 Z"/></g>
<g><path style="opacity:1" fill="#fefffe" d="M 988.5,403.5 C 994.167,403.5 999.833,403.5 1005.5,403.5C 1005.5,404.833 1005.5,406.167 1005.5,407.5C 999.833,407.5 994.167,407.5 988.5,407.5C 988.5,406.167 988.5,404.833 988.5,403.5 Z"/></g>
<g><path style="opacity:1" fill="#fefffe" d="M 120.5,404.5 C 129.833,404.5 139.167,404.5 148.5,404.5C 148.5,405.833 148.5,407.167 148.5,408.5C 139.167,408.5 129.833,408.5 120.5,408.5C 120.5,407.167 120.5,405.833 120.5,404.5 Z"/></g>
<g><path style="opacity:1" fill="#fefffe" d="M 957.5,408.5 C 963.5,408.5 969.5,408.5 975.5,408.5C 975.5,409.833 975.5,411.167 975.5,412.5C 969.5,412.5 963.5,412.5 957.5,412.5C 957.5,411.167 957.5,409.833 957.5,408.5 Z"/></g>
<g><path style="opacity:1" fill="#fefffe" d="M 988.5,408.5 C 994.167,408.5 999.833,408.5 1005.5,408.5C 1005.5,409.833 1005.5,411.167 1005.5,412.5C 999.833,412.5 994.167,412.5 988.5,412.5C 988.5,411.167 988.5,409.833 988.5,408.5 Z"/></g>
<g><path style="opacity:1" fill="#fefffe" d="M 120.5,409.5 C 129.833,409.5 139.167,409.5 148.5,409.5C 148.5,410.833 148.5,412.167 148.5,413.5C 139.167,413.5 129.833,413.5 120.5,413.5C 120.5,412.167 120.5,410.833 120.5,409.5 Z"/></g>
<g><path style="opacity:1" fill="#fefffe" d="M 957.5,413.5 C 963.5,413.5 969.5,413.5 975.5,413.5C 975.5,414.833 975.5,416.167 975.5,417.5C 969.5,417.5 963.5,417.5 957.5,417.5C 957.5,416.167 957.5,414.833 957.5,413.5 Z"/></g>
<g><path style="opacity:1" fill="#fefffe" d="M 988.5,413.5 C 994.167,413.5 999.833,413.5 1005.5,413.5C 1005.5,414.833 1005.5,416.167 1005.5,417.5C 999.833,417.5 994.167,417.5 988.5,417.5C 988.5,416.167 988.5,414.833 988.5,413.5 Z"/></g>
<g><path style="opacity:1" fill="#fefffe" d="M 120.5,414.5 C 129.833,414.5 139.167,414.5 148.5,414.5C 148.5,415.833 148.5,417.167 148.5,418.5C 139.167,418.5 129.833,418.5 120.5,418.5C 120.5,417.167 120.5,415.833 120.5,414.5 Z"/></g>
<g><path style="opacity:1" fill="#fefffe" d="M 957.5,418.5 C 963.5,418.5 969.5,418.5 975.5,418.5C 975.5,419.833 975.5,421.167 975.5,422.5C 969.5,422.5 963.5,422.5 957.5,422.5C 957.5,421.167 957.5,419.833 957.5,418.5 Z"/></g>
<g><path style="opacity:1" fill="#fefffe" d="M 988.5,418.5 C 994.167,418.5 999.833,418.5 1005.5,418.5C 1005.5,419.833 1005.5,421.167 1005.5,422.5C 999.833,422.5 994.167,422.5 988.5,422.5C 988.5,421.167 988.5,419.833 988.5,418.5 Z"/></g>
<g><path style="opacity:1" fill="#fefffe" d="M 120.5,419.5 C 129.833,419.5 139.167,419.5 148.5,419.5C 148.5,420.833 148.5,422.167 148.5,423.5C 139.167,423.5 129.833,423.5 120.5,423.5C 120.5,422.167 120.5,420.833 120.5,419.5 Z"/></g>
<g><path style="opacity:1" fill="#fefffe" d="M 957.5,423.5 C 963.5,423.5 969.5,423.5 975.5,423.5C 975.5,424.833 975.5,426.167 975.5,427.5C 969.5,427.5 963.5,427.5 957.5,427.5C 957.5,426.167 957.5,424.833 957.5,423.5 Z"/></g>
<g><path style="opacity:1" fill="#fefffe" d="M 988.5,423.5 C 994.167,423.5 999.833,423.5 1005.5,423.5C 1005.5,424.833 1005.5,426.167 1005.5,427.5C 999.833,427.5 994.167,427.5 988.5,427.5C 988.5,426.167 988.5,424.833 988.5,423.5 Z"/></g>
<g><path style="opacity:1" fill="#fefffe" d="M 120.5,424.5 C 129.833,424.5 139.167,424.5 148.5,424.5C 148.5,425.833 148.5,427.167 148.5,428.5C 139.167,428.5 129.833,428.5 120.5,428.5C 120.5,427.167 120.5,425.833 120.5,424.5 Z"/></g>
<g><path style="opacity:1" fill="#fefffe" d="M 957.5,428.5 C 963.5,428.5 969.5,428.5 975.5,428.5C 975.5,429.833 975.5,431.167 975.5,432.5C 969.5,432.5 963.5,432.5 957.5,432.5C 957.5,431.167 957.5,429.833 957.5,428.5 Z"/></g>
<g><path style="opacity:1" fill="#fefffe" d="M 988.5,428.5 C 994.167,428.5 999.833,428.5 1005.5,428.5C 1005.5,429.833 1005.5,431.167 1005.5,432.5C 999.833,432.5 994.167,432.5 988.5,432.5C 988.5,431.167 988.5,429.833 988.5,428.5 Z"/></g>
<g><path style="opacity:1" fill="#fefffe" d="M 120.5,429.5 C 129.833,429.5 139.167,429.5 148.5,429.5C 148.5,430.833 148.5,432.167 148.5,433.5C 139.167,433.5 129.833,433.5 120.5,433.5C 120.5,432.167 120.5,430.833 120.5,429.5 Z"/></g>
<g><path style="opacity:1" fill="#fefffe" d="M 957.5,433.5 C 963.5,433.5 969.5,433.5 975.5,433.5C 975.5,434.833 975.5,436.167 975.5,437.5C 969.5,437.5 963.5,437.5 957.5,437.5C 957.5,436.167 957.5,434.833 957.5,433.5 Z"/></g>
<g><path style="opacity:1" fill="#fefffe" d="M 988.5,433.5 C 994.167,433.5 999.833,433.5 1005.5,433.5C 1005.5,434.833 1005.5,436.167 1005.5,437.5C 999.833,437.5 994.167,437.5 988.5,437.5C 988.5,436.167 988.5,434.833 988.5,433.5 Z"/></g>
<g><path style="opacity:1" fill="#fefffe" d="M 120.5,434.5 C 129.833,434.5 139.167,434.5 148.5,434.5C 148.5,435.833 148.5,437.167 148.5,438.5C 139.167,438.5 129.833,438.5 120.5,438.5C 120.5,437.167 120.5,435.833 120.5,434.5 Z"/></g>
<g><path style="opacity:1" fill="#fefffe" d="M 957.5,438.5 C 965.732,438.322 973.898,438.989 982,440.5C 989.769,439.017 997.602,438.351 1005.5,438.5C 1005.5,444.833 1005.5,451.167 1005.5,457.5C 989.5,457.5 973.5,457.5 957.5,457.5C 957.5,451.167 957.5,444.833 957.5,438.5 Z"/></g>
<g><path style="opacity:1" fill="#fefffe" d="M 120.5,439.5 C 129.833,439.5 139.167,439.5 148.5,439.5C 148.5,440.833 148.5,442.167 148.5,443.5C 139.167,443.5 129.833,443.5 120.5,443.5C 120.5,442.167 120.5,440.833 120.5,439.5 Z"/></g>
<g><path style="opacity:1" fill="#fefffe" d="M 120.5,444.5 C 129.833,444.5 139.167,444.5 148.5,444.5C 148.5,445.833 148.5,447.167 148.5,448.5C 139.167,448.5 129.833,448.5 120.5,448.5C 120.5,447.167 120.5,445.833 120.5,444.5 Z"/></g>
<g><path style="opacity:1" fill="#fefffe" d="M 120.5,449.5 C 129.833,449.5 139.167,449.5 148.5,449.5C 148.5,450.833 148.5,452.167 148.5,453.5C 139.167,453.5 129.833,453.5 120.5,453.5C 120.5,452.167 120.5,450.833 120.5,449.5 Z"/></g>
<g><path style="opacity:1" fill="#fefffe" d="M 229.5,453.5 C 235.857,453.476 242.19,453.81 248.5,454.5C 248.5,474.167 248.5,493.833 248.5,513.5C 224.5,513.5 200.5,513.5 176.5,513.5C 176.5,493.833 176.5,474.167 176.5,454.5C 194.341,454.83 212.008,454.497 229.5,453.5 Z"/></g>
<g><path style="opacity:1" fill="#fefffe" d="M 120.5,454.5 C 129.833,454.5 139.167,454.5 148.5,454.5C 148.5,455.833 148.5,457.167 148.5,458.5C 139.167,458.5 129.833,458.5 120.5,458.5C 120.5,457.167 120.5,455.833 120.5,454.5 Z"/></g>
<g><path style="opacity:1" fill="#fefffe" d="M 120.5,459.5 C 129.833,459.5 139.167,459.5 148.5,459.5C 148.5,460.833 148.5,462.167 148.5,463.5C 139.167,463.5 129.833,463.5 120.5,463.5C 120.5,462.167 120.5,460.833 120.5,459.5 Z"/></g>
<g><path style="opacity:1" fill="#fefffe" d="M 120.5,464.5 C 129.833,464.5 139.167,464.5 148.5,464.5C 148.5,465.833 148.5,467.167 148.5,468.5C 139.167,468.5 129.833,468.5 120.5,468.5C 120.5,467.167 120.5,465.833 120.5,464.5 Z"/></g>
<g><path style="opacity:1" fill="#fefffe" d="M 120.5,469.5 C 129.833,469.5 139.167,469.5 148.5,469.5C 148.5,470.833 148.5,472.167 148.5,473.5C 139.167,473.5 129.833,473.5 120.5,473.5C 120.5,472.167 120.5,470.833 120.5,469.5 Z"/></g>
<g><path style="opacity:1" fill="#fefffe" d="M 120.5,474.5 C 129.833,474.5 139.167,474.5 148.5,474.5C 148.5,475.833 148.5,477.167 148.5,478.5C 139.167,478.5 129.833,478.5 120.5,478.5C 120.5,477.167 120.5,475.833 120.5,474.5 Z"/></g>
<g><path style="opacity:1" fill="#fefffe" d="M 120.5,479.5 C 129.833,479.5 139.167,479.5 148.5,479.5C 148.5,480.833 148.5,482.167 148.5,483.5C 139.167,483.5 129.833,483.5 120.5,483.5C 120.5,482.167 120.5,480.833 120.5,479.5 Z"/></g>
<g><path style="opacity:1" fill="#fefffe" d="M 120.5,484.5 C 129.833,484.5 139.167,484.5 148.5,484.5C 148.5,485.833 148.5,487.167 148.5,488.5C 139.167,488.5 129.833,488.5 120.5,488.5C 120.5,487.167 120.5,485.833 120.5,484.5 Z"/></g>
<g><path style="opacity:1" fill="#fefffe" d="M 120.5,489.5 C 129.833,489.5 139.167,489.5 148.5,489.5C 148.5,490.833 148.5,492.167 148.5,493.5C 139.167,493.5 129.833,493.5 120.5,493.5C 120.5,492.167 120.5,490.833 120.5,489.5 Z"/></g>
<g><path style="opacity:1" fill="#fefffe" d="M 120.5,494.5 C 129.833,494.5 139.167,494.5 148.5,494.5C 148.5,495.833 148.5,497.167 148.5,498.5C 139.167,498.5 129.833,498.5 120.5,498.5C 120.5,497.167 120.5,495.833 120.5,494.5 Z"/></g>
<g><path style="opacity:1" fill="#fefffe" d="M 120.5,499.5 C 129.833,499.5 139.167,499.5 148.5,499.5C 148.5,500.833 148.5,502.167 148.5,503.5C 139.167,503.5 129.833,503.5 120.5,503.5C 120.5,502.167 120.5,500.833 120.5,499.5 Z"/></g>
<g><path style="opacity:1" fill="#fefffe" d="M 120.5,504.5 C 129.833,504.5 139.167,504.5 148.5,504.5C 148.5,505.833 148.5,507.167 148.5,508.5C 139.167,508.5 129.833,508.5 120.5,508.5C 120.5,507.167 120.5,505.833 120.5,504.5 Z"/></g>
<g><path style="opacity:1" fill="#fefffe" d="M 120.5,509.5 C 129.833,509.5 139.167,509.5 148.5,509.5C 148.5,510.833 148.5,512.167 148.5,513.5C 139.167,513.5 129.833,513.5 120.5,513.5C 120.5,512.167 120.5,510.833 120.5,509.5 Z"/></g>
<g><path style="opacity:1" fill="#5b7c8c" d="M 591.5,514.5 C 615.5,514.5 639.5,514.5 663.5,514.5C 663.5,515.167 663.5,515.833 663.5,516.5C 639.5,516.5 615.5,516.5 591.5,516.5C 591.5,515.833 591.5,515.167 591.5,514.5 Z"/></g>
<g><path style="opacity:1" fill="#bebfbe" d="M 22.5,589.5 C 23.5,589.5 24.5,589.5 25.5,589.5C 25.5,765.167 25.5,940.833 25.5,1116.5C 24.5,1116.5 23.5,1116.5 22.5,1116.5C 22.5,940.833 22.5,765.167 22.5,589.5 Z"/></g>
<g><path style="opacity:1" fill="#bebfbe" d="M 45.5,589.5 C 46.5,589.5 47.5,589.5 48.5,589.5C 48.5,765.167 48.5,940.833 48.5,1116.5C 47.5,1116.5 46.5,1116.5 45.5,1116.5C 45.5,940.833 45.5,765.167 45.5,589.5 Z"/></g>
<g><path style="opacity:1" fill="#7f7f80" d="M 218.5,590.5 C 218.5,591.167 218.5,591.833 218.5,592.5C 217.525,602.751 217.192,613.085 217.5,623.5C 217.167,623.5 216.833,623.5 216.5,623.5C 216.5,613.5 216.5,603.5 216.5,593.5C 210.5,593.5 204.5,593.5 198.5,593.5C 198.167,593.5 197.833,593.5 197.5,593.5C 195.5,593.5 193.5,593.5 191.5,593.5C 191.167,593.5 190.833,593.5 190.5,593.5C 188.5,593.5 186.5,593.5 184.5,593.5C 184.167,593.5 183.833,593.5 183.5,593.5C 181.5,593.5 179.5,593.5 177.5,593.5C 177.167,593.5 176.833,593.5 176.5,593.5C 174.5,593.5 172.5,593.5 170.5,593.5C 170.167,593.5 169.833,593.5 169.5,593.5C 167.5,593.5 165.5,593.5 163.5,593.5C 163.167,593.5 162.833,593.5 162.5,593.5C 160.5,593.5 158.5,593.5 156.5,593.5C 156.167,593.5 155.833,593.5 155.5,593.5C 153.5,593.5 151.5,593.5 149.5,593.5C 149.167,593.5 148.833,593.5 148.5,593.5C 146.5,593.5 144.5,593.5 142.5,593.5C 142.167,593.5 141.833,593.5 141.5,593.5C 139.5,593.5 137.5,593.5 135.5,593.5C 135.167,593.5 134.833,593.5 134.5,593.5C 132.5,593.5 130.5,593.5 128.5,593.5C 128.167,593.5 127.833,593.5 127.5,593.5C 117.5,593.5 107.5,593.5 97.5,593.5C 97.5,616.5 97.5,639.5 97.5,662.5C 107.5,662.5 117.5,662.5 127.5,662.5C 127.833,662.5 128.167,662.5 128.5,662.5C 130.5,662.5 132.5,662.5 134.5,662.5C 134.833,662.5 135.167,662.5 135.5,662.5C 137.5,662.5 139.5,662.5 141.5,662.5C 141.833,662.5 142.167,662.5 142.5,662.5C 144.5,662.5 146.5,662.5 148.5,662.5C 148.833,662.5 149.167,662.5 149.5,662.5C 151.5,662.5 153.5,662.5 155.5,662.5C 155.833,662.5 156.167,662.5 156.5,662.5C 158.5,662.5 160.5,662.5 162.5,662.5C 162.833,662.5 163.167,662.5 163.5,662.5C 165.5,662.5 167.5,662.5 169.5,662.5C 169.833,662.5 170.167,662.5 170.5,662.5C 172.5,662.5 174.5,662.5 176.5,662.5C 176.833,662.5 177.167,662.5 177.5,662.5C 179.5,662.5 181.5,662.5 183.5,662.5C 183.833,662.5 184.167,662.5 184.5,662.5C 186.5,662.5 188.5,662.5 190.5,662.5C 190.833,662.5 191.167,662.5 191.5,662.5C 193.5,662.5 195.5,662.5 197.5,662.5C 197.833,662.5 198.167,662.5 198.5,662.5C 204.5,662.5 210.5,662.5 216.5,662.5C 216.5,651.833 216.5,641.167 216.5,630.5C 216.833,630.5 217.167,630.5 217.5,630.5C 217.5,641.167 217.5,651.833 217.5,662.5C 220.5,662.5 223.5,662.5 226.5,662.5C 226.5,672.833 226.5,683.167 226.5,693.5C 270.833,693.5 315.167,693.5 359.5,693.5C 358.829,664.814 358.829,639.48 359.5,617.5C 367.833,617.5 376.167,617.5 384.5,617.5C 384.5,609.833 384.5,602.167 384.5,594.5C 376.167,594.5 367.833,594.5 359.5,594.5C 358.997,599.5 358.664,599.167 358.5,593.5C 327.662,593.831 296.995,593.498 266.5,592.5C 266.5,591.833 266.5,591.167 266.5,590.5C 307.33,589.501 348.33,589.168 389.5,589.5C 389.5,600.167 389.5,610.833 389.5,621.5C 380.167,621.5 370.833,621.5 361.5,621.5C 361.157,773.485 361.157,925.485 361.5,1077.5C 370.833,1077.5 380.167,1077.5 389.5,1077.5C 389.5,1091.5 389.5,1105.5 389.5,1119.5C 380.167,1119.5 370.833,1119.5 361.5,1119.5C 361.5,1133.17 361.5,1146.83 361.5,1160.5C 272.145,1160.18 182.811,1160.51 93.5,1161.5C 93.5,970.833 93.5,780.167 93.5,589.5C 135.337,589.168 177.003,589.501 218.5,590.5 Z"/></g>
<g><path style="opacity:1" fill="#5b7c8c" d="M 218.5,590.5 C 234.5,590.5 250.5,590.5 266.5,590.5C 266.5,591.167 266.5,591.833 266.5,592.5C 250.5,592.5 234.5,592.5 218.5,592.5C 218.5,591.833 218.5,591.167 218.5,590.5 Z"/></g>
<g><path style="opacity:1" fill="#fefefe" d="M 218.5,592.5 C 234.5,592.5 250.5,592.5 266.5,592.5C 296.995,593.498 327.662,593.831 358.5,593.5C 358.664,599.167 358.997,599.5 359.5,594.5C 367.833,594.5 376.167,594.5 384.5,594.5C 384.5,602.167 384.5,609.833 384.5,617.5C 376.167,617.5 367.833,617.5 359.5,617.5C 358.829,639.48 358.829,664.814 359.5,693.5C 315.167,693.5 270.833,693.5 226.5,693.5C 226.5,683.167 226.5,672.833 226.5,662.5C 223.5,662.5 220.5,662.5 217.5,662.5C 217.5,651.833 217.5,641.167 217.5,630.5C 188.005,629.502 158.338,629.169 128.5,629.5C 128.5,627.833 128.5,626.167 128.5,624.5C 158.338,624.831 188.005,624.498 217.5,623.5C 217.192,613.085 217.525,602.751 218.5,592.5 Z"/></g>
<g><path style="opacity:1" fill="#fefffe" d="M 127.5,593.5 C 127.5,616.5 127.5,639.5 127.5,662.5C 117.5,662.5 107.5,662.5 97.5,662.5C 97.5,639.5 97.5,616.5 97.5,593.5C 107.5,593.5 117.5,593.5 127.5,593.5 Z"/></g>
<g><path style="opacity:1" fill="#000000" d="M 127.5,593.5 C 127.833,593.5 128.167,593.5 128.5,593.5C 128.5,603.5 128.5,613.5 128.5,623.5C 130.5,623.5 132.5,623.5 134.5,623.5C 134.5,613.5 134.5,603.5 134.5,593.5C 134.833,593.5 135.167,593.5 135.5,593.5C 135.5,603.5 135.5,613.5 135.5,623.5C 137.5,623.5 139.5,623.5 141.5,623.5C 141.5,613.5 141.5,603.5 141.5,593.5C 141.833,593.5 142.167,593.5 142.5,593.5C 142.5,603.5 142.5,613.5 142.5,623.5C 144.5,623.5 146.5,623.5 148.5,623.5C 148.5,613.5 148.5,603.5 148.5,593.5C 148.833,593.5 149.167,593.5 149.5,593.5C 149.5,603.5 149.5,613.5 149.5,623.5C 151.5,623.5 153.5,623.5 155.5,623.5C 155.5,613.5 155.5,603.5 155.5,593.5C 155.833,593.5 156.167,593.5 156.5,593.5C 156.5,603.5 156.5,613.5 156.5,623.5C 158.5,623.5 160.5,623.5 162.5,623.5C 162.5,613.5 162.5,603.5 162.5,593.5C 162.833,593.5 163.167,593.5 163.5,593.5C 163.5,603.5 163.5,613.5 163.5,623.5C 165.5,623.5 167.5,623.5 169.5,623.5C 169.5,613.5 169.5,603.5 169.5,593.5C 169.833,593.5 170.167,593.5 170.5,593.5C 170.5,603.5 170.5,613.5 170.5,623.5C 172.5,623.5 174.5,623.5 176.5,623.5C 176.5,613.5 176.5,603.5 176.5,593.5C 176.833,593.5 177.167,593.5 177.5,593.5C 177.5,603.5 177.5,613.5 177.5,623.5C 179.5,623.5 181.5,623.5 183.5,623.5C 183.5,613.5 183.5,603.5 183.5,593.5C 183.833,593.5 184.167,593.5 184.5,593.5C 184.5,603.5 184.5,613.5 184.5,623.5C 186.5,623.5 188.5,623.5 190.5,623.5C 190.5,613.5 190.5,603.5 190.5,593.5C 190.833,593.5 191.167,593.5 191.5,593.5C 191.5,603.5 191.5,613.5 191.5,623.5C 193.5,623.5 195.5,623.5 197.5,623.5C 197.5,613.5 197.5,603.5 197.5,593.5C 197.833,593.5 198.167,593.5 198.5,593.5C 198.5,603.5 198.5,613.5 198.5,623.5C 204.5,623.5 210.5,623.5 216.5,623.5C 216.833,623.5 217.167,623.5 217.5,623.5C 188.005,624.498 158.338,624.831 128.5,624.5C 128.5,626.167 128.5,627.833 128.5,629.5C 158.338,629.169 188.005,629.502 217.5,630.5C 217.167,630.5 216.833,630.5 216.5,630.5C 210.5,630.5 204.5,630.5 198.5,630.5C 198.5,641.167 198.5,651.833 198.5,662.5C 198.167,662.5 197.833,662.5 197.5,662.5C 197.5,651.833 197.5,641.167 197.5,630.5C 195.5,630.5 193.5,630.5 191.5,630.5C 191.5,641.167 191.5,651.833 191.5,662.5C 191.167,662.5 190.833,662.5 190.5,662.5C 190.5,651.833 190.5,641.167 190.5,630.5C 188.5,630.5 186.5,630.5 184.5,630.5C 184.5,641.167 184.5,651.833 184.5,662.5C 184.167,662.5 183.833,662.5 183.5,662.5C 183.5,651.833 183.5,641.167 183.5,630.5C 181.5,630.5 179.5,630.5 177.5,630.5C 177.5,641.167 177.5,651.833 177.5,662.5C 177.167,662.5 176.833,662.5 176.5,662.5C 176.5,651.833 176.5,641.167 176.5,630.5C 174.5,630.5 172.5,630.5 170.5,630.5C 170.5,641.167 170.5,651.833 170.5,662.5C 170.167,662.5 169.833,662.5 169.5,662.5C 169.5,651.833 169.5,641.167 169.5,630.5C 167.5,630.5 165.5,630.5 163.5,630.5C 163.5,641.167 163.5,651.833 163.5,662.5C 163.167,662.5 162.833,662.5 162.5,662.5C 162.5,651.833 162.5,641.167 162.5,630.5C 160.5,630.5 158.5,630.5 156.5,630.5C 156.5,641.167 156.5,651.833 156.5,662.5C 156.167,662.5 155.833,662.5 155.5,662.5C 155.5,651.833 155.5,641.167 155.5,630.5C 153.5,630.5 151.5,630.5 149.5,630.5C 149.5,641.167 149.5,651.833 149.5,662.5C 149.167,662.5 148.833,662.5 148.5,662.5C 148.5,651.833 148.5,641.167 148.5,630.5C 146.5,630.5 144.5,630.5 142.5,630.5C 142.5,641.167 142.5,651.833 142.5,662.5C 142.167,662.5 141.833,662.5 141.5,662.5C 141.5,651.833 141.5,641.167 141.5,630.5C 139.5,630.5 137.5,630.5 135.5,630.5C 135.5,641.167 135.5,651.833 135.5,662.5C 135.167,662.5 134.833,662.5 134.5,662.5C 134.5,651.833 134.5,641.167 134.5,630.5C 132.5,630.5 130.5,630.5 128.5,630.5C 128.5,641.167 128.5,651.833 128.5,662.5C 128.167,662.5 127.833,662.5 127.5,662.5C 127.5,639.5 127.5,616.5 127.5,593.5 Z"/></g>
<g><path style="opacity:1" fill="#fefffe" d="M 128.5,593.5 C 130.5,593.5 132.5,593.5 134.5,593.5C 134.5,603.5 134.5,613.5 134.5,623.5C 132.5,623.5 130.5,623.5 128.5,623.5C 128.5,613.5 128.5,603.5 128.5,593.5 Z"/></g>
<g><path style="opacity:1" fill="#fefffe" d="M 135.5,593.5 C 137.5,593.5 139.5,593.5 141.5,593.5C 141.5,603.5 141.5,613.5 141.5,623.5C 139.5,623.5 137.5,623.5 135.5,623.5C 135.5,613.5 135.5,603.5 135.5,593.5 Z"/></g>
<g><path style="opacity:1" fill="#fefffe" d="M 142.5,593.5 C 144.5,593.5 146.5,593.5 148.5,593.5C 148.5,603.5 148.5,613.5 148.5,623.5C 146.5,623.5 144.5,623.5 142.5,623.5C 142.5,613.5 142.5,603.5 142.5,593.5 Z"/></g>
<g><path style="opacity:1" fill="#fefffe" d="M 149.5,593.5 C 151.5,593.5 153.5,593.5 155.5,593.5C 155.5,603.5 155.5,613.5 155.5,623.5C 153.5,623.5 151.5,623.5 149.5,623.5C 149.5,613.5 149.5,603.5 149.5,593.5 Z"/></g>
<g><path style="opacity:1" fill="#fefffe" d="M 156.5,593.5 C 158.5,593.5 160.5,593.5 162.5,593.5C 162.5,603.5 162.5,613.5 162.5,623.5C 160.5,623.5 158.5,623.5 156.5,623.5C 156.5,613.5 156.5,603.5 156.5,593.5 Z"/></g>
<g><path style="opacity:1" fill="#fefffe" d="M 163.5,593.5 C 165.5,593.5 167.5,593.5 169.5,593.5C 169.5,603.5 169.5,613.5 169.5,623.5C 167.5,623.5 165.5,623.5 163.5,623.5C 163.5,613.5 163.5,603.5 163.5,593.5 Z"/></g>
<g><path style="opacity:1" fill="#fefffe" d="M 170.5,593.5 C 172.5,593.5 174.5,593.5 176.5,593.5C 176.5,603.5 176.5,613.5 176.5,623.5C 174.5,623.5 172.5,623.5 170.5,623.5C 170.5,613.5 170.5,603.5 170.5,593.5 Z"/></g>
<g><path style="opacity:1" fill="#fefffe" d="M 177.5,593.5 C 179.5,593.5 181.5,593.5 183.5,593.5C 183.5,603.5 183.5,613.5 183.5,623.5C 181.5,623.5 179.5,623.5 177.5,623.5C 177.5,613.5 177.5,603.5 177.5,593.5 Z"/></g>
<g><path style="opacity:1" fill="#fefffe" d="M 184.5,593.5 C 186.5,593.5 188.5,593.5 190.5,593.5C 190.5,603.5 190.5,613.5 190.5,623.5C 188.5,623.5 186.5,623.5 184.5,623.5C 184.5,613.5 184.5,603.5 184.5,593.5 Z"/></g>
<g><path style="opacity:1" fill="#fefffe" d="M 191.5,593.5 C 193.5,593.5 195.5,593.5 197.5,593.5C 197.5,603.5 197.5,613.5 197.5,623.5C 195.5,623.5 193.5,623.5 191.5,623.5C 191.5,613.5 191.5,603.5 191.5,593.5 Z"/></g>
<g><path style="opacity:1" fill="#fefffe" d="M 198.5,593.5 C 204.5,593.5 210.5,593.5 216.5,593.5C 216.5,603.5 216.5,613.5 216.5,623.5C 210.5,623.5 204.5,623.5 198.5,623.5C 198.5,613.5 198.5,603.5 198.5,593.5 Z"/></g>
<g><path style="opacity:1" fill="#fefffe" d="M 134.5,662.5 C 132.5,662.5 130.5,662.5 128.5,662.5C 128.5,651.833 128.5,641.167 128.5,630.5C 130.5,630.5 132.5,630.5 134.5,630.5C 134.5,641.167 134.5,651.833 134.5,662.5 Z"/></g>
<g><path style="opacity:1" fill="#fefffe" d="M 141.5,662.5 C 139.5,662.5 137.5,662.5 135.5,662.5C 135.5,651.833 135.5,641.167 135.5,630.5C 137.5,630.5 139.5,630.5 141.5,630.5C 141.5,641.167 141.5,651.833 141.5,662.5 Z"/></g>
<g><path style="opacity:1" fill="#fefffe" d="M 148.5,662.5 C 146.5,662.5 144.5,662.5 142.5,662.5C 142.5,651.833 142.5,641.167 142.5,630.5C 144.5,630.5 146.5,630.5 148.5,630.5C 148.5,641.167 148.5,651.833 148.5,662.5 Z"/></g>
<g><path style="opacity:1" fill="#fefffe" d="M 155.5,662.5 C 153.5,662.5 151.5,662.5 149.5,662.5C 149.5,651.833 149.5,641.167 149.5,630.5C 151.5,630.5 153.5,630.5 155.5,630.5C 155.5,641.167 155.5,651.833 155.5,662.5 Z"/></g>
<g><path style="opacity:1" fill="#fefffe" d="M 162.5,662.5 C 160.5,662.5 158.5,662.5 156.5,662.5C 156.5,651.833 156.5,641.167 156.5,630.5C 158.5,630.5 160.5,630.5 162.5,630.5C 162.5,641.167 162.5,651.833 162.5,662.5 Z"/></g>
<g><path style="opacity:1" fill="#fefffe" d="M 169.5,662.5 C 167.5,662.5 165.5,662.5 163.5,662.5C 163.5,651.833 163.5,641.167 163.5,630.5C 165.5,630.5 167.5,630.5 169.5,630.5C 169.5,641.167 169.5,651.833 169.5,662.5 Z"/></g>
<g><path style="opacity:1" fill="#fefffe" d="M 176.5,662.5 C 174.5,662.5 172.5,662.5 170.5,662.5C 170.5,651.833 170.5,641.167 170.5,630.5C 172.5,630.5 174.5,630.5 176.5,630.5C 176.5,641.167 176.5,651.833 176.5,662.5 Z"/></g>
<g><path style="opacity:1" fill="#fefffe" d="M 183.5,662.5 C 181.5,662.5 179.5,662.5 177.5,662.5C 177.5,651.833 177.5,641.167 177.5,630.5C 179.5,630.5 181.5,630.5 183.5,630.5C 183.5,641.167 183.5,651.833 183.5,662.5 Z"/></g>
<g><path style="opacity:1" fill="#fefffe" d="M 190.5,662.5 C 188.5,662.5 186.5,662.5 184.5,662.5C 184.5,651.833 184.5,641.167 184.5,630.5C 186.5,630.5 188.5,630.5 190.5,630.5C 190.5,641.167 190.5,651.833 190.5,662.5 Z"/></g>
<g><path style="opacity:1" fill="#fefffe" d="M 197.5,662.5 C 195.5,662.5 193.5,662.5 191.5,662.5C 191.5,651.833 191.5,641.167 191.5,630.5C 193.5,630.5 195.5,630.5 197.5,630.5C 197.5,641.167 197.5,651.833 197.5,662.5 Z"/></g>
<g><path style="opacity:1" fill="#fefffe" d="M 216.5,630.5 C 216.5,641.167 216.5,651.833 216.5,662.5C 210.5,662.5 204.5,662.5 198.5,662.5C 198.5,651.833 198.5,641.167 198.5,630.5C 204.5,630.5 210.5,630.5 216.5,630.5 Z"/></g>
<g><path style="opacity:1" fill="#fefffe" d="M 97.5,665.5 C 139.5,665.5 181.5,665.5 223.5,665.5C 223.5,675.833 223.5,686.167 223.5,696.5C 268.5,696.5 313.5,696.5 358.5,696.5C 358.657,836.16 358.657,975.826 358.5,1115.5C 271.5,1115.5 184.5,1115.5 97.5,1115.5C 97.5,965.5 97.5,815.5 97.5,665.5 Z"/></g>
<g><path style="opacity:1" fill="#fefffe" d="M 962.5,809.5 C 1017.5,809.5 1072.5,809.5 1127.5,809.5C 1127.5,834.833 1127.5,860.167 1127.5,885.5C 1072.5,885.5 1017.5,885.5 962.5,885.5C 962.5,860.167 962.5,834.833 962.5,809.5 Z"/></g>
<g><path style="opacity:1" fill="#fefffe" d="M 1325.5,888.5 C 1325.5,994.5 1325.5,1100.5 1325.5,1206.5C 1074.5,1206.5 823.5,1206.5 572.5,1206.5C 572.5,1100.5 572.5,994.5 572.5,888.5C 823.5,888.5 1074.5,888.5 1325.5,888.5 Z"/></g>
<g><path style="opacity:1" fill="#fefffe" d="M 97.5,1119.5 C 184.5,1119.5 271.5,1119.5 358.5,1119.5C 358.5,1131.83 358.5,1144.17 358.5,1156.5C 271.5,1156.5 184.5,1156.5 97.5,1156.5C 97.5,1144.17 97.5,1131.83 97.5,1119.5 Z"/></g>
</svg>
