<svg id="svg" version="1.1" xmlns="http://www.w3.org/2000/svg" xmlns:xlink="http://www.w3.org/1999/xlink" width="400" height="361.08597285067873" viewBox="0, 0, 400,361.08597285067873"><g id="svgg"><path id="path0" d="M0.905 180.543 L 0.905 360.181 86.424 360.181 L 171.944 360.181 172.020 313.801 L 172.097 267.421 230.845 267.345 L 289.593 267.268 289.593 255.354 L 289.593 243.439 315.385 243.439 L 341.176 243.439 341.176 255.354 L 341.176 267.270 370.136 267.270 L 399.095 267.270 399.095 134.087 L 399.095 0.905 200.000 0.905 L 0.905 0.905 0.905 180.543 M258.824 28.658 L 258.824 39.216 231.071 39.216 C 212.770 39.216,203.318 39.318,203.318 39.517 C 203.318 39.714,198.291 39.819,188.839 39.819 L 174.359 39.819 174.359 43.590 L 174.359 47.360 190.799 47.360 L 207.240 47.360 207.240 46.606 C 207.240 46.003,207.391 45.852,207.994 45.852 C 208.409 45.852,208.748 45.988,208.748 46.154 C 208.748 46.353,219.708 46.456,241.026 46.456 L 273.303 46.456 273.303 32.278 C 273.303 19.876,273.360 18.100,273.756 18.100 C 274.152 18.100,274.208 19.909,274.208 32.578 L 274.208 47.056 241.403 47.134 L 208.597 47.212 246.833 47.286 L 285.068 47.360 285.068 39.216 L 285.068 31.071 305.430 31.071 L 325.792 31.071 325.792 33.333 L 325.792 35.596 333.409 35.661 C 337.598 35.697,339.363 35.769,337.330 35.821 L 333.635 35.916 333.635 41.940 L 333.635 47.964 337.330 48.029 L 341.026 48.094 337.330 48.189 L 333.635 48.284 333.635 54.308 L 333.635 60.332 337.330 60.397 L 341.026 60.462 337.330 60.557 L 333.635 60.652 333.635 66.676 L 333.635 72.700 337.330 72.765 L 341.026 72.830 337.330 72.925 L 333.635 73.020 333.635 79.035 L 333.635 85.049 337.330 85.144 C 339.363 85.196,337.598 85.268,333.409 85.304 L 325.792 85.370 325.792 87.374 L 325.792 89.379 316.063 89.273 C 310.713 89.215,301.821 89.195,296.305 89.229 L 286.275 89.291 286.275 122.754 L 286.275 156.217 169.231 156.231 L 52.187 156.246 52.187 134.986 L 52.187 113.725 48.718 113.725 L 45.249 113.725 45.249 133.032 L 45.249 152.338 40.724 152.338 L 36.199 152.338 36.234 132.805 C 36.253 122.063,36.331 113.511,36.407 113.801 C 36.601 114.543,44.947 114.616,44.947 113.876 C 44.947 113.499,45.551 113.424,48.567 113.424 L 52.187 113.424 52.232 106.863 C 52.257 103.254,52.240 88.390,52.194 73.831 L 52.111 47.360 112.942 47.360 L 173.774 47.360 173.755 39.442 C 173.745 35.087,173.741 30.539,173.746 29.336 L 173.756 27.149 188.537 27.149 L 203.318 27.149 203.318 32.730 L 203.318 38.311 230.618 38.311 L 257.919 38.311 257.919 28.205 C 257.919 19.423,257.978 18.100,258.371 18.100 C 258.765 18.100,258.824 19.474,258.824 28.658 M174.359 28.054 C 174.359 28.621,174.560 28.658,177.677 28.658 C 180.794 28.658,180.995 28.621,180.995 28.054 C 180.995 27.488,180.794 27.451,177.677 27.451 C 174.560 27.451,174.359 27.488,174.359 28.054 M181.599 28.054 C 181.599 28.621,181.800 28.658,184.917 28.658 C 188.034 28.658,188.235 28.621,188.235 28.054 C 188.235 27.488,188.034 27.451,184.917 27.451 C 181.800 27.451,181.599 27.488,181.599 28.054 M188.839 28.054 C 188.839 28.621,189.040 28.658,192.157 28.658 C 195.274 28.658,195.475 28.621,195.475 28.054 C 195.475 27.488,195.274 27.451,192.157 27.451 C 189.040 27.451,188.839 27.488,188.839 28.054 M196.078 28.054 C 196.078 28.621,196.280 28.658,199.397 28.658 C 202.514 28.658,202.715 28.621,202.715 28.054 C 202.715 27.488,202.514 27.451,199.397 27.451 C 196.280 27.451,196.078 27.488,196.078 28.054 M174.359 29.563 C 174.359 30.129,174.560 30.166,177.677 30.166 C 180.794 30.166,180.995 30.129,180.995 29.563 C 180.995 28.996,180.794 28.959,177.677 28.959 C 174.560 28.959,174.359 28.996,174.359 29.563 M181.599 29.563 C 181.599 30.129,181.800 30.166,184.917 30.166 C 188.034 30.166,188.235 30.129,188.235 29.563 C 188.235 28.996,188.034 28.959,184.917 28.959 C 181.800 28.959,181.599 28.996,181.599 29.563 M188.839 29.563 C 188.839 30.129,189.040 30.166,192.157 30.166 C 195.274 30.166,195.475 30.129,195.475 29.563 C 195.475 28.996,195.274 28.959,192.157 28.959 C 189.040 28.959,188.839 28.996,188.839 29.563 M196.078 29.563 C 196.078 30.129,196.280 30.166,199.397 30.166 C 202.514 30.166,202.715 30.129,202.715 29.563 C 202.715 28.996,202.514 28.959,199.397 28.959 C 196.280 28.959,196.078 28.996,196.078 29.563 M174.359 31.071 C 174.359 31.638,174.560 31.674,177.677 31.674 C 180.794 31.674,180.995 31.638,180.995 31.071 C 180.995 30.504,180.794 30.468,177.677 30.468 C 174.560 30.468,174.359 30.504,174.359 31.071 M181.599 31.071 C 181.599 31.638,181.800 31.674,184.917 31.674 C 188.034 31.674,188.235 31.638,188.235 31.071 C 188.235 30.504,188.034 30.468,184.917 30.468 C 181.800 30.468,181.599 30.504,181.599 31.071 M188.839 31.071 C 188.839 31.638,189.040 31.674,192.157 31.674 C 195.274 31.674,195.475 31.638,195.475 31.071 C 195.475 30.504,195.274 30.468,192.157 30.468 C 189.040 30.468,188.839 30.504,188.839 31.071 M196.078 31.071 C 196.078 31.638,196.280 31.674,199.397 31.674 C 202.514 31.674,202.715 31.638,202.715 31.071 C 202.715 30.504,202.514 30.468,199.397 30.468 C 196.280 30.468,196.078 30.504,196.078 31.071 M174.359 32.579 C 174.359 33.146,174.560 33.183,177.677 33.183 C 180.794 33.183,180.995 33.146,180.995 32.579 C 180.995 32.012,180.794 31.976,177.677 31.976 C 174.560 31.976,174.359 32.012,174.359 32.579 M181.599 32.579 C 181.599 33.146,181.800 33.183,184.917 33.183 C 188.034 33.183,188.235 33.146,188.235 32.579 C 188.235 32.012,188.034 31.976,184.917 31.976 C 181.800 31.976,181.599 32.012,181.599 32.579 M188.839 32.579 C 188.839 33.146,189.040 33.183,192.157 33.183 C 195.274 33.183,195.475 33.146,195.475 32.579 C 195.475 32.012,195.274 31.976,192.157 31.976 C 189.040 31.976,188.839 32.012,188.839 32.579 M196.078 32.579 C 196.078 33.146,196.280 33.183,199.397 33.183 C 202.514 33.183,202.715 33.146,202.715 32.579 C 202.715 32.012,202.514 31.976,199.397 31.976 C 196.280 31.976,196.078 32.012,196.078 32.579 M286.275 47.477 L 286.275 62.677 296.805 62.790 C 302.596 62.852,311.216 62.852,315.960 62.790 L 324.585 62.678 324.585 47.478 L 324.585 32.278 305.430 32.278 L 286.275 32.278 286.275 47.477 M174.359 34.087 C 174.359 34.654,174.560 34.691,177.677 34.691 C 180.794 34.691,180.995 34.654,180.995 34.087 C 180.995 33.521,180.794 33.484,177.677 33.484 C 174.560 33.484,174.359 33.521,174.359 34.087 M181.599 34.087 C 181.599 34.654,181.800 34.691,184.917 34.691 C 188.034 34.691,188.235 34.654,188.235 34.087 C 188.235 33.521,188.034 33.484,184.917 33.484 C 181.800 33.484,181.599 33.521,181.599 34.087 M188.839 34.087 C 188.839 34.654,189.040 34.691,192.157 34.691 C 195.274 34.691,195.475 34.654,195.475 34.087 C 195.475 33.521,195.274 33.484,192.157 33.484 C 189.040 33.484,188.839 33.521,188.839 34.087 M196.078 34.087 C 196.078 34.654,196.280 34.691,199.397 34.691 C 202.514 34.691,202.715 34.654,202.715 34.087 C 202.715 33.521,202.514 33.484,199.397 33.484 C 196.280 33.484,196.078 33.521,196.078 34.087 M174.359 35.596 C 174.359 36.163,174.560 36.199,177.677 36.199 C 180.794 36.199,180.995 36.163,180.995 35.596 C 180.995 35.029,180.794 34.992,177.677 34.992 C 174.560 34.992,174.359 35.029,174.359 35.596 M181.599 35.596 C 181.599 36.163,181.800 36.199,184.917 36.199 C 188.034 36.199,188.235 36.163,188.235 35.596 C 188.235 35.029,188.034 34.992,184.917 34.992 C 181.800 34.992,181.599 35.029,181.599 35.596 M188.839 35.596 C 188.839 36.163,189.040 36.199,192.157 36.199 C 195.274 36.199,195.475 36.163,195.475 35.596 C 195.475 35.029,195.274 34.992,192.157 34.992 C 189.040 34.992,188.839 35.029,188.839 35.596 M196.078 35.596 C 196.078 36.163,196.280 36.199,199.397 36.199 C 202.514 36.199,202.715 36.163,202.715 35.596 C 202.715 35.029,202.514 34.992,199.397 34.992 C 196.280 34.992,196.078 35.029,196.078 35.596 M325.792 41.931 L 325.792 47.964 329.412 47.964 L 333.032 47.964 333.032 41.931 L 333.032 35.897 329.412 35.897 L 325.792 35.897 325.792 41.931 M174.359 37.104 C 174.359 37.671,174.560 37.707,177.677 37.707 C 180.794 37.707,180.995 37.671,180.995 37.104 C 180.995 36.537,180.794 36.501,177.677 36.501 C 174.560 36.501,174.359 36.537,174.359 37.104 M181.599 37.104 C 181.599 37.671,181.800 37.707,184.917 37.707 C 188.034 37.707,188.235 37.671,188.235 37.104 C 188.235 36.537,188.034 36.501,184.917 36.501 C 181.800 36.501,181.599 36.537,181.599 37.104 M188.839 37.104 C 188.839 37.671,189.040 37.707,192.157 37.707 C 195.274 37.707,195.475 37.671,195.475 37.104 C 195.475 36.537,195.274 36.501,192.157 36.501 C 189.040 36.501,188.839 36.537,188.839 37.104 M196.078 37.104 C 196.078 37.671,196.280 37.707,199.397 37.707 C 202.514 37.707,202.715 37.671,202.715 37.104 C 202.715 36.537,202.514 36.501,199.397 36.501 C 196.280 36.501,196.078 36.537,196.078 37.104 M174.359 38.612 C 174.359 39.179,174.560 39.216,177.677 39.216 C 180.794 39.216,180.995 39.179,180.995 38.612 C 180.995 38.046,180.794 38.009,177.677 38.009 C 174.560 38.009,174.359 38.046,174.359 38.612 M181.599 38.612 C 181.599 39.179,181.800 39.216,184.917 39.216 C 188.034 39.216,188.235 39.179,188.235 38.612 C 188.235 38.046,188.034 38.009,184.917 38.009 C 181.800 38.009,181.599 38.046,181.599 38.612 M188.839 38.612 C 188.839 39.179,189.040 39.216,192.157 39.216 C 195.274 39.216,195.475 39.179,195.475 38.612 C 195.475 38.046,195.274 38.009,192.157 38.009 C 189.040 38.009,188.839 38.046,188.839 38.612 M196.078 38.612 C 196.078 39.179,196.280 39.216,199.397 39.216 C 202.514 39.216,202.715 39.179,202.715 38.612 C 202.715 38.046,202.514 38.009,199.397 38.009 C 196.280 38.009,196.078 38.046,196.078 38.612 M325.792 54.299 L 325.792 60.332 329.412 60.332 L 333.032 60.332 333.032 54.299 L 333.032 48.265 329.412 48.265 L 325.792 48.265 325.792 54.299 M53.394 55.161 L 53.394 61.756 55.128 61.938 C 56.082 62.038,58.933 62.035,61.463 61.933 L 66.063 61.746 66.063 63.603 L 66.063 65.460 68.929 65.460 L 71.795 65.460 71.795 57.014 L 71.795 48.567 62.594 48.567 L 53.394 48.567 53.394 55.161 M73.002 68.024 L 73.002 87.481 94.833 87.481 L 116.664 87.481 116.872 85.098 C 116.986 83.787,116.985 81.547,116.870 80.120 L 116.659 77.526 123.035 77.526 L 129.412 77.526 129.412 63.047 L 129.412 48.567 101.207 48.567 L 73.002 48.567 73.002 68.024 M130.317 63.047 L 130.317 77.526 136.542 77.526 L 142.768 77.526 142.557 80.120 C 142.442 81.547,142.440 83.787,142.555 85.098 L 142.763 87.481 155.544 87.481 L 168.326 87.481 168.326 68.024 L 168.326 48.567 149.321 48.567 L 130.317 48.567 130.317 63.047 M169.834 67.535 L 169.834 86.504 177.451 86.624 C 181.640 86.690,190.057 86.690,196.154 86.625 L 207.240 86.506 207.240 67.536 L 207.240 48.567 188.537 48.567 L 169.834 48.567 169.834 67.535 M208.748 56.863 L 208.748 65.158 220.060 65.158 L 231.373 65.158 231.373 63.801 C 231.373 62.795,231.490 62.443,231.825 62.443 C 232.177 62.443,232.278 62.846,232.278 64.253 L 232.278 66.063 230.468 66.063 L 228.658 66.063 228.658 72.203 L 228.658 78.343 231.750 78.542 C 233.450 78.651,235.669 78.654,236.680 78.548 L 238.518 78.355 238.710 71.314 C 238.920 63.635,238.888 63.348,237.826 63.348 C 237.385 63.348,237.104 63.172,237.104 62.896 C 237.104 62.537,237.540 62.443,239.216 62.443 L 241.327 62.443 241.327 55.505 L 241.327 48.567 225.038 48.567 L 208.748 48.567 208.748 56.863 M242.232 53.502 L 242.232 58.436 244.086 58.630 C 246.423 58.874,248.977 58.879,249.598 58.640 C 250.007 58.484,250.075 57.743,250.075 53.512 L 250.075 48.567 246.154 48.567 L 242.232 48.567 242.232 53.502 M250.980 55.505 L 250.980 62.443 252.776 62.443 L 254.571 62.443 254.510 66.139 L 254.449 69.834 259.050 69.917 L 263.650 70.001 263.650 66.825 C 263.650 63.851,263.688 63.650,264.253 63.650 C 264.827 63.650,264.857 63.851,264.857 67.722 L 264.857 71.795 274.962 71.795 L 285.068 71.795 285.068 60.181 L 285.068 48.567 275.415 48.567 L 265.762 48.567 265.762 53.544 L 265.762 58.522 263.499 58.522 C 261.689 58.522,261.237 58.431,261.237 58.069 C 261.237 57.717,261.639 57.617,263.047 57.617 L 264.857 57.617 264.857 53.092 L 264.857 48.567 257.919 48.567 L 250.980 48.567 250.980 55.505 M243.514 59.346 L 242.232 59.462 242.232 61.405 L 242.232 63.348 240.907 63.348 C 239.158 63.348,239.228 62.917,239.433 72.484 L 239.610 80.768 241.449 80.962 C 242.461 81.069,245.208 81.066,247.555 80.956 L 251.822 80.756 252.021 79.518 C 252.131 78.838,252.126 76.424,252.011 74.155 L 251.803 70.029 252.825 69.932 C 253.979 69.821,254.271 68.392,253.846 64.932 L 253.652 63.348 251.864 63.348 L 250.075 63.348 250.075 61.420 C 250.075 58.986,249.506 58.806,243.514 59.346 M325.792 66.667 L 325.792 72.700 329.412 72.700 L 333.032 72.700 333.032 66.667 L 333.032 60.633 329.412 60.633 L 325.792 60.633 325.792 66.667 M54.676 62.946 L 53.394 63.081 53.394 75.240 L 53.394 87.398 58.597 87.549 C 61.459 87.632,65.600 87.631,67.798 87.547 L 71.795 87.396 71.795 76.880 L 71.795 66.365 68.477 66.365 L 65.158 66.365 65.158 64.706 L 65.158 63.047 63.424 63.045 C 62.470 63.044,60.400 62.991,58.824 62.927 C 57.247 62.863,55.381 62.871,54.676 62.946 M295.400 63.553 L 286.275 63.659 286.275 75.838 L 286.275 88.016 297.876 88.129 C 304.257 88.191,312.877 88.191,317.031 88.130 L 324.585 88.017 324.585 75.834 L 324.585 63.650 318.600 63.650 C 315.308 63.650,310.794 63.604,308.570 63.549 C 306.345 63.493,300.419 63.495,295.400 63.553 M208.748 71.192 L 208.748 76.018 209.653 76.018 L 210.558 76.018 210.558 82.805 L 210.558 89.593 212.971 89.593 L 215.385 89.593 215.385 88.537 C 215.385 87.800,215.521 87.481,215.837 87.481 C 216.217 87.481,216.290 88.135,216.290 91.554 C 216.290 94.972,216.362 95.626,216.742 95.626 C 216.991 95.626,217.195 95.830,217.195 96.078 C 217.195 96.380,216.893 96.531,216.290 96.531 L 215.385 96.531 215.385 93.514 L 215.385 90.498 212.066 90.498 C 209.318 90.498,208.748 90.420,208.748 90.045 C 208.748 89.729,208.430 89.593,207.692 89.593 C 206.687 89.593,206.637 89.542,206.637 88.537 L 206.637 87.481 188.235 87.481 C 170.035 87.481,169.834 87.488,169.834 88.084 C 169.834 88.681,169.633 88.688,152.489 88.688 C 135.344 88.688,135.143 88.681,135.143 88.084 C 135.143 87.520,135.344 87.481,138.283 87.481 L 141.422 87.481 141.636 84.624 C 141.754 83.053,141.760 81.288,141.651 80.703 L 141.451 79.638 139.051 79.638 C 136.693 79.638,136.652 79.651,136.652 80.392 L 136.652 81.146 133.635 81.146 L 130.618 81.146 130.618 85.370 L 130.618 89.593 129.864 89.593 L 129.110 89.593 129.110 85.370 L 129.110 81.146 126.094 81.146 L 123.077 81.146 123.077 80.392 C 123.077 79.647,123.046 79.638,120.526 79.638 L 117.976 79.638 117.776 80.703 C 117.666 81.288,117.673 83.053,117.791 84.624 L 118.005 87.481 120.993 87.481 C 123.809 87.481,123.982 87.517,123.982 88.102 L 123.982 88.723 92.836 88.687 C 51.058 88.638,54.299 88.600,54.299 89.140 C 54.299 89.389,54.105 89.593,53.868 89.593 C 53.121 89.593,52.713 100.780,53.434 101.499 C 53.584 101.648,113.953 101.781,135.671 101.679 L 139.970 101.659 139.970 98.793 L 139.970 95.928 153.695 95.928 L 167.421 95.928 167.421 101.810 L 167.421 107.692 154.148 107.692 L 140.875 107.692 140.875 111.312 L 140.875 114.932 150.679 114.932 L 160.483 114.932 160.483 117.012 L 160.483 119.093 162.896 119.306 C 164.223 119.424,166.395 119.424,167.722 119.306 L 170.136 119.093 170.136 117.012 L 170.136 114.932 171.041 114.932 L 171.946 114.932 171.946 134.945 L 171.946 154.958 176.971 155.156 C 183.415 155.410,195.469 155.410,201.913 155.156 L 206.938 154.958 206.938 134.471 L 206.938 113.984 210.381 114.196 C 212.274 114.312,214.175 114.319,214.604 114.212 L 215.385 114.016 215.385 110.251 L 215.385 106.486 216.440 106.486 C 217.491 106.486,217.496 106.493,217.496 107.843 L 217.496 109.201 231.650 109.201 L 245.804 109.201 246.013 108.252 C 246.127 107.731,246.124 105.763,246.007 103.878 L 245.793 100.452 246.577 100.452 C 247.246 100.452,247.360 100.321,247.360 99.548 C 247.360 98.944,247.511 98.643,247.813 98.643 C 248.148 98.643,248.265 98.994,248.265 100.000 L 248.265 101.357 266.667 101.357 L 285.068 101.357 285.068 92.006 L 285.068 82.655 280.694 82.655 C 276.521 82.655,276.320 82.627,276.320 82.051 C 276.320 81.476,276.521 81.448,280.694 81.448 L 285.068 81.448 285.068 77.225 L 285.068 73.002 276.471 73.002 L 267.873 73.002 267.873 77.225 L 267.873 81.448 270.136 81.448 C 272.197 81.448,272.398 81.502,272.398 82.051 C 272.398 82.643,272.197 82.655,261.991 82.655 C 252.941 82.655,251.584 82.596,251.584 82.202 C 251.584 81.855,251.198 81.750,249.925 81.750 L 248.265 81.750 248.265 87.783 C 248.265 92.945,248.200 93.816,247.813 93.816 C 247.426 93.816,247.360 92.948,247.360 87.818 C 247.360 80.702,247.636 80.987,241.372 81.642 L 239.517 81.836 239.517 89.183 L 239.517 96.531 230.468 96.531 C 222.624 96.531,221.418 96.471,221.418 96.078 C 221.418 95.705,221.971 95.626,224.585 95.626 C 227.200 95.626,227.753 95.547,227.753 95.173 C 227.753 94.925,227.956 94.721,228.205 94.721 C 228.454 94.721,228.658 94.925,228.658 95.173 C 228.658 95.557,229.412 95.626,233.635 95.626 L 238.612 95.626 238.612 87.524 L 238.612 79.422 236.727 79.225 C 235.690 79.116,233.450 79.116,231.750 79.226 L 228.658 79.425 228.658 84.811 C 228.658 89.397,228.590 90.196,228.205 90.196 C 227.811 90.196,227.753 88.671,227.753 78.281 L 227.753 66.365 218.250 66.365 L 208.748 66.365 208.748 71.192 M252.657 74.451 C 252.541 76.244,252.541 78.552,252.657 79.579 L 252.868 81.448 259.918 81.448 L 266.968 81.448 266.968 77.225 L 266.968 73.002 265.611 73.002 C 264.304 73.002,264.253 72.968,264.253 72.097 L 264.253 71.192 258.561 71.192 L 252.868 71.192 252.657 74.451 M325.792 79.035 L 325.792 85.068 329.412 85.068 L 333.032 85.068 333.032 79.035 L 333.032 73.002 329.412 73.002 L 325.792 73.002 325.792 79.035 M140.982 99.095 C 140.981 100.588,141.032 101.237,141.095 100.537 C 141.159 99.837,141.159 98.615,141.097 97.822 C 141.035 97.029,140.983 97.602,140.982 99.095 M141.478 99.095 C 141.478 101.458,141.525 101.659,142.081 101.659 C 142.637 101.659,142.685 101.458,142.685 99.095 C 142.685 96.732,142.637 96.531,142.081 96.531 C 141.525 96.531,141.478 96.732,141.478 99.095 M142.986 99.095 C 142.986 101.458,143.034 101.659,143.590 101.659 C 144.146 101.659,144.193 101.458,144.193 99.095 C 144.193 96.732,144.146 96.531,143.590 96.531 C 143.034 96.531,142.986 96.732,142.986 99.095 M144.495 99.095 C 144.495 101.458,144.542 101.659,145.098 101.659 C 145.654 101.659,145.701 101.458,145.701 99.095 C 145.701 96.732,145.654 96.531,145.098 96.531 C 144.542 96.531,144.495 96.732,144.495 99.095 M146.003 99.095 C 146.003 101.458,146.050 101.659,146.606 101.659 C 147.162 101.659,147.210 101.458,147.210 99.095 C 147.210 96.732,147.162 96.531,146.606 96.531 C 146.050 96.531,146.003 96.732,146.003 99.095 M147.511 99.095 C 147.511 101.458,147.559 101.659,148.115 101.659 C 148.671 101.659,148.718 101.458,148.718 99.095 C 148.718 96.732,148.671 96.531,148.115 96.531 C 147.559 96.531,147.511 96.732,147.511 99.095 M149.020 99.095 C 149.020 101.458,149.067 101.659,149.623 101.659 C 150.179 101.659,150.226 101.458,150.226 99.095 C 150.226 96.732,150.179 96.531,149.623 96.531 C 149.067 96.531,149.020 96.732,149.020 99.095 M150.528 99.095 C 150.528 101.458,150.575 101.659,151.131 101.659 C 151.687 101.659,151.735 101.458,151.735 99.095 C 151.735 96.732,151.687 96.531,151.131 96.531 C 150.575 96.531,150.528 96.732,150.528 99.095 M152.036 99.095 C 152.036 101.458,152.084 101.659,152.640 101.659 C 153.196 101.659,153.243 101.458,153.243 99.095 C 153.243 96.732,153.196 96.531,152.640 96.531 C 152.084 96.531,152.036 96.732,152.036 99.095 M153.544 99.095 C 153.544 101.458,153.592 101.659,154.148 101.659 C 154.704 101.659,154.751 101.458,154.751 99.095 C 154.751 96.732,154.704 96.531,154.148 96.531 C 153.592 96.531,153.544 96.732,153.544 99.095 M155.053 99.095 C 155.053 101.458,155.100 101.659,155.656 101.659 C 156.212 101.659,156.259 101.458,156.259 99.095 C 156.259 96.732,156.212 96.531,155.656 96.531 C 155.100 96.531,155.053 96.732,155.053 99.095 M156.561 99.095 C 156.561 101.458,156.608 101.659,157.164 101.659 C 157.720 101.659,157.768 101.458,157.768 99.095 C 157.768 96.732,157.720 96.531,157.164 96.531 C 156.608 96.531,156.561 96.732,156.561 99.095 M158.069 99.095 C 158.069 101.458,158.117 101.659,158.673 101.659 C 159.229 101.659,159.276 101.458,159.276 99.095 C 159.276 96.732,159.229 96.531,158.673 96.531 C 158.117 96.531,158.069 96.732,158.069 99.095 M159.578 99.095 C 159.578 101.458,159.625 101.659,160.181 101.659 C 160.737 101.659,160.784 101.458,160.784 99.095 C 160.784 96.732,160.737 96.531,160.181 96.531 C 159.625 96.531,159.578 96.732,159.578 99.095 M161.086 99.095 C 161.086 101.458,161.133 101.659,161.689 101.659 C 162.245 101.659,162.293 101.458,162.293 99.095 C 162.293 96.732,162.245 96.531,161.689 96.531 C 161.133 96.531,161.086 96.732,161.086 99.095 M162.594 99.095 C 162.594 101.458,162.642 101.659,163.198 101.659 C 163.754 101.659,163.801 101.458,163.801 99.095 C 163.801 96.732,163.754 96.531,163.198 96.531 C 162.642 96.531,162.594 96.732,162.594 99.095 M164.103 99.095 C 164.103 101.458,164.150 101.659,164.706 101.659 C 165.262 101.659,165.309 101.458,165.309 99.095 C 165.309 96.732,165.262 96.531,164.706 96.531 C 164.150 96.531,164.103 96.732,164.103 99.095 M165.611 99.095 C 165.611 101.458,165.658 101.659,166.214 101.659 C 166.770 101.659,166.817 101.458,166.817 99.095 C 166.817 96.732,166.770 96.531,166.214 96.531 C 165.658 96.531,165.611 96.732,165.611 99.095 M140.982 104.525 C 140.981 106.018,141.032 106.667,141.095 105.967 C 141.159 105.267,141.159 104.045,141.097 103.252 C 141.035 102.459,140.983 103.032,140.982 104.525 M141.478 104.525 C 141.478 106.888,141.525 107.089,142.081 107.089 C 142.637 107.089,142.685 106.888,142.685 104.525 C 142.685 102.162,142.637 101.961,142.081 101.961 C 141.525 101.961,141.478 102.162,141.478 104.525 M142.986 104.525 C 142.986 106.888,143.034 107.089,143.590 107.089 C 144.146 107.089,144.193 106.888,144.193 104.525 C 144.193 102.162,144.146 101.961,143.590 101.961 C 143.034 101.961,142.986 102.162,142.986 104.525 M144.495 104.525 C 144.495 106.888,144.542 107.089,145.098 107.089 C 145.654 107.089,145.701 106.888,145.701 104.525 C 145.701 102.162,145.654 101.961,145.098 101.961 C 144.542 101.961,144.495 102.162,144.495 104.525 M146.003 104.525 C 146.003 106.888,146.050 107.089,146.606 107.089 C 147.162 107.089,147.210 106.888,147.210 104.525 C 147.210 102.162,147.162 101.961,146.606 101.961 C 146.050 101.961,146.003 102.162,146.003 104.525 M147.511 104.525 C 147.511 106.888,147.559 107.089,148.115 107.089 C 148.671 107.089,148.718 106.888,148.718 104.525 C 148.718 102.162,148.671 101.961,148.115 101.961 C 147.559 101.961,147.511 102.162,147.511 104.525 M149.020 104.525 C 149.020 106.888,149.067 107.089,149.623 107.089 C 150.179 107.089,150.226 106.888,150.226 104.525 C 150.226 102.162,150.179 101.961,149.623 101.961 C 149.067 101.961,149.020 102.162,149.020 104.525 M150.528 104.525 C 150.528 106.888,150.575 107.089,151.131 107.089 C 151.687 107.089,151.735 106.888,151.735 104.525 C 151.735 102.162,151.687 101.961,151.131 101.961 C 150.575 101.961,150.528 102.162,150.528 104.525 M152.036 104.525 C 152.036 106.888,152.084 107.089,152.640 107.089 C 153.196 107.089,153.243 106.888,153.243 104.525 C 153.243 102.162,153.196 101.961,152.640 101.961 C 152.084 101.961,152.036 102.162,152.036 104.525 M153.544 104.525 C 153.544 106.888,153.592 107.089,154.148 107.089 C 154.704 107.089,154.751 106.888,154.751 104.525 C 154.751 102.162,154.704 101.961,154.148 101.961 C 153.592 101.961,153.544 102.162,153.544 104.525 M155.053 104.525 C 155.053 106.888,155.100 107.089,155.656 107.089 C 156.212 107.089,156.259 106.888,156.259 104.525 C 156.259 102.162,156.212 101.961,155.656 101.961 C 155.100 101.961,155.053 102.162,155.053 104.525 M156.561 104.525 C 156.561 106.888,156.608 107.089,157.164 107.089 C 157.720 107.089,157.768 106.888,157.768 104.525 C 157.768 102.162,157.720 101.961,157.164 101.961 C 156.608 101.961,156.561 102.162,156.561 104.525 M158.069 104.525 C 158.069 106.888,158.117 107.089,158.673 107.089 C 159.229 107.089,159.276 106.888,159.276 104.525 C 159.276 102.162,159.229 101.961,158.673 101.961 C 158.117 101.961,158.069 102.162,158.069 104.525 M159.578 104.525 C 159.578 106.888,159.625 107.089,160.181 107.089 C 160.737 107.089,160.784 106.888,160.784 104.525 C 160.784 102.162,160.737 101.961,160.181 101.961 C 159.625 101.961,159.578 102.162,159.578 104.525 M161.086 104.525 C 161.086 106.888,161.133 107.089,161.689 107.089 C 162.245 107.089,162.293 106.888,162.293 104.525 C 162.293 102.162,162.245 101.961,161.689 101.961 C 161.133 101.961,161.086 102.162,161.086 104.525 M162.594 104.525 C 162.594 106.888,162.642 107.089,163.198 107.089 C 163.754 107.089,163.801 106.888,163.801 104.525 C 163.801 102.162,163.754 101.961,163.198 101.961 C 162.642 101.961,162.594 102.162,162.594 104.525 M164.103 104.525 C 164.103 106.888,164.150 107.089,164.706 107.089 C 165.262 107.089,165.309 106.888,165.309 104.525 C 165.309 102.162,165.262 101.961,164.706 101.961 C 164.150 101.961,164.103 102.162,164.103 104.525 M165.611 104.525 C 165.611 106.888,165.658 107.089,166.214 107.089 C 166.770 107.089,166.817 106.888,166.817 104.525 C 166.817 102.162,166.770 101.961,166.214 101.961 C 165.658 101.961,165.611 102.162,165.611 104.525 M61.312 102.488 L 53.394 102.574 53.394 113.580 L 53.394 124.585 60.633 124.585 C 67.511 124.585,67.873 124.613,67.873 125.151 C 67.873 125.832,68.921 126.094,71.657 126.094 C 74.798 126.094,74.510 127.298,74.510 114.178 C 74.510 100.981,74.836 102.221,71.393 102.333 C 70.204 102.371,65.667 102.441,61.312 102.488 M93.439 102.468 L 92.308 102.601 92.232 106.730 C 92.191 109.001,92.176 112.048,92.198 113.499 L 92.240 116.139 83.676 116.139 L 75.113 116.139 75.113 121.342 L 75.113 126.546 71.191 126.551 C 67.316 126.555,67.270 126.547,67.270 125.872 C 67.270 125.219,67.163 125.189,64.857 125.189 L 62.443 125.189 62.443 128.507 C 62.443 130.518,62.325 131.825,62.142 131.825 C 61.959 131.825,61.840 130.518,61.840 128.507 L 61.840 125.189 57.617 125.189 L 53.394 125.189 53.394 130.769 L 53.394 136.350 57.617 136.350 C 61.639 136.350,61.840 136.321,61.840 135.747 C 61.840 135.415,61.976 135.143,62.142 135.143 C 62.308 135.143,62.443 135.394,62.443 135.699 C 62.443 136.318,70.297 136.825,73.982 136.445 L 75.716 136.266 75.716 145.659 L 75.716 155.053 87.783 155.053 L 99.849 155.053 99.894 139.894 C 99.949 120.862,99.826 102.762,99.640 102.564 C 99.455 102.368,94.900 102.297,93.439 102.468 M122.851 102.467 L 118.552 102.581 118.552 108.756 L 118.552 114.932 129.261 114.932 L 139.970 114.932 139.970 108.748 L 139.970 102.564 136.878 102.563 C 135.177 102.562,132.293 102.515,130.468 102.458 C 128.643 102.401,125.215 102.405,122.851 102.467 M246.716 103.092 C 246.656 103.548,246.650 115.426,246.704 129.487 L 246.802 155.053 265.935 155.053 L 285.068 155.053 285.068 128.658 L 285.068 102.262 265.947 102.262 L 246.826 102.262 246.716 103.092 M75.113 109.050 L 75.113 115.535 83.223 115.535 L 91.332 115.535 91.507 114.868 C 91.603 114.500,91.597 111.582,91.495 108.382 L 91.307 102.564 83.210 102.564 L 75.113 102.564 75.113 109.050 M100.701 112.594 C 100.647 118.111,100.647 129.921,100.700 138.839 L 100.796 155.053 109.222 155.053 L 117.647 155.053 117.647 128.808 L 117.647 102.564 109.223 102.564 L 100.798 102.564 100.701 112.594 M216.591 112.984 L 216.591 115.259 214.362 115.057 C 213.135 114.946,211.235 114.951,210.138 115.068 L 208.145 115.282 208.145 135.167 L 208.145 155.053 226.848 155.053 L 245.551 155.053 245.551 132.881 L 245.551 110.709 231.071 110.709 L 216.591 110.709 216.591 112.984 M298.341 112.821 L 298.341 114.027 300.905 114.027 L 303.469 114.027 303.469 112.821 C 303.469 111.949,303.595 111.614,303.922 111.614 C 304.317 111.614,304.374 113.340,304.374 125.339 L 304.374 139.065 296.229 139.065 L 288.084 139.065 288.084 125.339 L 288.084 111.614 293.213 111.614 L 298.341 111.614 298.341 112.821 M288.989 114.027 L 288.989 115.535 291.704 115.535 L 294.419 115.535 294.419 114.027 L 294.419 112.519 291.704 112.519 L 288.989 112.519 288.989 114.027 M295.324 122.323 L 295.324 132.127 296.380 132.127 L 297.436 132.127 297.436 122.323 L 297.436 112.519 296.380 112.519 L 295.324 112.519 295.324 122.323 M298.341 114.932 C 298.341 115.488,298.542 115.535,300.905 115.535 C 303.268 115.535,303.469 115.488,303.469 114.932 C 303.469 114.376,303.268 114.329,300.905 114.329 C 298.542 114.329,298.341 114.376,298.341 114.932 M36.501 115.234 C 36.501 115.808,36.702 115.837,40.724 115.837 C 44.746 115.837,44.947 115.808,44.947 115.234 C 44.947 114.659,44.746 114.630,40.724 114.630 C 36.702 114.630,36.501 114.659,36.501 115.234 M118.552 135.445 L 118.552 155.053 144.495 155.053 L 170.437 155.053 170.437 137.746 L 170.437 120.440 168.002 120.227 C 166.663 120.111,164.220 120.111,162.572 120.227 L 159.578 120.440 159.578 118.138 L 159.578 115.837 139.065 115.837 L 118.552 115.837 118.552 135.445 M288.989 116.440 C 288.989 116.999,289.191 117.044,291.704 117.044 C 294.218 117.044,294.419 116.999,294.419 116.440 C 294.419 115.882,294.218 115.837,291.704 115.837 C 289.191 115.837,288.989 115.882,288.989 116.440 M298.341 116.440 C 298.341 116.996,298.542 117.044,300.905 117.044 C 303.268 117.044,303.469 116.996,303.469 116.440 C 303.469 115.884,303.268 115.837,300.905 115.837 C 298.542 115.837,298.341 115.884,298.341 116.440 M36.501 116.742 C 36.501 117.317,36.702 117.345,40.724 117.345 C 44.746 117.345,44.947 117.317,44.947 116.742 C 44.947 116.167,44.746 116.139,40.724 116.139 C 36.702 116.139,36.501 116.167,36.501 116.742 M288.989 117.949 C 288.989 118.507,289.191 118.552,291.704 118.552 C 294.218 118.552,294.419 118.507,294.419 117.949 C 294.419 117.390,294.218 117.345,291.704 117.345 C 289.191 117.345,288.989 117.390,288.989 117.949 M298.341 117.949 C 298.341 118.505,298.542 118.552,300.905 118.552 C 303.268 118.552,303.469 118.505,303.469 117.949 C 303.469 117.393,303.268 117.345,300.905 117.345 C 298.542 117.345,298.341 117.393,298.341 117.949 M36.501 118.250 C 36.501 118.825,36.702 118.854,40.724 118.854 C 44.746 118.854,44.947 118.825,44.947 118.250 C 44.947 117.676,44.746 117.647,40.724 117.647 C 36.702 117.647,36.501 117.676,36.501 118.250 M288.989 119.457 C 288.989 120.016,289.191 120.060,291.704 120.060 C 294.218 120.060,294.419 120.016,294.419 119.457 C 294.419 118.898,294.218 118.854,291.704 118.854 C 289.191 118.854,288.989 118.898,288.989 119.457 M298.341 119.457 C 298.341 120.013,298.542 120.060,300.905 120.060 C 303.268 120.060,303.469 120.013,303.469 119.457 C 303.469 118.901,303.268 118.854,300.905 118.854 C 298.542 118.854,298.341 118.901,298.341 119.457 M36.501 119.759 C 36.501 120.333,36.702 120.362,40.724 120.362 C 44.746 120.362,44.947 120.333,44.947 119.759 C 44.947 119.184,44.746 119.155,40.724 119.155 C 36.702 119.155,36.501 119.184,36.501 119.759 M288.989 120.965 C 288.989 121.524,289.191 121.569,291.704 121.569 C 294.218 121.569,294.419 121.524,294.419 120.965 C 294.419 120.407,294.218 120.362,291.704 120.362 C 289.191 120.362,288.989 120.407,288.989 120.965 M298.341 120.965 C 298.341 121.521,298.542 121.569,300.905 121.569 C 303.268 121.569,303.469 121.521,303.469 120.965 C 303.469 120.409,303.268 120.362,300.905 120.362 C 298.542 120.362,298.341 120.409,298.341 120.965 M36.501 121.267 C 36.501 121.842,36.702 121.870,40.724 121.870 C 44.746 121.870,44.947 121.842,44.947 121.267 C 44.947 120.692,44.746 120.664,40.724 120.664 C 36.702 120.664,36.501 120.692,36.501 121.267 M288.989 122.474 C 288.989 123.032,289.191 123.077,291.704 123.077 C 294.218 123.077,294.419 123.032,294.419 122.474 C 294.419 121.915,294.218 121.870,291.704 121.870 C 289.191 121.870,288.989 121.915,288.989 122.474 M298.341 122.474 C 298.341 123.030,298.542 123.077,300.905 123.077 C 303.268 123.077,303.469 123.030,303.469 122.474 C 303.469 121.918,303.268 121.870,300.905 121.870 C 298.542 121.870,298.341 121.918,298.341 122.474 M36.501 122.775 C 36.501 123.350,36.702 123.379,40.724 123.379 C 44.746 123.379,44.947 123.350,44.947 122.775 C 44.947 122.201,44.746 122.172,40.724 122.172 C 36.702 122.172,36.501 122.201,36.501 122.775 M288.989 123.982 C 288.989 124.541,289.191 124.585,291.704 124.585 C 294.218 124.585,294.419 124.541,294.419 123.982 C 294.419 123.423,294.218 123.379,291.704 123.379 C 289.191 123.379,288.989 123.423,288.989 123.982 M298.341 123.982 C 298.341 124.538,298.542 124.585,300.905 124.585 C 303.268 124.585,303.469 124.538,303.469 123.982 C 303.469 123.426,303.268 123.379,300.905 123.379 C 298.542 123.379,298.341 123.426,298.341 123.982 M36.501 124.284 C 36.501 124.858,36.702 124.887,40.724 124.887 C 44.746 124.887,44.947 124.858,44.947 124.284 C 44.947 123.709,44.746 123.680,40.724 123.680 C 36.702 123.680,36.501 123.709,36.501 124.284 M288.989 125.490 C 288.989 126.049,289.191 126.094,291.704 126.094 C 294.218 126.094,294.419 126.049,294.419 125.490 C 294.419 124.932,294.218 124.887,291.704 124.887 C 289.191 124.887,288.989 124.932,288.989 125.490 M298.341 125.490 C 298.341 126.046,298.542 126.094,300.905 126.094 C 303.268 126.094,303.469 126.046,303.469 125.490 C 303.469 124.934,303.268 124.887,300.905 124.887 C 298.542 124.887,298.341 124.934,298.341 125.490 M36.501 125.792 C 36.501 126.366,36.702 126.395,40.724 126.395 C 44.746 126.395,44.947 126.366,44.947 125.792 C 44.947 125.217,44.746 125.189,40.724 125.189 C 36.702 125.189,36.501 125.217,36.501 125.792 M288.989 126.998 C 288.989 127.557,289.191 127.602,291.704 127.602 C 294.218 127.602,294.419 127.557,294.419 126.998 C 294.419 126.440,294.218 126.395,291.704 126.395 C 289.191 126.395,288.989 126.440,288.989 126.998 M298.341 126.998 C 298.341 127.554,298.542 127.602,300.905 127.602 C 303.268 127.602,303.469 127.554,303.469 126.998 C 303.469 126.442,303.268 126.395,300.905 126.395 C 298.542 126.395,298.341 126.442,298.341 126.998 M36.501 127.300 C 36.501 127.875,36.702 127.903,40.724 127.903 C 44.746 127.903,44.947 127.875,44.947 127.300 C 44.947 126.726,44.746 126.697,40.724 126.697 C 36.702 126.697,36.501 126.726,36.501 127.300 M288.989 128.507 C 288.989 129.065,289.191 129.110,291.704 129.110 C 294.218 129.110,294.419 129.065,294.419 128.507 C 294.419 127.948,294.218 127.903,291.704 127.903 C 289.191 127.903,288.989 127.948,288.989 128.507 M298.341 128.507 C 298.341 129.063,298.542 129.110,300.905 129.110 C 303.268 129.110,303.469 129.063,303.469 128.507 C 303.469 127.951,303.268 127.903,300.905 127.903 C 298.542 127.903,298.341 127.951,298.341 128.507 M36.501 128.808 C 36.501 129.383,36.702 129.412,40.724 129.412 C 44.746 129.412,44.947 129.383,44.947 128.808 C 44.947 128.234,44.746 128.205,40.724 128.205 C 36.702 128.205,36.501 128.234,36.501 128.808 M288.989 130.015 C 288.989 130.574,289.191 130.618,291.704 130.618 C 294.218 130.618,294.419 130.574,294.419 130.015 C 294.419 129.456,294.218 129.412,291.704 129.412 C 289.191 129.412,288.989 129.456,288.989 130.015 M298.341 130.015 C 298.341 130.571,298.542 130.618,300.905 130.618 C 303.268 130.618,303.469 130.571,303.469 130.015 C 303.469 129.459,303.268 129.412,300.905 129.412 C 298.542 129.412,298.341 129.459,298.341 130.015 M36.501 130.317 C 36.501 130.891,36.702 130.920,40.724 130.920 C 44.746 130.920,44.947 130.891,44.947 130.317 C 44.947 129.742,44.746 129.713,40.724 129.713 C 36.702 129.713,36.501 129.742,36.501 130.317 M288.989 131.523 C 288.989 132.082,289.191 132.127,291.704 132.127 C 294.218 132.127,294.419 132.082,294.419 131.523 C 294.419 130.965,294.218 130.920,291.704 130.920 C 289.191 130.920,288.989 130.965,288.989 131.523 M298.341 131.523 C 298.341 132.079,298.542 132.127,300.905 132.127 C 303.268 132.127,303.469 132.079,303.469 131.523 C 303.469 130.967,303.268 130.920,300.905 130.920 C 298.542 130.920,298.341 130.967,298.341 131.523 M36.501 131.825 C 36.501 132.400,36.702 132.428,40.724 132.428 C 44.746 132.428,44.947 132.400,44.947 131.825 C 44.947 131.250,44.746 131.222,40.724 131.222 C 36.702 131.222,36.501 131.250,36.501 131.825 M288.989 135.294 L 288.989 138.160 296.229 138.160 L 303.469 138.160 303.469 135.294 L 303.469 132.428 300.905 132.428 C 299.397 132.428,298.341 132.553,298.341 132.730 C 298.341 132.900,297.486 133.032,296.380 133.032 C 295.274 133.032,294.419 132.900,294.419 132.730 C 294.419 132.551,293.313 132.428,291.704 132.428 L 288.989 132.428 288.989 135.294 M36.501 133.333 C 36.501 133.908,36.702 133.937,40.724 133.937 C 44.746 133.937,44.947 133.908,44.947 133.333 C 44.947 132.759,44.746 132.730,40.724 132.730 C 36.702 132.730,36.501 132.759,36.501 133.333 M36.501 134.842 C 36.501 135.416,36.702 135.445,40.724 135.445 C 44.746 135.445,44.947 135.416,44.947 134.842 C 44.947 134.267,44.746 134.238,40.724 134.238 C 36.702 134.238,36.501 134.267,36.501 134.842 M36.501 136.350 C 36.501 136.925,36.702 136.953,40.724 136.953 C 44.746 136.953,44.947 136.925,44.947 136.350 C 44.947 135.775,44.746 135.747,40.724 135.747 C 36.702 135.747,36.501 135.775,36.501 136.350 M61.463 137.179 L 53.394 137.265 53.394 146.159 L 53.394 155.053 64.253 155.053 L 75.113 155.053 75.113 146.195 L 75.113 137.337 73.714 137.145 C 72.944 137.040,71.688 136.985,70.923 137.024 C 70.158 137.062,65.901 137.132,61.463 137.179 M36.501 137.858 C 36.501 138.433,36.702 138.462,40.724 138.462 C 44.746 138.462,44.947 138.433,44.947 137.858 C 44.947 137.284,44.746 137.255,40.724 137.255 C 36.702 137.255,36.501 137.284,36.501 137.858 M36.501 139.367 C 36.501 139.941,36.702 139.970,40.724 139.970 C 44.746 139.970,44.947 139.941,44.947 139.367 C 44.947 138.792,44.746 138.763,40.724 138.763 C 36.702 138.763,36.501 138.792,36.501 139.367 M36.501 140.875 C 36.501 141.449,36.702 141.478,40.724 141.478 C 44.746 141.478,44.947 141.449,44.947 140.875 C 44.947 140.300,44.746 140.271,40.724 140.271 C 36.702 140.271,36.501 140.300,36.501 140.875 M36.501 142.383 C 36.501 142.958,36.702 142.986,40.724 142.986 C 44.746 142.986,44.947 142.958,44.947 142.383 C 44.947 141.809,44.746 141.780,40.724 141.780 C 36.702 141.780,36.501 141.809,36.501 142.383 M36.501 143.891 C 36.501 144.466,36.702 144.495,40.724 144.495 C 44.746 144.495,44.947 144.466,44.947 143.891 C 44.947 143.317,44.746 143.288,40.724 143.288 C 36.702 143.288,36.501 143.317,36.501 143.891 M36.501 145.400 C 36.501 145.974,36.702 146.003,40.724 146.003 C 44.746 146.003,44.947 145.974,44.947 145.400 C 44.947 144.825,44.746 144.796,40.724 144.796 C 36.702 144.796,36.501 144.825,36.501 145.400 M36.501 146.908 C 36.501 147.483,36.702 147.511,40.724 147.511 C 44.746 147.511,44.947 147.483,44.947 146.908 C 44.947 146.333,44.746 146.305,40.724 146.305 C 36.702 146.305,36.501 146.333,36.501 146.908 M36.501 148.416 C 36.501 148.991,36.702 149.020,40.724 149.020 C 44.746 149.020,44.947 148.991,44.947 148.416 C 44.947 147.842,44.746 147.813,40.724 147.813 C 36.702 147.813,36.501 147.842,36.501 148.416 M36.501 149.925 C 36.501 150.499,36.702 150.528,40.724 150.528 C 44.746 150.528,44.947 150.499,44.947 149.925 C 44.947 149.350,44.746 149.321,40.724 149.321 C 36.702 149.321,36.501 149.350,36.501 149.925 M36.501 151.433 C 36.501 152.007,36.702 152.036,40.724 152.036 C 44.746 152.036,44.947 152.007,44.947 151.433 C 44.947 150.858,44.746 150.830,40.724 150.830 C 36.702 150.830,36.501 150.858,36.501 151.433 M7.843 254.751 C 7.843 325.205,7.792 334.238,7.391 334.238 C 6.990 334.238,6.938 325.205,6.938 254.751 C 6.938 184.297,6.990 175.264,7.391 175.264 C 7.792 175.264,7.843 184.297,7.843 254.751 M14.781 254.751 C 14.781 325.205,14.730 334.238,14.329 334.238 C 13.928 334.238,13.876 325.205,13.876 254.751 C 13.876 184.297,13.928 175.264,14.329 175.264 C 14.730 175.264,14.781 184.297,14.781 254.751 M117.647 180.116 L 117.647 184.917 113.469 184.917 L 109.290 184.917 109.131 192.383 C 109.043 196.489,109.002 206.976,109.039 215.686 C 109.076 224.397,109.127 251.987,109.153 276.998 L 109.201 322.474 113.424 322.474 L 117.647 322.474 117.647 328.808 L 117.647 335.143 113.424 335.143 L 109.201 335.143 109.201 341.327 L 109.201 347.511 69.721 347.511 C 48.007 347.511,29.817 347.596,29.299 347.700 L 28.356 347.888 28.356 261.600 L 28.356 175.312 73.002 175.313 L 117.647 175.314 117.647 180.116 M65.988 176.330 C 65.863 176.463,65.762 181.232,65.762 186.928 L 65.762 197.285 67.119 197.285 L 68.477 197.285 68.477 201.961 L 68.477 206.637 88.577 206.637 L 108.678 206.637 108.516 194.344 C 108.426 187.583,108.417 182.425,108.495 182.881 L 108.637 183.710 112.388 183.710 L 116.139 183.710 116.139 180.241 L 116.139 176.772 112.389 176.772 C 108.740 176.772,108.636 176.791,108.509 177.451 C 108.396 178.033,108.372 178.011,108.337 177.300 L 108.296 176.471 98.089 176.471 C 92.475 176.471,83.006 176.385,77.048 176.280 C 71.089 176.175,66.112 176.197,65.988 176.330 M29.563 186.878 L 29.563 197.285 34.087 197.285 L 38.612 197.285 38.612 186.878 L 38.612 176.471 34.087 176.471 L 29.563 176.471 29.563 186.878 M38.914 180.995 L 38.914 185.520 39.819 185.520 L 40.724 185.520 40.724 180.995 L 40.724 176.471 39.819 176.471 L 38.914 176.471 38.914 180.995 M41.026 180.995 L 41.026 185.520 41.931 185.520 L 42.836 185.520 42.836 180.995 L 42.836 176.471 41.931 176.471 L 41.026 176.471 41.026 180.995 M43.137 180.995 L 43.137 185.520 44.042 185.520 L 44.947 185.520 44.947 180.995 L 44.947 176.471 44.042 176.471 L 43.137 176.471 43.137 180.995 M45.249 180.995 L 45.249 185.520 46.154 185.520 L 47.059 185.520 47.059 180.995 L 47.059 176.471 46.154 176.471 L 45.249 176.471 45.249 180.995 M47.360 180.995 L 47.360 185.520 48.265 185.520 L 49.170 185.520 49.170 180.995 L 49.170 176.471 48.265 176.471 L 47.360 176.471 47.360 180.995 M49.472 180.995 L 49.472 185.520 50.377 185.520 L 51.282 185.520 51.282 180.995 L 51.282 176.471 50.377 176.471 L 49.472 176.471 49.472 180.995 M51.584 180.995 L 51.584 185.520 52.489 185.520 L 53.394 185.520 53.394 180.995 L 53.394 176.471 52.489 176.471 L 51.584 176.471 51.584 180.995 M53.695 180.995 L 53.695 185.520 54.600 185.520 L 55.505 185.520 55.505 180.995 L 55.505 176.471 54.600 176.471 L 53.695 176.471 53.695 180.995 M55.807 180.995 L 55.807 185.520 56.712 185.520 L 57.617 185.520 57.617 180.995 L 57.617 176.471 56.712 176.471 L 55.807 176.471 55.807 180.995 M57.919 180.995 L 57.919 185.520 58.824 185.520 L 59.729 185.520 59.729 180.995 L 59.729 176.471 58.824 176.471 L 57.919 176.471 57.919 180.995 M60.030 180.995 L 60.030 185.520 62.745 185.520 L 65.460 185.520 65.460 180.995 L 65.460 176.471 62.745 176.471 L 60.030 176.471 60.030 180.995 M38.914 186.576 L 38.914 187.330 52.187 187.330 L 65.460 187.330 65.460 186.576 L 65.460 185.822 52.187 185.822 L 38.914 185.822 38.914 186.576 M38.914 192.459 L 38.914 197.285 39.819 197.285 L 40.724 197.285 40.724 192.459 L 40.724 187.632 39.819 187.632 L 38.914 187.632 38.914 192.459 M41.026 192.459 L 41.026 197.285 41.931 197.285 L 42.836 197.285 42.836 192.459 L 42.836 187.632 41.931 187.632 L 41.026 187.632 41.026 192.459 M43.137 192.459 L 43.137 197.285 44.042 197.285 L 44.947 197.285 44.947 192.459 L 44.947 187.632 44.042 187.632 L 43.137 187.632 43.137 192.459 M45.249 192.459 L 45.249 197.285 46.154 197.285 L 47.059 197.285 47.059 192.459 L 47.059 187.632 46.154 187.632 L 45.249 187.632 45.249 192.459 M47.360 192.459 L 47.360 197.285 48.265 197.285 L 49.170 197.285 49.170 192.459 L 49.170 187.632 48.265 187.632 L 47.360 187.632 47.360 192.459 M49.472 192.459 L 49.472 197.285 50.377 197.285 L 51.282 197.285 51.282 192.459 L 51.282 187.632 50.377 187.632 L 49.472 187.632 49.472 192.459 M51.584 192.459 L 51.584 197.285 52.489 197.285 L 53.394 197.285 53.394 192.459 L 53.394 187.632 52.489 187.632 L 51.584 187.632 51.584 192.459 M53.695 192.459 L 53.695 197.285 54.600 197.285 L 55.505 197.285 55.505 192.459 L 55.505 187.632 54.600 187.632 L 53.695 187.632 53.695 192.459 M55.807 192.459 L 55.807 197.285 56.712 197.285 L 57.617 197.285 57.617 192.459 L 57.617 187.632 56.712 187.632 L 55.807 187.632 55.807 192.459 M57.919 192.459 L 57.919 197.285 58.824 197.285 L 59.729 197.285 59.729 192.459 L 59.729 187.632 58.824 187.632 L 57.919 187.632 57.919 192.459 M60.030 192.459 L 60.030 197.285 62.745 197.285 L 65.460 197.285 65.460 192.459 L 65.460 187.632 62.745 187.632 L 60.030 187.632 60.030 192.459 M29.563 266.063 L 29.563 333.937 68.908 333.937 L 108.253 333.937 108.350 278.507 C 108.403 248.020,108.404 219.581,108.352 215.309 L 108.258 207.541 87.915 207.541 L 67.572 207.541 67.572 202.866 L 67.572 198.190 48.567 198.190 L 29.563 198.190 29.563 266.063 M290.498 255.807 L 290.498 267.270 315.385 267.270 L 340.271 267.270 340.271 255.807 L 340.271 244.344 315.385 244.344 L 290.498 244.344 290.498 255.807 M172.851 314.630 L 172.851 361.086 286.425 361.086 L 400.000 361.086 400.000 314.630 L 400.000 268.175 286.425 268.175 L 172.851 268.175 172.851 314.630 M29.563 340.724 L 29.563 346.305 68.929 346.305 L 108.296 346.305 108.296 340.724 L 108.296 335.143 68.929 335.143 L 29.563 335.143 29.563 340.724 " stroke="none" fill="#fcfcfc" fill-rule="evenodd"></path><path id="path1" d="M0.000 180.543 L 0.000 361.086 86.425 361.086 L 172.851 361.086 172.851 314.630 L 172.851 268.175 286.425 268.175 L 400.000 268.175 400.000 134.087 L 400.000 0.000 200.000 0.000 L 0.000 0.000 0.000 180.543 M399.095 134.087 L 399.095 267.270 370.136 267.270 L 341.176 267.270 341.176 255.354 L 341.176 243.439 315.385 243.439 L 289.593 243.439 289.593 255.354 L 289.593 267.268 230.845 267.345 L 172.097 267.421 172.020 313.801 L 171.944 360.181 86.424 360.181 L 0.905 360.181 0.905 180.543 L 0.905 0.905 200.000 0.905 L 399.095 0.905 399.095 134.087 M285.068 39.233 L 285.068 47.360 246.908 47.360 L 208.748 47.360 208.748 46.606 C 208.748 46.003,208.597 45.852,207.994 45.852 C 207.391 45.852,207.240 46.003,207.240 46.606 L 207.240 47.360 188.311 47.372 C 177.900 47.378,143.013 47.387,110.784 47.392 L 52.187 47.401 52.187 69.251 C 52.187 90.900,52.193 91.101,52.790 91.101 C 53.233 91.101,53.394 90.900,53.394 90.347 C 53.394 89.878,53.565 89.593,53.846 89.593 C 54.095 89.593,54.299 89.389,54.299 89.140 C 54.299 88.763,54.902 88.688,57.919 88.688 C 61.337 88.688,61.538 88.654,61.538 88.084 C 61.538 87.511,61.337 87.481,57.466 87.481 L 53.394 87.481 53.394 75.264 L 53.394 63.047 54.600 63.047 C 55.606 63.047,55.807 62.946,55.807 62.443 C 55.807 61.941,55.606 61.840,54.600 61.840 L 53.394 61.840 53.394 55.204 L 53.394 48.567 62.594 48.567 L 71.795 48.567 71.795 57.014 L 71.795 65.460 68.929 65.460 L 66.063 65.460 66.063 63.650 L 66.063 61.840 62.896 61.840 C 59.930 61.840,59.729 61.878,59.729 62.443 C 59.729 63.002,59.930 63.047,62.443 63.047 L 65.158 63.047 65.158 64.706 L 65.158 66.365 68.477 66.365 L 71.795 66.365 71.795 75.524 C 71.795 80.561,71.881 85.312,71.987 86.082 L 72.179 87.481 68.797 87.481 C 65.739 87.481,65.426 87.532,65.517 88.009 C 65.688 88.897,123.982 88.974,123.982 88.086 C 123.982 87.521,123.783 87.481,120.965 87.481 L 117.949 87.481 117.949 86.124 C 117.949 84.967,117.859 84.766,117.345 84.766 C 116.831 84.766,116.742 84.967,116.742 86.124 L 116.742 87.481 94.872 87.481 L 73.002 87.481 73.002 68.024 L 73.002 48.567 101.207 48.567 L 129.412 48.567 129.412 63.047 L 129.412 77.526 123.077 77.526 L 116.742 77.526 116.742 79.035 C 116.742 80.342,116.823 80.543,117.345 80.543 C 117.681 80.543,117.949 80.342,117.949 80.090 C 117.949 79.174,123.021 79.463,123.255 80.392 C 123.440 81.130,123.507 81.146,126.277 81.146 L 129.110 81.146 129.110 85.370 L 129.110 89.593 129.864 89.593 L 130.618 89.593 130.618 85.370 L 130.618 81.146 133.463 81.146 C 136.184 81.146,136.312 81.117,136.404 80.468 C 136.529 79.592,141.478 79.212,141.478 80.078 C 141.478 80.342,141.739 80.543,142.081 80.543 C 142.604 80.543,142.685 80.342,142.685 79.035 L 142.685 77.526 136.501 77.526 L 130.317 77.526 130.317 63.047 L 130.317 48.567 149.321 48.567 L 168.326 48.567 168.326 68.024 L 168.326 87.481 155.505 87.481 L 142.685 87.481 142.685 86.124 C 142.685 84.967,142.595 84.766,142.081 84.766 C 141.568 84.766,141.478 84.967,141.478 86.124 L 141.478 87.481 138.311 87.481 C 135.344 87.481,135.143 87.519,135.143 88.084 C 135.143 88.681,135.344 88.688,152.489 88.688 C 169.633 88.688,169.834 88.681,169.834 88.084 C 169.834 87.500,170.035 87.481,176.320 87.481 C 181.884 87.481,182.805 87.417,182.805 87.029 C 182.805 86.640,181.884 86.576,176.320 86.576 L 169.834 86.576 169.834 67.572 L 169.834 48.567 188.537 48.567 L 207.240 48.567 207.240 67.539 C 207.240 84.561,207.191 86.530,206.763 86.695 C 206.500 86.795,202.292 86.878,197.411 86.878 C 191.696 86.878,188.537 86.985,188.537 87.179 C 188.537 87.374,191.755 87.481,197.587 87.481 L 206.637 87.481 206.637 88.537 C 206.637 89.542,206.687 89.593,207.692 89.593 C 208.430 89.593,208.748 89.729,208.748 90.045 C 208.748 90.420,209.318 90.498,212.066 90.498 L 215.385 90.498 215.385 93.514 L 215.385 96.531 216.290 96.531 C 216.893 96.531,217.195 96.380,217.195 96.078 C 217.195 95.830,216.991 95.626,216.742 95.626 C 216.362 95.626,216.290 94.972,216.290 91.554 C 216.290 88.135,216.217 87.481,215.837 87.481 C 215.521 87.481,215.385 87.800,215.385 88.537 L 215.385 89.593 212.971 89.593 L 210.558 89.593 210.558 82.805 L 210.558 76.018 209.653 76.018 L 208.748 76.018 208.748 71.192 L 208.748 66.365 218.250 66.365 L 227.753 66.365 227.753 78.281 C 227.753 88.671,227.811 90.196,228.205 90.196 C 228.591 90.196,228.658 89.392,228.658 84.766 L 228.658 79.336 230.618 79.336 C 232.160 79.336,232.579 79.240,232.579 78.884 C 232.579 78.528,232.160 78.431,230.618 78.431 L 228.658 78.431 228.658 72.247 L 228.658 66.063 230.468 66.063 L 232.278 66.063 232.278 64.253 C 232.278 62.846,232.177 62.443,231.825 62.443 C 231.490 62.443,231.373 62.795,231.373 63.801 L 231.373 65.158 220.060 65.158 L 208.748 65.158 208.748 56.863 L 208.748 48.567 225.038 48.567 L 241.327 48.567 241.327 55.505 L 241.327 62.443 239.216 62.443 C 237.540 62.443,237.104 62.537,237.104 62.896 C 237.104 63.177,237.389 63.348,237.858 63.348 C 238.273 63.348,238.612 63.484,238.612 63.650 C 238.612 63.816,238.816 63.952,239.065 63.952 C 239.314 63.952,239.517 63.816,239.517 63.650 C 239.517 63.484,240.128 63.348,240.875 63.348 L 242.232 63.348 242.232 61.388 L 242.232 59.427 243.439 59.427 C 244.310 59.427,244.646 59.301,244.646 58.974 C 244.646 58.648,244.310 58.522,243.439 58.522 L 242.232 58.522 242.232 53.544 L 242.232 48.567 246.154 48.567 L 250.075 48.567 250.075 53.544 C 250.075 56.662,249.963 58.522,249.774 58.522 C 249.608 58.522,249.472 58.725,249.472 58.974 C 249.472 59.223,249.608 59.427,249.774 59.427 C 249.944 59.427,250.075 60.282,250.075 61.388 L 250.075 63.348 251.885 63.348 C 253.615 63.348,253.695 63.382,253.695 64.103 C 253.695 64.572,253.866 64.857,254.148 64.857 C 254.475 64.857,254.600 64.522,254.600 63.650 L 254.600 62.443 252.790 62.443 L 250.980 62.443 250.980 55.505 L 250.980 48.567 257.919 48.567 L 264.857 48.567 264.857 53.092 L 264.857 57.617 263.047 57.617 C 261.639 57.617,261.237 57.717,261.237 58.069 C 261.237 58.431,261.689 58.522,263.499 58.522 L 265.762 58.522 265.762 53.544 L 265.762 48.567 275.415 48.567 L 285.068 48.567 285.068 60.181 L 285.068 71.795 274.661 71.795 C 264.454 71.795,264.253 71.807,264.253 72.398 C 264.253 72.912,264.454 73.002,265.611 73.002 L 266.968 73.002 266.968 77.376 L 266.968 81.750 259.879 81.750 L 252.790 81.750 252.790 80.543 C 252.790 79.672,252.665 79.336,252.338 79.336 C 252.056 79.336,251.885 79.621,251.885 80.090 C 251.885 80.839,251.865 80.845,249.170 80.845 C 246.958 80.845,246.456 80.928,246.456 81.297 C 246.456 81.546,246.659 81.750,246.908 81.750 C 247.295 81.750,247.360 82.621,247.360 87.783 C 247.360 92.945,247.426 93.816,247.813 93.816 C 248.200 93.816,248.265 92.945,248.265 87.783 L 248.265 81.750 249.925 81.750 C 251.198 81.750,251.584 81.855,251.584 82.202 C 251.584 82.596,252.941 82.655,261.991 82.655 C 272.197 82.655,272.398 82.643,272.398 82.051 C 272.398 81.502,272.197 81.448,270.136 81.448 L 267.873 81.448 267.873 77.225 L 267.873 73.002 276.471 73.002 L 285.068 73.002 285.068 77.225 L 285.068 81.448 280.694 81.448 C 276.521 81.448,276.320 81.476,276.320 82.051 C 276.320 82.627,276.521 82.655,280.694 82.655 L 285.068 82.655 285.068 92.006 L 285.068 101.357 266.667 101.357 L 248.265 101.357 248.265 100.000 C 248.265 98.994,248.148 98.643,247.813 98.643 C 247.511 98.643,247.360 98.944,247.360 99.548 C 247.360 100.312,247.243 100.452,246.606 100.452 C 245.893 100.452,245.852 100.543,245.852 102.112 C 245.852 103.385,245.957 103.771,246.305 103.771 C 246.586 103.771,246.757 103.486,246.757 103.017 L 246.757 102.262 265.913 102.262 L 285.068 102.262 285.068 128.658 L 285.068 155.053 265.913 155.053 L 246.757 155.053 246.757 131.674 C 246.757 111.094,246.703 108.296,246.305 108.296 C 246.056 108.296,245.852 108.499,245.852 108.748 C 245.852 109.144,244.076 109.201,231.674 109.201 L 217.496 109.201 217.496 107.843 C 217.496 106.493,217.491 106.486,216.440 106.486 L 215.385 106.486 215.385 110.256 C 215.385 112.569,215.268 114.027,215.083 114.027 C 214.917 114.027,214.781 114.299,214.781 114.630 C 214.781 115.100,214.982 115.234,215.686 115.234 L 216.591 115.234 216.591 112.971 L 216.591 110.709 231.071 110.709 L 245.551 110.709 245.551 132.881 L 245.551 155.053 226.848 155.053 L 208.145 155.053 208.145 135.143 L 208.145 115.234 209.050 115.234 C 209.754 115.234,209.955 115.100,209.955 114.630 C 209.955 114.108,209.754 114.027,208.446 114.027 L 206.938 114.027 206.938 134.540 L 206.938 155.053 203.620 155.053 C 200.503 155.053,200.302 155.089,200.302 155.656 C 200.302 156.257,200.503 156.259,243.288 156.259 L 286.275 156.259 286.275 122.775 L 286.275 89.291 296.229 89.291 C 305.983 89.291,306.184 89.279,306.184 88.688 C 306.184 88.097,305.983 88.084,296.229 88.084 L 286.275 88.084 286.275 75.867 L 286.275 63.650 295.324 63.650 C 303.167 63.650,304.374 63.590,304.374 63.198 C 304.374 62.805,303.167 62.745,295.324 62.745 L 286.275 62.745 286.275 47.511 L 286.275 32.278 305.430 32.278 L 324.585 32.278 324.585 47.511 L 324.585 62.745 317.195 62.745 C 310.826 62.745,309.804 62.808,309.804 63.198 C 309.804 63.587,310.826 63.650,317.195 63.650 L 324.585 63.650 324.585 75.867 L 324.585 88.084 318.100 88.084 C 311.815 88.084,311.614 88.103,311.614 88.688 C 311.614 89.274,311.815 89.291,318.664 89.291 L 325.714 89.291 325.766 60.256 L 325.818 31.222 305.443 31.164 L 285.068 31.106 285.068 39.233 M263.650 66.841 L 263.650 70.031 258.748 69.982 C 256.052 69.955,253.405 69.945,252.866 69.959 L 251.885 69.985 251.885 72.398 C 251.885 74.342,251.973 74.811,252.338 74.811 C 252.690 74.811,252.790 74.409,252.790 73.002 L 252.790 71.192 258.824 71.192 L 264.857 71.192 264.857 67.421 C 264.857 63.851,264.825 63.650,264.253 63.650 C 263.688 63.650,263.650 63.851,263.650 66.841 M238.612 73.605 L 238.612 78.431 237.406 78.431 C 236.534 78.431,236.199 78.557,236.199 78.884 C 236.199 79.211,236.534 79.336,237.406 79.336 L 238.612 79.336 238.612 87.481 L 238.612 95.626 233.635 95.626 C 229.412 95.626,228.658 95.557,228.658 95.173 C 228.658 94.925,228.454 94.721,228.205 94.721 C 227.956 94.721,227.753 94.925,227.753 95.173 C 227.753 95.547,227.200 95.626,224.585 95.626 C 221.971 95.626,221.418 95.705,221.418 96.078 C 221.418 96.471,222.624 96.531,230.468 96.531 L 239.517 96.531 239.517 89.140 L 239.517 81.750 240.724 81.750 C 241.595 81.750,241.931 81.624,241.931 81.297 C 241.931 80.970,241.595 80.845,240.724 80.845 L 239.517 80.845 239.517 74.811 C 239.517 69.650,239.452 68.778,239.065 68.778 C 238.681 68.778,238.612 69.516,238.612 73.605 M139.970 98.793 L 139.970 101.659 135.747 101.659 C 132.194 101.659,131.523 101.731,131.523 102.112 C 131.523 102.492,132.194 102.564,135.747 102.564 L 139.970 102.564 139.970 108.748 L 139.970 114.932 129.261 114.932 L 118.552 114.932 118.552 108.748 L 118.552 102.564 122.775 102.564 C 126.328 102.564,126.998 102.492,126.998 102.112 C 126.998 101.716,125.239 101.659,112.971 101.659 C 100.704 101.659,98.944 101.716,98.944 102.112 C 98.944 102.360,99.148 102.564,99.397 102.564 C 99.789 102.564,99.849 103.787,99.849 111.765 C 99.849 119.742,99.909 120.965,100.302 120.965 C 100.694 120.965,100.754 119.742,100.754 111.765 L 100.754 102.564 109.201 102.564 L 117.647 102.564 117.647 128.808 L 117.647 155.053 109.201 155.053 L 100.754 155.053 100.754 139.970 C 100.754 126.764,100.698 124.887,100.302 124.887 C 99.905 124.887,99.849 126.764,99.849 139.970 L 99.849 155.053 87.783 155.053 L 75.716 155.053 75.716 145.701 L 75.716 136.350 74.510 136.350 C 73.638 136.350,73.303 136.476,73.303 136.802 C 73.303 137.104,73.605 137.255,74.208 137.255 L 75.113 137.255 75.113 146.154 L 75.113 155.053 64.253 155.053 L 53.394 155.053 53.394 146.154 L 53.394 137.255 61.388 137.255 C 68.292 137.255,69.382 137.193,69.382 136.802 C 69.382 136.426,68.795 136.350,65.913 136.350 C 62.645 136.350,62.443 136.315,62.443 135.747 C 62.443 135.415,62.308 135.143,62.142 135.143 C 61.976 135.143,61.840 135.415,61.840 135.747 C 61.840 136.321,61.639 136.350,57.617 136.350 L 53.394 136.350 53.394 130.769 L 53.394 125.189 57.617 125.189 L 61.840 125.189 61.840 128.507 C 61.840 130.518,61.959 131.825,62.142 131.825 C 62.325 131.825,62.443 130.518,62.443 128.507 L 62.443 125.189 64.857 125.189 C 67.230 125.189,67.270 125.201,67.270 125.943 C 67.270 126.580,67.411 126.697,68.175 126.697 C 68.778 126.697,69.080 126.546,69.080 126.244 C 69.080 125.993,68.812 125.792,68.477 125.792 C 68.074 125.792,67.873 125.591,67.873 125.189 C 67.873 124.602,67.672 124.585,60.633 124.585 L 53.394 124.585 53.394 113.575 L 53.394 102.564 61.237 102.564 C 68.007 102.564,69.080 102.502,69.080 102.112 C 69.080 101.721,68.007 101.659,61.237 101.659 C 53.595 101.659,53.394 101.644,53.394 101.056 C 53.394 100.654,53.193 100.452,52.790 100.452 C 52.206 100.452,52.187 100.654,52.187 106.929 L 52.187 113.405 48.492 113.500 L 44.796 113.595 48.492 113.660 L 52.187 113.725 52.187 134.992 L 52.187 156.259 115.385 156.259 C 178.381 156.259,178.582 156.258,178.582 155.656 C 178.582 155.089,178.381 155.053,175.264 155.053 L 171.946 155.053 171.946 134.992 L 171.946 114.932 171.041 114.932 L 170.136 114.932 170.136 117.044 L 170.136 119.155 168.929 119.155 C 167.924 119.155,167.722 119.256,167.722 119.759 C 167.722 120.273,167.924 120.362,169.080 120.362 L 170.437 120.362 170.437 137.707 L 170.437 155.053 144.495 155.053 L 118.552 155.053 118.552 135.445 L 118.552 115.837 139.065 115.837 L 159.578 115.837 159.578 118.100 L 159.578 120.362 161.237 120.362 C 162.695 120.362,162.896 120.289,162.896 119.759 C 162.896 119.256,162.695 119.155,161.689 119.155 L 160.483 119.155 160.483 117.044 L 160.483 114.932 150.679 114.932 L 140.875 114.932 140.875 105.430 C 140.875 97.185,140.815 95.928,140.422 95.928 C 140.052 95.928,139.970 96.447,139.970 98.793 M73.906 102.112 C 73.906 102.360,74.042 102.564,74.208 102.564 C 74.404 102.564,74.510 106.637,74.510 114.178 C 74.510 121.719,74.404 125.792,74.208 125.792 C 74.042 125.792,73.906 125.995,73.906 126.244 C 73.906 126.496,74.175 126.697,74.510 126.697 C 75.090 126.697,75.113 126.496,75.113 121.418 L 75.113 116.139 83.710 116.139 L 92.308 116.139 92.308 115.385 C 92.308 114.915,92.137 114.630,91.855 114.630 C 91.606 114.630,91.403 114.834,91.403 115.083 C 91.403 115.474,90.297 115.535,83.258 115.535 L 75.113 115.535 75.113 109.050 L 75.113 102.564 83.258 102.564 L 91.403 102.564 91.403 106.637 C 91.403 110.055,91.475 110.709,91.855 110.709 C 92.235 110.709,92.308 110.055,92.308 106.637 L 92.308 102.564 93.363 102.564 C 94.101 102.564,94.419 102.428,94.419 102.112 C 94.419 101.718,93.079 101.659,84.163 101.659 C 75.247 101.659,73.906 101.718,73.906 102.112 M288.084 125.339 C 288.084 137.339,288.141 139.065,288.537 139.065 C 288.932 139.065,288.989 137.389,288.989 125.792 L 288.989 112.519 291.704 112.519 L 294.419 112.519 294.419 122.775 L 294.419 133.032 296.380 133.032 L 298.341 133.032 298.341 122.323 L 298.341 111.614 293.213 111.614 L 288.084 111.614 288.084 125.339 M303.469 122.323 C 303.469 131.641,303.528 133.032,303.922 133.032 C 304.315 133.032,304.374 131.641,304.374 122.323 C 304.374 113.005,304.315 111.614,303.922 111.614 C 303.528 111.614,303.469 113.005,303.469 122.323 M297.436 122.323 L 297.436 132.127 296.380 132.127 L 295.324 132.127 295.324 122.323 L 295.324 112.519 296.380 112.519 L 297.436 112.519 297.436 122.323 M298.341 138.612 C 298.341 138.984,298.877 139.065,301.357 139.065 C 303.838 139.065,304.374 138.984,304.374 138.612 C 304.374 138.240,303.838 138.160,301.357 138.160 C 298.877 138.160,298.341 138.240,298.341 138.612 M28.356 261.576 L 28.356 347.888 29.299 347.700 C 29.817 347.596,48.007 347.511,69.721 347.511 L 109.201 347.511 109.201 341.327 L 109.201 335.143 113.424 335.143 L 117.647 335.143 117.647 328.808 L 117.647 322.474 113.424 322.474 L 109.201 322.474 109.201 277.074 C 109.201 236.920,109.148 231.674,108.748 231.674 C 108.348 231.674,108.296 237.557,108.296 282.805 L 108.296 333.937 68.929 333.937 L 29.563 333.937 29.563 266.063 L 29.563 198.190 48.567 198.190 L 67.572 198.190 67.572 202.866 L 67.572 207.541 87.934 207.541 L 108.296 207.541 108.296 214.781 C 108.296 221.016,108.358 222.021,108.748 222.021 C 109.138 222.021,109.201 220.965,109.201 214.329 L 109.201 206.637 88.839 206.637 L 68.477 206.637 68.477 201.961 L 68.477 197.285 67.127 197.285 L 65.777 197.285 65.686 192.383 L 65.595 187.481 65.527 192.383 L 65.460 197.285 47.511 197.285 L 29.563 197.285 29.563 186.878 L 29.563 176.471 47.511 176.471 L 65.460 176.471 65.505 181.071 C 65.559 186.522,65.703 185.919,65.830 179.713 L 65.921 175.264 47.138 175.264 L 28.356 175.264 28.356 261.576 M80.543 175.867 C 80.543 176.462,80.744 176.471,94.419 176.471 L 108.296 176.471 108.337 177.300 C 108.372 178.011,108.396 178.033,108.509 177.451 C 108.636 176.791,108.740 176.772,112.389 176.772 L 116.139 176.772 116.139 180.241 L 116.139 183.710 112.388 183.710 L 108.637 183.710 108.512 182.881 C 108.443 182.425,108.366 184.664,108.341 187.858 C 108.302 192.839,108.360 193.665,108.748 193.665 C 109.130 193.665,109.201 192.978,109.201 189.291 L 109.201 184.917 113.424 184.917 L 117.647 184.917 117.647 180.090 L 117.647 175.264 99.095 175.264 C 80.744 175.264,80.543 175.270,80.543 175.867 M340.271 255.807 L 340.271 267.270 315.385 267.270 L 290.498 267.270 290.498 255.807 L 290.498 244.344 315.385 244.344 L 340.271 244.344 340.271 255.807 M108.296 340.724 L 108.296 346.305 68.929 346.305 L 29.563 346.305 29.563 340.724 L 29.563 335.143 68.929 335.143 L 108.296 335.143 108.296 340.724 " stroke="none" fill="#848484" fill-rule="evenodd"></path><path id="path2" d="M173.756 37.255 C 173.756 43.791,173.862 47.360,174.057 47.360 C 174.242 47.360,174.359 45.902,174.359 43.590 L 174.359 39.819 188.839 39.819 L 203.318 39.819 203.318 33.484 L 203.318 27.149 188.537 27.149 L 173.756 27.149 173.756 37.255 M180.995 28.054 C 180.995 28.621,180.794 28.658,177.677 28.658 C 174.560 28.658,174.359 28.621,174.359 28.054 C 174.359 27.488,174.560 27.451,177.677 27.451 C 180.794 27.451,180.995 27.488,180.995 28.054 M188.235 28.054 C 188.235 28.621,188.034 28.658,184.917 28.658 C 181.800 28.658,181.599 28.621,181.599 28.054 C 181.599 27.488,181.800 27.451,184.917 27.451 C 188.034 27.451,188.235 27.488,188.235 28.054 M195.475 28.054 C 195.475 28.621,195.274 28.658,192.157 28.658 C 189.040 28.658,188.839 28.621,188.839 28.054 C 188.839 27.488,189.040 27.451,192.157 27.451 C 195.274 27.451,195.475 27.488,195.475 28.054 M202.715 28.054 C 202.715 28.621,202.514 28.658,199.397 28.658 C 196.280 28.658,196.078 28.621,196.078 28.054 C 196.078 27.488,196.280 27.451,199.397 27.451 C 202.514 27.451,202.715 27.488,202.715 28.054 M180.995 29.563 C 180.995 30.129,180.794 30.166,177.677 30.166 C 174.560 30.166,174.359 30.129,174.359 29.563 C 174.359 28.996,174.560 28.959,177.677 28.959 C 180.794 28.959,180.995 28.996,180.995 29.563 M188.235 29.563 C 188.235 30.129,188.034 30.166,184.917 30.166 C 181.800 30.166,181.599 30.129,181.599 29.563 C 181.599 28.996,181.800 28.959,184.917 28.959 C 188.034 28.959,188.235 28.996,188.235 29.563 M195.475 29.563 C 195.475 30.129,195.274 30.166,192.157 30.166 C 189.040 30.166,188.839 30.129,188.839 29.563 C 188.839 28.996,189.040 28.959,192.157 28.959 C 195.274 28.959,195.475 28.996,195.475 29.563 M202.715 29.563 C 202.715 30.129,202.514 30.166,199.397 30.166 C 196.280 30.166,196.078 30.129,196.078 29.563 C 196.078 28.996,196.280 28.959,199.397 28.959 C 202.514 28.959,202.715 28.996,202.715 29.563 M180.995 31.071 C 180.995 31.638,180.794 31.674,177.677 31.674 C 174.560 31.674,174.359 31.638,174.359 31.071 C 174.359 30.504,174.560 30.468,177.677 30.468 C 180.794 30.468,180.995 30.504,180.995 31.071 M188.235 31.071 C 188.235 31.638,188.034 31.674,184.917 31.674 C 181.800 31.674,181.599 31.638,181.599 31.071 C 181.599 30.504,181.800 30.468,184.917 30.468 C 188.034 30.468,188.235 30.504,188.235 31.071 M195.475 31.071 C 195.475 31.638,195.274 31.674,192.157 31.674 C 189.040 31.674,188.839 31.638,188.839 31.071 C 188.839 30.504,189.040 30.468,192.157 30.468 C 195.274 30.468,195.475 30.504,195.475 31.071 M202.715 31.071 C 202.715 31.638,202.514 31.674,199.397 31.674 C 196.280 31.674,196.078 31.638,196.078 31.071 C 196.078 30.504,196.280 30.468,199.397 30.468 C 202.514 30.468,202.715 30.504,202.715 31.071 M180.995 32.579 C 180.995 33.146,180.794 33.183,177.677 33.183 C 174.560 33.183,174.359 33.146,174.359 32.579 C 174.359 32.012,174.560 31.976,177.677 31.976 C 180.794 31.976,180.995 32.012,180.995 32.579 M188.235 32.579 C 188.235 33.146,188.034 33.183,184.917 33.183 C 181.800 33.183,181.599 33.146,181.599 32.579 C 181.599 32.012,181.800 31.976,184.917 31.976 C 188.034 31.976,188.235 32.012,188.235 32.579 M195.475 32.579 C 195.475 33.146,195.274 33.183,192.157 33.183 C 189.040 33.183,188.839 33.146,188.839 32.579 C 188.839 32.012,189.040 31.976,192.157 31.976 C 195.274 31.976,195.475 32.012,195.475 32.579 M202.715 32.579 C 202.715 33.146,202.514 33.183,199.397 33.183 C 196.280 33.183,196.078 33.146,196.078 32.579 C 196.078 32.012,196.280 31.976,199.397 31.976 C 202.514 31.976,202.715 32.012,202.715 32.579 M180.995 34.087 C 180.995 34.654,180.794 34.691,177.677 34.691 C 174.560 34.691,174.359 34.654,174.359 34.087 C 174.359 33.521,174.560 33.484,177.677 33.484 C 180.794 33.484,180.995 33.521,180.995 34.087 M188.235 34.087 C 188.235 34.654,188.034 34.691,184.917 34.691 C 181.800 34.691,181.599 34.654,181.599 34.087 C 181.599 33.521,181.800 33.484,184.917 33.484 C 188.034 33.484,188.235 33.521,188.235 34.087 M195.475 34.087 C 195.475 34.654,195.274 34.691,192.157 34.691 C 189.040 34.691,188.839 34.654,188.839 34.087 C 188.839 33.521,189.040 33.484,192.157 33.484 C 195.274 33.484,195.475 33.521,195.475 34.087 M202.715 34.087 C 202.715 34.654,202.514 34.691,199.397 34.691 C 196.280 34.691,196.078 34.654,196.078 34.087 C 196.078 33.521,196.280 33.484,199.397 33.484 C 202.514 33.484,202.715 33.521,202.715 34.087 M180.995 35.596 C 180.995 36.163,180.794 36.199,177.677 36.199 C 174.560 36.199,174.359 36.163,174.359 35.596 C 174.359 35.029,174.560 34.992,177.677 34.992 C 180.794 34.992,180.995 35.029,180.995 35.596 M188.235 35.596 C 188.235 36.163,188.034 36.199,184.917 36.199 C 181.800 36.199,181.599 36.163,181.599 35.596 C 181.599 35.029,181.800 34.992,184.917 34.992 C 188.034 34.992,188.235 35.029,188.235 35.596 M195.475 35.596 C 195.475 36.163,195.274 36.199,192.157 36.199 C 189.040 36.199,188.839 36.163,188.839 35.596 C 188.839 35.029,189.040 34.992,192.157 34.992 C 195.274 34.992,195.475 35.029,195.475 35.596 M202.715 35.596 C 202.715 36.163,202.514 36.199,199.397 36.199 C 196.280 36.199,196.078 36.163,196.078 35.596 C 196.078 35.029,196.280 34.992,199.397 34.992 C 202.514 34.992,202.715 35.029,202.715 35.596 M327.526 35.819 C 328.563 35.878,330.260 35.878,331.297 35.819 C 332.334 35.760,331.486 35.712,329.412 35.712 C 327.338 35.712,326.489 35.760,327.526 35.819 M335.370 35.819 C 336.406 35.878,338.103 35.878,339.140 35.819 C 340.177 35.760,339.329 35.712,337.255 35.712 C 335.181 35.712,334.333 35.760,335.370 35.819 M180.995 37.104 C 180.995 37.671,180.794 37.707,177.677 37.707 C 174.560 37.707,174.359 37.671,174.359 37.104 C 174.359 36.537,174.560 36.501,177.677 36.501 C 180.794 36.501,180.995 36.537,180.995 37.104 M188.235 37.104 C 188.235 37.671,188.034 37.707,184.917 37.707 C 181.800 37.707,181.599 37.671,181.599 37.104 C 181.599 36.537,181.800 36.501,184.917 36.501 C 188.034 36.501,188.235 36.537,188.235 37.104 M195.475 37.104 C 195.475 37.671,195.274 37.707,192.157 37.707 C 189.040 37.707,188.839 37.671,188.839 37.104 C 188.839 36.537,189.040 36.501,192.157 36.501 C 195.274 36.501,195.475 36.537,195.475 37.104 M202.715 37.104 C 202.715 37.671,202.514 37.707,199.397 37.707 C 196.280 37.707,196.078 37.671,196.078 37.104 C 196.078 36.537,196.280 36.501,199.397 36.501 C 202.514 36.501,202.715 36.537,202.715 37.104 M180.995 38.612 C 180.995 39.179,180.794 39.216,177.677 39.216 C 174.560 39.216,174.359 39.179,174.359 38.612 C 174.359 38.046,174.560 38.009,177.677 38.009 C 180.794 38.009,180.995 38.046,180.995 38.612 M188.235 38.612 C 188.235 39.179,188.034 39.216,184.917 39.216 C 181.800 39.216,181.599 39.179,181.599 38.612 C 181.599 38.046,181.800 38.009,184.917 38.009 C 188.034 38.009,188.235 38.046,188.235 38.612 M195.475 38.612 C 195.475 39.179,195.274 39.216,192.157 39.216 C 189.040 39.216,188.839 39.179,188.839 38.612 C 188.839 38.046,189.040 38.009,192.157 38.009 C 195.274 38.009,195.475 38.046,195.475 38.612 M202.715 38.612 C 202.715 39.179,202.514 39.216,199.397 39.216 C 196.280 39.216,196.078 39.179,196.078 38.612 C 196.078 38.046,196.280 38.009,199.397 38.009 C 202.514 38.009,202.715 38.046,202.715 38.612 M327.526 48.187 C 328.563 48.246,330.260 48.246,331.297 48.187 C 332.334 48.128,331.486 48.080,329.412 48.080 C 327.338 48.080,326.489 48.128,327.526 48.187 M335.370 48.187 C 336.406 48.246,338.103 48.246,339.140 48.187 C 340.177 48.128,339.329 48.080,337.255 48.080 C 335.181 48.080,334.333 48.128,335.370 48.187 M327.526 60.555 C 328.563 60.614,330.260 60.614,331.297 60.555 C 332.334 60.496,331.486 60.448,329.412 60.448 C 327.338 60.448,326.489 60.496,327.526 60.555 M335.370 60.555 C 336.406 60.614,338.103 60.614,339.140 60.555 C 340.177 60.496,339.329 60.448,337.255 60.448 C 335.181 60.448,334.333 60.496,335.370 60.555 M327.526 72.923 C 328.563 72.982,330.260 72.982,331.297 72.923 C 332.334 72.864,331.486 72.816,329.412 72.816 C 327.338 72.816,326.489 72.864,327.526 72.923 M335.370 72.923 C 336.406 72.982,338.103 72.982,339.140 72.923 C 340.177 72.864,339.329 72.816,337.255 72.816 C 335.181 72.816,334.333 72.864,335.370 72.923 M327.526 85.291 C 328.563 85.350,330.260 85.350,331.297 85.291 C 332.334 85.232,331.486 85.184,329.412 85.184 C 327.338 85.184,326.489 85.232,327.526 85.291 M335.370 85.291 C 336.406 85.350,338.103 85.350,339.140 85.291 C 340.177 85.232,339.329 85.184,337.255 85.184 C 335.181 85.184,334.333 85.232,335.370 85.291 M141.026 101.810 L 141.026 107.692 154.223 107.692 L 167.421 107.692 167.421 101.810 L 167.421 95.928 154.223 95.928 L 141.026 95.928 141.026 101.810 M142.685 99.095 C 142.685 101.458,142.637 101.659,142.081 101.659 C 141.525 101.659,141.478 101.458,141.478 99.095 C 141.478 96.732,141.525 96.531,142.081 96.531 C 142.637 96.531,142.685 96.732,142.685 99.095 M144.193 99.095 C 144.193 101.458,144.146 101.659,143.590 101.659 C 143.034 101.659,142.986 101.458,142.986 99.095 C 142.986 96.732,143.034 96.531,143.590 96.531 C 144.146 96.531,144.193 96.732,144.193 99.095 M145.701 99.095 C 145.701 101.458,145.654 101.659,145.098 101.659 C 144.542 101.659,144.495 101.458,144.495 99.095 C 144.495 96.732,144.542 96.531,145.098 96.531 C 145.654 96.531,145.701 96.732,145.701 99.095 M147.210 99.095 C 147.210 101.458,147.162 101.659,146.606 101.659 C 146.050 101.659,146.003 101.458,146.003 99.095 C 146.003 96.732,146.050 96.531,146.606 96.531 C 147.162 96.531,147.210 96.732,147.210 99.095 M148.718 99.095 C 148.718 101.458,148.671 101.659,148.115 101.659 C 147.559 101.659,147.511 101.458,147.511 99.095 C 147.511 96.732,147.559 96.531,148.115 96.531 C 148.671 96.531,148.718 96.732,148.718 99.095 M150.226 99.095 C 150.226 101.458,150.179 101.659,149.623 101.659 C 149.067 101.659,149.020 101.458,149.020 99.095 C 149.020 96.732,149.067 96.531,149.623 96.531 C 150.179 96.531,150.226 96.732,150.226 99.095 M151.735 99.095 C 151.735 101.458,151.687 101.659,151.131 101.659 C 150.575 101.659,150.528 101.458,150.528 99.095 C 150.528 96.732,150.575 96.531,151.131 96.531 C 151.687 96.531,151.735 96.732,151.735 99.095 M153.243 99.095 C 153.243 101.458,153.196 101.659,152.640 101.659 C 152.084 101.659,152.036 101.458,152.036 99.095 C 152.036 96.732,152.084 96.531,152.640 96.531 C 153.196 96.531,153.243 96.732,153.243 99.095 M154.751 99.095 C 154.751 101.458,154.704 101.659,154.148 101.659 C 153.592 101.659,153.544 101.458,153.544 99.095 C 153.544 96.732,153.592 96.531,154.148 96.531 C 154.704 96.531,154.751 96.732,154.751 99.095 M156.259 99.095 C 156.259 101.458,156.212 101.659,155.656 101.659 C 155.100 101.659,155.053 101.458,155.053 99.095 C 155.053 96.732,155.100 96.531,155.656 96.531 C 156.212 96.531,156.259 96.732,156.259 99.095 M157.768 99.095 C 157.768 101.458,157.720 101.659,157.164 101.659 C 156.608 101.659,156.561 101.458,156.561 99.095 C 156.561 96.732,156.608 96.531,157.164 96.531 C 157.720 96.531,157.768 96.732,157.768 99.095 M159.276 99.095 C 159.276 101.458,159.229 101.659,158.673 101.659 C 158.117 101.659,158.069 101.458,158.069 99.095 C 158.069 96.732,158.117 96.531,158.673 96.531 C 159.229 96.531,159.276 96.732,159.276 99.095 M160.784 99.095 C 160.784 101.458,160.737 101.659,160.181 101.659 C 159.625 101.659,159.578 101.458,159.578 99.095 C 159.578 96.732,159.625 96.531,160.181 96.531 C 160.737 96.531,160.784 96.732,160.784 99.095 M162.293 99.095 C 162.293 101.458,162.245 101.659,161.689 101.659 C 161.133 101.659,161.086 101.458,161.086 99.095 C 161.086 96.732,161.133 96.531,161.689 96.531 C 162.245 96.531,162.293 96.732,162.293 99.095 M163.801 99.095 C 163.801 101.458,163.754 101.659,163.198 101.659 C 162.642 101.659,162.594 101.458,162.594 99.095 C 162.594 96.732,162.642 96.531,163.198 96.531 C 163.754 96.531,163.801 96.732,163.801 99.095 M165.309 99.095 C 165.309 101.458,165.262 101.659,164.706 101.659 C 164.150 101.659,164.103 101.458,164.103 99.095 C 164.103 96.732,164.150 96.531,164.706 96.531 C 165.262 96.531,165.309 96.732,165.309 99.095 M166.817 99.095 C 166.817 101.458,166.770 101.659,166.214 101.659 C 165.658 101.659,165.611 101.458,165.611 99.095 C 165.611 96.732,165.658 96.531,166.214 96.531 C 166.770 96.531,166.817 96.732,166.817 99.095 M142.685 104.525 C 142.685 106.888,142.637 107.089,142.081 107.089 C 141.525 107.089,141.478 106.888,141.478 104.525 C 141.478 102.162,141.525 101.961,142.081 101.961 C 142.637 101.961,142.685 102.162,142.685 104.525 M144.193 104.525 C 144.193 106.888,144.146 107.089,143.590 107.089 C 143.034 107.089,142.986 106.888,142.986 104.525 C 142.986 102.162,143.034 101.961,143.590 101.961 C 144.146 101.961,144.193 102.162,144.193 104.525 M145.701 104.525 C 145.701 106.888,145.654 107.089,145.098 107.089 C 144.542 107.089,144.495 106.888,144.495 104.525 C 144.495 102.162,144.542 101.961,145.098 101.961 C 145.654 101.961,145.701 102.162,145.701 104.525 M147.210 104.525 C 147.210 106.888,147.162 107.089,146.606 107.089 C 146.050 107.089,146.003 106.888,146.003 104.525 C 146.003 102.162,146.050 101.961,146.606 101.961 C 147.162 101.961,147.210 102.162,147.210 104.525 M148.718 104.525 C 148.718 106.888,148.671 107.089,148.115 107.089 C 147.559 107.089,147.511 106.888,147.511 104.525 C 147.511 102.162,147.559 101.961,148.115 101.961 C 148.671 101.961,148.718 102.162,148.718 104.525 M150.226 104.525 C 150.226 106.888,150.179 107.089,149.623 107.089 C 149.067 107.089,149.020 106.888,149.020 104.525 C 149.020 102.162,149.067 101.961,149.623 101.961 C 150.179 101.961,150.226 102.162,150.226 104.525 M151.735 104.525 C 151.735 106.888,151.687 107.089,151.131 107.089 C 150.575 107.089,150.528 106.888,150.528 104.525 C 150.528 102.162,150.575 101.961,151.131 101.961 C 151.687 101.961,151.735 102.162,151.735 104.525 M153.243 104.525 C 153.243 106.888,153.196 107.089,152.640 107.089 C 152.084 107.089,152.036 106.888,152.036 104.525 C 152.036 102.162,152.084 101.961,152.640 101.961 C 153.196 101.961,153.243 102.162,153.243 104.525 M154.751 104.525 C 154.751 106.888,154.704 107.089,154.148 107.089 C 153.592 107.089,153.544 106.888,153.544 104.525 C 153.544 102.162,153.592 101.961,154.148 101.961 C 154.704 101.961,154.751 102.162,154.751 104.525 M156.259 104.525 C 156.259 106.888,156.212 107.089,155.656 107.089 C 155.100 107.089,155.053 106.888,155.053 104.525 C 155.053 102.162,155.100 101.961,155.656 101.961 C 156.212 101.961,156.259 102.162,156.259 104.525 M157.768 104.525 C 157.768 106.888,157.720 107.089,157.164 107.089 C 156.608 107.089,156.561 106.888,156.561 104.525 C 156.561 102.162,156.608 101.961,157.164 101.961 C 157.720 101.961,157.768 102.162,157.768 104.525 M159.276 104.525 C 159.276 106.888,159.229 107.089,158.673 107.089 C 158.117 107.089,158.069 106.888,158.069 104.525 C 158.069 102.162,158.117 101.961,158.673 101.961 C 159.229 101.961,159.276 102.162,159.276 104.525 M160.784 104.525 C 160.784 106.888,160.737 107.089,160.181 107.089 C 159.625 107.089,159.578 106.888,159.578 104.525 C 159.578 102.162,159.625 101.961,160.181 101.961 C 160.737 101.961,160.784 102.162,160.784 104.525 M162.293 104.525 C 162.293 106.888,162.245 107.089,161.689 107.089 C 161.133 107.089,161.086 106.888,161.086 104.525 C 161.086 102.162,161.133 101.961,161.689 101.961 C 162.245 101.961,162.293 102.162,162.293 104.525 M163.801 104.525 C 163.801 106.888,163.754 107.089,163.198 107.089 C 162.642 107.089,162.594 106.888,162.594 104.525 C 162.594 102.162,162.642 101.961,163.198 101.961 C 163.754 101.961,163.801 102.162,163.801 104.525 M165.309 104.525 C 165.309 106.888,165.262 107.089,164.706 107.089 C 164.150 107.089,164.103 106.888,164.103 104.525 C 164.103 102.162,164.150 101.961,164.706 101.961 C 165.262 101.961,165.309 102.162,165.309 104.525 M166.817 104.525 C 166.817 106.888,166.770 107.089,166.214 107.089 C 165.658 107.089,165.611 106.888,165.611 104.525 C 165.611 102.162,165.658 101.961,166.214 101.961 C 166.770 101.961,166.817 102.162,166.817 104.525 M36.223 132.956 L 36.199 152.338 40.724 152.338 L 45.249 152.338 45.225 132.956 C 45.212 122.296,45.133 113.744,45.049 113.952 C 44.938 114.228,43.780 114.329,40.724 114.329 C 37.668 114.329,36.510 114.228,36.399 113.952 C 36.315 113.744,36.236 122.296,36.223 132.956 M299.632 114.249 C 300.425 114.312,301.647 114.311,302.347 114.248 C 303.047 114.184,302.398 114.133,300.905 114.134 C 299.412 114.135,298.839 114.187,299.632 114.249 M44.947 115.234 C 44.947 115.808,44.746 115.837,40.724 115.837 C 36.702 115.837,36.501 115.808,36.501 115.234 C 36.501 114.659,36.702 114.630,40.724 114.630 C 44.746 114.630,44.947 114.659,44.947 115.234 M290.271 115.757 C 291.060 115.819,292.349 115.819,293.137 115.757 C 293.925 115.695,293.281 115.644,291.704 115.644 C 290.128 115.644,289.483 115.695,290.271 115.757 M299.632 115.758 C 300.425 115.820,301.647 115.819,302.347 115.756 C 303.047 115.693,302.398 115.642,300.905 115.643 C 299.412 115.643,298.839 115.695,299.632 115.758 M44.947 116.742 C 44.947 117.317,44.746 117.345,40.724 117.345 C 36.702 117.345,36.501 117.317,36.501 116.742 C 36.501 116.167,36.702 116.139,40.724 116.139 C 44.746 116.139,44.947 116.167,44.947 116.742 M290.271 117.265 C 291.060 117.328,292.349 117.328,293.137 117.265 C 293.925 117.203,293.281 117.152,291.704 117.152 C 290.128 117.152,289.483 117.203,290.271 117.265 M299.632 117.266 C 300.425 117.328,301.647 117.327,302.347 117.264 C 303.047 117.201,302.398 117.150,300.905 117.151 C 299.412 117.152,298.839 117.203,299.632 117.266 M44.947 118.250 C 44.947 118.825,44.746 118.854,40.724 118.854 C 36.702 118.854,36.501 118.825,36.501 118.250 C 36.501 117.676,36.702 117.647,40.724 117.647 C 44.746 117.647,44.947 117.676,44.947 118.250 M290.271 118.774 C 291.060 118.836,292.349 118.836,293.137 118.774 C 293.925 118.712,293.281 118.661,291.704 118.661 C 290.128 118.661,289.483 118.712,290.271 118.774 M299.632 118.774 C 300.425 118.836,301.647 118.836,302.347 118.772 C 303.047 118.709,302.398 118.658,300.905 118.659 C 299.412 118.660,298.839 118.712,299.632 118.774 M44.947 119.759 C 44.947 120.333,44.746 120.362,40.724 120.362 C 36.702 120.362,36.501 120.333,36.501 119.759 C 36.501 119.184,36.702 119.155,40.724 119.155 C 44.746 119.155,44.947 119.184,44.947 119.759 M290.271 120.282 C 291.060 120.344,292.349 120.344,293.137 120.282 C 293.925 120.220,293.281 120.169,291.704 120.169 C 290.128 120.169,289.483 120.220,290.271 120.282 M299.632 120.282 C 300.425 120.345,301.647 120.344,302.347 120.281 C 303.047 120.217,302.398 120.166,300.905 120.167 C 299.412 120.168,298.839 120.220,299.632 120.282 M44.947 121.267 C 44.947 121.842,44.746 121.870,40.724 121.870 C 36.702 121.870,36.501 121.842,36.501 121.267 C 36.501 120.692,36.702 120.664,40.724 120.664 C 44.746 120.664,44.947 120.692,44.947 121.267 M290.271 121.790 C 291.060 121.853,292.349 121.853,293.137 121.790 C 293.925 121.728,293.281 121.677,291.704 121.677 C 290.128 121.677,289.483 121.728,290.271 121.790 M299.632 121.791 C 300.425 121.853,301.647 121.852,302.347 121.789 C 303.047 121.726,302.398 121.675,300.905 121.676 C 299.412 121.677,298.839 121.728,299.632 121.791 M44.947 122.775 C 44.947 123.350,44.746 123.379,40.724 123.379 C 36.702 123.379,36.501 123.350,36.501 122.775 C 36.501 122.201,36.702 122.172,40.724 122.172 C 44.746 122.172,44.947 122.201,44.947 122.775 M290.271 123.299 C 291.060 123.361,292.349 123.361,293.137 123.299 C 293.925 123.237,293.281 123.186,291.704 123.186 C 290.128 123.186,289.483 123.237,290.271 123.299 M299.632 123.299 C 300.425 123.361,301.647 123.361,302.347 123.297 C 303.047 123.234,302.398 123.183,300.905 123.184 C 299.412 123.185,298.839 123.237,299.632 123.299 M44.947 124.284 C 44.947 124.858,44.746 124.887,40.724 124.887 C 36.702 124.887,36.501 124.858,36.501 124.284 C 36.501 123.709,36.702 123.680,40.724 123.680 C 44.746 123.680,44.947 123.709,44.947 124.284 M290.271 124.807 C 291.060 124.869,292.349 124.869,293.137 124.807 C 293.925 124.745,293.281 124.694,291.704 124.694 C 290.128 124.694,289.483 124.745,290.271 124.807 M299.632 124.807 C 300.425 124.870,301.647 124.869,302.347 124.806 C 303.047 124.742,302.398 124.691,300.905 124.692 C 299.412 124.693,298.839 124.745,299.632 124.807 M44.947 125.792 C 44.947 126.366,44.746 126.395,40.724 126.395 C 36.702 126.395,36.501 126.366,36.501 125.792 C 36.501 125.217,36.702 125.189,40.724 125.189 C 44.746 125.189,44.947 125.217,44.947 125.792 M290.271 126.315 C 291.060 126.377,292.349 126.377,293.137 126.315 C 293.925 126.253,293.281 126.202,291.704 126.202 C 290.128 126.202,289.483 126.253,290.271 126.315 M299.632 126.316 C 300.425 126.378,301.647 126.377,302.347 126.314 C 303.047 126.251,302.398 126.200,300.905 126.201 C 299.412 126.202,298.839 126.253,299.632 126.316 M44.947 127.300 C 44.947 127.875,44.746 127.903,40.724 127.903 C 36.702 127.903,36.501 127.875,36.501 127.300 C 36.501 126.726,36.702 126.697,40.724 126.697 C 44.746 126.697,44.947 126.726,44.947 127.300 M290.271 127.824 C 291.060 127.886,292.349 127.886,293.137 127.824 C 293.925 127.761,293.281 127.711,291.704 127.711 C 290.128 127.711,289.483 127.761,290.271 127.824 M299.632 127.824 C 300.425 127.886,301.647 127.886,302.347 127.822 C 303.047 127.759,302.398 127.708,300.905 127.709 C 299.412 127.710,298.839 127.762,299.632 127.824 M44.947 128.808 C 44.947 129.383,44.746 129.412,40.724 129.412 C 36.702 129.412,36.501 129.383,36.501 128.808 C 36.501 128.234,36.702 128.205,40.724 128.205 C 44.746 128.205,44.947 128.234,44.947 128.808 M290.271 129.332 C 291.060 129.394,292.349 129.394,293.137 129.332 C 293.925 129.270,293.281 129.219,291.704 129.219 C 290.128 129.219,289.483 129.270,290.271 129.332 M299.632 129.332 C 300.425 129.395,301.647 129.394,302.347 129.331 C 303.047 129.267,302.398 129.216,300.905 129.217 C 299.412 129.218,298.839 129.270,299.632 129.332 M44.947 130.317 C 44.947 130.891,44.746 130.920,40.724 130.920 C 36.702 130.920,36.501 130.891,36.501 130.317 C 36.501 129.742,36.702 129.713,40.724 129.713 C 44.746 129.713,44.947 129.742,44.947 130.317 M290.271 130.840 C 291.060 130.902,292.349 130.902,293.137 130.840 C 293.925 130.778,293.281 130.727,291.704 130.727 C 290.128 130.727,289.483 130.778,290.271 130.840 M299.632 130.841 C 300.425 130.903,301.647 130.902,302.347 130.839 C 303.047 130.776,302.398 130.725,300.905 130.725 C 299.412 130.726,298.839 130.778,299.632 130.841 M44.947 131.825 C 44.947 132.400,44.746 132.428,40.724 132.428 C 36.702 132.428,36.501 132.400,36.501 131.825 C 36.501 131.250,36.702 131.222,40.724 131.222 C 44.746 131.222,44.947 131.250,44.947 131.825 M290.271 132.348 C 291.060 132.411,292.349 132.411,293.137 132.348 C 293.925 132.286,293.281 132.235,291.704 132.235 C 290.128 132.235,289.483 132.286,290.271 132.348 M299.632 132.349 C 300.425 132.411,301.647 132.410,302.347 132.347 C 303.047 132.284,302.398 132.233,300.905 132.234 C 299.412 132.235,298.839 132.286,299.632 132.349 M44.947 133.333 C 44.947 133.908,44.746 133.937,40.724 133.937 C 36.702 133.937,36.501 133.908,36.501 133.333 C 36.501 132.759,36.702 132.730,40.724 132.730 C 44.746 132.730,44.947 132.759,44.947 133.333 M44.947 134.842 C 44.947 135.416,44.746 135.445,40.724 135.445 C 36.702 135.445,36.501 135.416,36.501 134.842 C 36.501 134.267,36.702 134.238,40.724 134.238 C 44.746 134.238,44.947 134.267,44.947 134.842 M44.947 136.350 C 44.947 136.925,44.746 136.953,40.724 136.953 C 36.702 136.953,36.501 136.925,36.501 136.350 C 36.501 135.775,36.702 135.747,40.724 135.747 C 44.746 135.747,44.947 135.775,44.947 136.350 M44.947 137.858 C 44.947 138.433,44.746 138.462,40.724 138.462 C 36.702 138.462,36.501 138.433,36.501 137.858 C 36.501 137.284,36.702 137.255,40.724 137.255 C 44.746 137.255,44.947 137.284,44.947 137.858 M44.947 139.367 C 44.947 139.941,44.746 139.970,40.724 139.970 C 36.702 139.970,36.501 139.941,36.501 139.367 C 36.501 138.792,36.702 138.763,40.724 138.763 C 44.746 138.763,44.947 138.792,44.947 139.367 M44.947 140.875 C 44.947 141.449,44.746 141.478,40.724 141.478 C 36.702 141.478,36.501 141.449,36.501 140.875 C 36.501 140.300,36.702 140.271,40.724 140.271 C 44.746 140.271,44.947 140.300,44.947 140.875 M44.947 142.383 C 44.947 142.958,44.746 142.986,40.724 142.986 C 36.702 142.986,36.501 142.958,36.501 142.383 C 36.501 141.809,36.702 141.780,40.724 141.780 C 44.746 141.780,44.947 141.809,44.947 142.383 M44.947 143.891 C 44.947 144.466,44.746 144.495,40.724 144.495 C 36.702 144.495,36.501 144.466,36.501 143.891 C 36.501 143.317,36.702 143.288,40.724 143.288 C 44.746 143.288,44.947 143.317,44.947 143.891 M44.947 145.400 C 44.947 145.974,44.746 146.003,40.724 146.003 C 36.702 146.003,36.501 145.974,36.501 145.400 C 36.501 144.825,36.702 144.796,40.724 144.796 C 44.746 144.796,44.947 144.825,44.947 145.400 M44.947 146.908 C 44.947 147.483,44.746 147.511,40.724 147.511 C 36.702 147.511,36.501 147.483,36.501 146.908 C 36.501 146.333,36.702 146.305,40.724 146.305 C 44.746 146.305,44.947 146.333,44.947 146.908 M44.947 148.416 C 44.947 148.991,44.746 149.020,40.724 149.020 C 36.702 149.020,36.501 148.991,36.501 148.416 C 36.501 147.842,36.702 147.813,40.724 147.813 C 44.746 147.813,44.947 147.842,44.947 148.416 M44.947 149.925 C 44.947 150.499,44.746 150.528,40.724 150.528 C 36.702 150.528,36.501 150.499,36.501 149.925 C 36.501 149.350,36.702 149.321,40.724 149.321 C 44.746 149.321,44.947 149.350,44.947 149.925 M44.947 151.433 C 44.947 152.007,44.746 152.036,40.724 152.036 C 36.702 152.036,36.501 152.007,36.501 151.433 C 36.501 150.858,36.702 150.830,40.724 150.830 C 44.746 150.830,44.947 150.858,44.947 151.433 M38.747 186.878 C 38.747 192.685,38.788 195.230,38.838 192.534 L 38.929 187.632 39.819 187.632 L 40.709 187.632 40.800 192.534 L 40.891 197.436 40.958 192.534 L 41.026 187.632 41.923 187.632 L 42.821 187.632 42.912 192.534 L 43.002 197.436 43.070 192.534 L 43.137 187.632 44.035 187.632 L 44.932 187.632 45.023 192.534 L 45.114 197.436 45.181 192.534 L 45.249 187.632 46.146 187.632 L 47.044 187.632 47.135 192.534 L 47.226 197.436 47.293 192.534 L 47.360 187.632 48.258 187.632 L 49.155 187.632 49.246 192.534 L 49.337 197.436 49.405 192.534 L 49.472 187.632 50.370 187.632 L 51.267 187.632 51.358 192.534 L 51.449 197.436 51.516 192.534 L 51.584 187.632 52.481 187.632 L 53.379 187.632 53.470 192.534 L 53.561 197.436 53.628 192.534 L 53.695 187.632 54.593 187.632 L 55.490 187.632 55.581 192.534 L 55.672 197.436 55.740 192.534 L 55.807 187.632 56.704 187.632 L 57.602 187.632 57.693 192.534 L 57.784 197.436 57.851 192.534 L 57.919 187.632 58.816 187.632 L 59.714 187.632 59.804 192.534 L 59.895 197.436 59.963 192.545 L 60.030 187.654 62.971 187.555 C 64.589 187.501,59.838 187.428,52.413 187.393 L 38.914 187.330 38.914 186.576 L 38.914 185.822 52.413 185.759 C 59.838 185.724,64.592 185.651,62.979 185.597 L 60.046 185.499 59.954 180.909 L 59.862 176.320 59.795 180.920 L 59.729 185.520 58.831 185.520 L 57.934 185.520 57.843 180.920 L 57.751 176.320 57.684 180.920 L 57.617 185.520 56.720 185.520 L 55.823 185.520 55.731 180.920 L 55.639 176.320 55.572 180.920 L 55.505 185.520 54.608 185.520 L 53.711 185.520 53.619 180.920 L 53.528 176.320 53.461 180.920 L 53.394 185.520 52.497 185.520 L 51.599 185.520 51.508 180.920 L 51.416 176.320 51.349 180.920 L 51.282 185.520 50.385 185.520 L 49.488 185.520 49.396 180.920 L 49.304 176.320 49.237 180.920 L 49.170 185.520 48.273 185.520 L 47.376 185.520 47.284 180.920 L 47.193 176.320 47.126 180.920 L 47.059 185.520 46.162 185.520 L 45.265 185.520 45.173 180.920 L 45.081 176.320 45.014 180.920 L 44.947 185.520 44.050 185.520 L 43.153 185.520 43.061 180.920 L 42.969 176.320 42.903 180.920 L 42.836 185.520 41.938 185.520 L 41.041 185.520 40.950 180.920 L 40.858 176.320 40.791 180.920 L 40.724 185.520 39.827 185.520 L 38.930 185.520 38.838 180.920 C 38.788 178.390,38.746 181.071,38.747 186.878 " stroke="none" fill="#12171a" fill-rule="evenodd"></path><path id="path3" d="M257.919 28.205 L 257.919 38.311 230.618 38.311 C 206.553 38.311,203.318 38.364,203.318 38.763 C 203.318 39.162,206.603 39.216,231.071 39.216 L 258.824 39.216 258.824 28.658 C 258.824 19.474,258.765 18.100,258.371 18.100 C 257.978 18.100,257.919 19.423,257.919 28.205 M273.303 32.278 L 273.303 46.456 241.026 46.456 C 219.708 46.456,208.748 46.558,208.748 46.757 C 208.748 46.956,219.859 47.059,241.478 47.059 L 274.208 47.059 274.208 32.579 C 274.208 19.910,274.152 18.100,273.756 18.100 C 273.360 18.100,273.303 19.876,273.303 32.278 M333.032 60.483 C 333.032 76.873,333.135 85.370,333.333 85.370 C 333.532 85.370,333.635 76.873,333.635 60.483 C 333.635 44.093,333.532 35.596,333.333 35.596 C 333.135 35.596,333.032 44.093,333.032 60.483 M6.938 254.751 C 6.938 325.205,6.990 334.238,7.391 334.238 C 7.792 334.238,7.843 325.205,7.843 254.751 C 7.843 184.297,7.792 175.264,7.391 175.264 C 6.990 175.264,6.938 184.297,6.938 254.751 M13.876 254.751 C 13.876 325.205,13.928 334.238,14.329 334.238 C 14.730 334.238,14.781 325.205,14.781 254.751 C 14.781 184.297,14.730 175.264,14.329 175.264 C 13.928 175.264,13.876 184.297,13.876 254.751 " stroke="none" fill="#bcbcbc" fill-rule="evenodd"></path><path id="path4" d="M305.053 31.297 C 308.330 31.345,313.692 31.345,316.968 31.297 C 320.245 31.248,317.564 31.208,311.011 31.208 C 304.457 31.208,301.776 31.248,305.053 31.297 M74.600 47.585 C 76.060 47.641,78.368 47.640,79.728 47.585 C 81.089 47.529,79.894 47.484,77.074 47.484 C 74.253 47.484,73.140 47.530,74.600 47.585 M164.792 47.584 C 165.752 47.644,167.246 47.643,168.111 47.582 C 168.976 47.522,168.190 47.473,166.365 47.473 C 164.540 47.474,163.832 47.524,164.792 47.584 M245.777 59.044 C 246.482 59.108,247.636 59.108,248.341 59.044 C 249.046 58.981,248.469 58.929,247.059 58.929 C 245.649 58.929,245.072 58.981,245.777 59.044 M55.807 62.443 C 55.807 62.614,56.662 62.745,57.768 62.745 C 58.874 62.745,59.729 62.614,59.729 62.443 C 59.729 62.273,58.874 62.142,57.768 62.142 C 56.662 62.142,55.807 62.273,55.807 62.443 M305.656 63.268 C 306.444 63.331,307.734 63.331,308.522 63.268 C 309.310 63.206,308.665 63.156,307.089 63.156 C 305.513 63.156,304.868 63.206,305.656 63.268 M239.019 66.365 C 239.019 67.775,239.071 68.352,239.135 67.647 C 239.198 66.942,239.198 65.788,239.135 65.083 C 239.071 64.378,239.019 64.955,239.019 66.365 M254.102 67.270 C 254.102 68.680,254.154 69.257,254.218 68.552 C 254.281 67.847,254.281 66.693,254.218 65.988 C 254.154 65.283,254.102 65.860,254.102 67.270 M252.290 77.074 C 252.292 78.401,252.345 78.907,252.408 78.197 C 252.472 77.488,252.471 76.402,252.406 75.784 C 252.341 75.166,252.289 75.747,252.290 77.074 M325.584 78.281 C 325.585 79.276,325.642 79.647,325.709 79.105 C 325.776 78.563,325.775 77.748,325.706 77.295 C 325.637 76.841,325.582 77.285,325.584 78.281 M233.409 78.951 C 233.948 79.018,234.830 79.018,235.370 78.951 C 235.909 78.884,235.468 78.830,234.389 78.830 C 233.311 78.830,232.870 78.884,233.409 78.951 M117.044 82.655 C 117.044 83.861,117.173 84.766,117.345 84.766 C 117.518 84.766,117.647 83.861,117.647 82.655 C 117.647 81.448,117.518 80.543,117.345 80.543 C 117.173 80.543,117.044 81.448,117.044 82.655 M141.780 82.655 C 141.780 83.861,141.909 84.766,142.081 84.766 C 142.254 84.766,142.383 83.861,142.383 82.655 C 142.383 81.448,142.254 80.543,142.081 80.543 C 141.909 80.543,141.780 81.448,141.780 82.655 M243.070 81.368 C 243.779 81.431,244.865 81.430,245.483 81.366 C 246.101 81.301,245.520 81.249,244.193 81.250 C 242.866 81.251,242.360 81.304,243.070 81.368 M256.352 81.673 C 258.394 81.726,261.652 81.726,263.592 81.673 C 265.532 81.621,263.861 81.578,259.879 81.578 C 255.897 81.578,254.310 81.621,256.352 81.673 M71.865 86.576 C 71.865 87.157,71.927 87.394,72.003 87.104 C 72.079 86.814,72.079 86.339,72.003 86.048 C 71.927 85.758,71.865 85.995,71.865 86.576 M182.805 87.179 C 182.805 87.359,183.962 87.481,185.671 87.481 C 187.381 87.481,188.537 87.359,188.537 87.179 C 188.537 87.000,187.381 86.878,185.671 86.878 C 183.962 86.878,182.805 87.000,182.805 87.179 M61.538 88.060 C 61.538 88.212,62.472 88.382,63.613 88.437 C 65.179 88.512,65.651 88.445,65.541 88.160 C 65.370 87.717,61.538 87.621,61.538 88.060 M306.184 88.688 C 306.184 88.867,307.290 88.989,308.899 88.989 C 310.508 88.989,311.614 88.867,311.614 88.688 C 311.614 88.509,310.508 88.386,308.899 88.386 C 307.290 88.386,306.184 88.509,306.184 88.688 M52.489 93.363 C 52.489 94.671,52.616 95.626,52.790 95.626 C 52.965 95.626,53.092 94.671,53.092 93.363 C 53.092 92.056,52.965 91.101,52.790 91.101 C 52.616 91.101,52.489 92.056,52.489 93.363 M52.489 98.190 C 52.489 99.497,52.616 100.452,52.790 100.452 C 52.965 100.452,53.092 99.497,53.092 98.190 C 53.092 96.883,52.965 95.928,52.790 95.928 C 52.616 95.928,52.489 96.883,52.489 98.190 M70.211 102.182 C 70.916 102.245,72.070 102.245,72.775 102.182 C 73.480 102.118,72.903 102.066,71.493 102.066 C 70.083 102.066,69.506 102.118,70.211 102.182 M95.559 102.182 C 96.268 102.246,97.354 102.245,97.972 102.180 C 98.590 102.115,98.009 102.063,96.682 102.064 C 95.354 102.065,94.849 102.118,95.559 102.182 M128.138 102.182 C 128.847 102.246,129.933 102.245,130.551 102.180 C 131.169 102.115,130.588 102.063,129.261 102.064 C 127.934 102.065,127.428 102.118,128.138 102.182 M246.257 106.033 C 246.258 107.360,246.311 107.866,246.375 107.156 C 246.439 106.447,246.438 105.361,246.373 104.743 C 246.308 104.125,246.256 104.706,246.257 106.033 M91.803 112.670 C 91.805 113.831,91.859 114.269,91.925 113.643 C 91.990 113.017,91.989 112.067,91.922 111.532 C 91.855 110.996,91.802 111.508,91.803 112.670 M209.955 114.630 C 209.955 114.806,210.960 114.932,212.368 114.932 C 213.776 114.932,214.781 114.806,214.781 114.630 C 214.781 114.454,213.776 114.329,212.368 114.329 C 210.960 114.329,209.955 114.454,209.955 114.630 M162.896 119.759 C 162.896 119.935,163.901 120.060,165.309 120.060 C 166.717 120.060,167.722 119.935,167.722 119.759 C 167.722 119.583,166.717 119.457,165.309 119.457 C 163.901 119.457,162.896 119.583,162.896 119.759 M100.250 122.926 C 100.251 124.087,100.306 124.526,100.371 123.900 C 100.436 123.274,100.435 122.324,100.369 121.788 C 100.302 121.253,100.248 121.765,100.250 122.926 M70.211 126.314 C 70.916 126.378,72.070 126.378,72.775 126.314 C 73.480 126.251,72.903 126.199,71.493 126.199 C 70.083 126.199,69.506 126.251,70.211 126.314 M303.469 135.596 C 303.469 137.674,303.555 138.160,303.922 138.160 C 304.288 138.160,304.374 137.674,304.374 135.596 C 304.374 133.518,304.288 133.032,303.922 133.032 C 303.555 133.032,303.469 133.518,303.469 135.596 M70.204 136.869 C 70.740 136.936,71.690 136.937,72.316 136.872 C 72.942 136.806,72.504 136.752,71.342 136.751 C 70.181 136.749,69.669 136.803,70.204 136.869 M288.989 138.612 C 288.989 138.995,289.710 139.065,293.665 139.065 C 297.620 139.065,298.341 138.995,298.341 138.612 C 298.341 138.230,297.620 138.160,293.665 138.160 C 289.710 138.160,288.989 138.230,288.989 138.612 M178.582 155.656 C 178.582 155.852,182.403 155.958,189.442 155.958 C 196.481 155.958,200.302 155.852,200.302 155.656 C 200.302 155.461,196.481 155.354,189.442 155.354 C 182.403 155.354,178.582 155.461,178.582 155.656 M66.063 175.867 C 66.063 176.060,68.678 176.169,73.303 176.169 C 77.929 176.169,80.543 176.060,80.543 175.867 C 80.543 175.675,77.929 175.566,73.303 175.566 C 68.678 175.566,66.063 175.675,66.063 175.867 M108.726 200.151 C 108.726 203.801,108.770 205.253,108.823 203.377 C 108.876 201.501,108.875 198.515,108.822 196.740 C 108.769 194.966,108.726 196.501,108.726 200.151 M108.720 226.848 C 108.720 229.585,108.766 230.705,108.822 229.336 C 108.878 227.968,108.878 225.728,108.822 224.359 C 108.766 222.990,108.720 224.110,108.720 226.848 " stroke="none" fill="#7c7c7c" fill-rule="evenodd"></path><path id="path5" d="M193.307 86.802 C 195.847 86.852,199.920 86.852,202.357 86.802 C 204.793 86.751,202.715 86.710,197.738 86.710 C 192.760 86.710,190.766 86.751,193.307 86.802 " stroke="none" fill="#8c8c8c" fill-rule="evenodd"></path><path id="path6" d="" stroke="none" fill="#dce0100" fill-rule="evenodd"></path><path id="path7" d="" stroke="none" fill="#dce0100" fill-rule="evenodd"></path><path id="path8" d="" stroke="none" fill="#dce0100" fill-rule="evenodd"></path></g></svg>