<?xml version="1.0" encoding="UTF-8"?>
<svg version="1.1" xmlns="http://www.w3.org/2000/svg" width="1326" height="1207">
<path d="M0,0 L1320,0 L1320,885 L1129,885 L1129,804 L958,804 L958,886 L572,886 L572,1201 L371,1201 L371,1118 L387,1118 L387,586 L268,586 L268,514 L945,514 L945,342 L951,342 L951,458 L1006,458 L1006,347 L980,347 L980,342 L986,342 L986,293 L1077,293 L1077,280 L1126,280 L1126,279 L1103,279 L1103,239 L1127,239 L1127,238 L1103,238 L1103,198 L1127,198 L1127,197 L1103,197 L1103,157 L1127,157 L1127,156 L1103,156 L1103,116 L1127,116 L1127,115 L1077,115 L1077,100 L940,100 L940,154 L904,154 L904,153 L906,153 L906,57 L903,57 L903,151 L685,151 L685,192 L684,192 L684,193 L661,193 L661,191 L639,191 L639,193 L642,193 L642,196 L685,196 L685,282 L677,282 L677,312 L694,312 L694,307 L780,307 L780,313 L791,313 L791,297 L794,297 L794,296 L810,296 L810,297 L818,297 L818,296 L834,296 L834,297 L837,297 L837,313 L848,313 L848,307 L940,307 L940,310 L944,310 L944,293 L957,293 L957,292 L974,292 L974,293 L983,293 L983,339 L974,339 L974,340 L956,340 L956,323 L953,323 L953,339 L940,339 L940,355 L854,355 L854,362 L848,362 L848,356 L837,356 L837,372 L834,372 L834,373 L818,373 L818,372 L810,372 L810,373 L795,373 L795,372 L792,372 L792,356 L780,356 L780,362 L693,362 L693,357 L678,357 L678,406 L684,406 L684,410 L586,410 L586,416 L560,416 L560,388 L565,388 L565,374 L554,374 L554,377 L383,377 L383,367 L368,367 L368,387 L363,387 L363,388 L348,388 L348,387 L331,387 L331,388 L316,388 L316,387 L311,387 L311,367 L296,367 L296,382 L264,382 L264,442 L265,442 L265,457 L264,457 L264,590 L356,590 L356,595 L357,595 L357,591 L382,591 L382,613 L357,613 L357,609 L356,609 L356,615 L383,615 L383,1114 L95,1114 L95,1092 L350,1092 L350,749 L349,749 L349,724 L350,724 L350,720 L95,720 L95,664 L213,664 L213,700 L217,700 L217,660 L196,660 L196,628 L195,628 L195,660 L189,660 L189,628 L188,628 L188,660 L182,660 L182,628 L181,628 L181,660 L175,660 L175,628 L174,628 L174,660 L168,660 L168,628 L167,628 L167,660 L161,660 L161,628 L160,628 L160,660 L154,660 L154,628 L153,628 L153,660 L147,660 L147,628 L146,628 L146,660 L140,660 L140,628 L139,628 L139,660 L133,660 L133,628 L132,628 L132,660 L126,660 L126,628 L125,628 L125,660 L95,660 L95,591 L125,591 L125,621 L126,621 L126,591 L132,591 L132,621 L133,621 L133,591 L139,591 L139,621 L140,621 L140,591 L146,591 L146,621 L147,621 L147,591 L153,591 L153,621 L154,621 L154,591 L160,591 L160,621 L161,621 L161,591 L167,591 L167,621 L168,621 L168,591 L174,591 L174,621 L175,621 L175,591 L181,591 L181,621 L182,621 L182,591 L188,591 L188,621 L189,621 L189,591 L195,591 L195,621 L196,621 L196,591 L214,591 L214,621 L213,621 L213,622 L214,622 L214,627 L213,627 L213,628 L218,628 L218,470 L217,470 L217,457 L218,457 L218,372 L214,372 L214,382 L175,382 L175,369 L174,369 L174,300 L175,300 L175,292 L296,292 L296,302 L311,302 L311,283 L316,283 L316,282 L331,282 L331,283 L348,283 L348,282 L363,282 L363,283 L368,283 L368,302 L383,302 L383,292 L554,292 L554,295 L565,295 L565,282 L560,282 L560,280 L559,280 L559,264 L560,264 L560,256 L559,256 L559,242 L560,242 L560,218 L559,218 L559,202 L560,202 L560,196 L602,196 L602,193 L605,193 L605,191 L583,191 L583,193 L560,193 L560,153 L575,153 L575,129 L671,129 L671,127 L855,127 L855,57 L852,57 L852,124 L671,124 L671,87 L573,87 L573,151 L555,151 L555,154 L171,154 L171,291 L108,291 L108,383 L117,383 L117,511 L147,511 L147,383 L171,383 L171,514 L214,514 L214,587 L91,587 L91,1114 L0,1114 Z M448,315 L448,354 L550,354 L550,315 Z " fill="#FEFEFE" transform="translate(3,3)"/>
<path d="M0,0 L748,0 L748,316 L0,316 Z " fill="#FFFFFF" transform="translate(578,891)"/>
<path d="M0,0 L252,0 L252,25 L251,25 L251,365 L0,365 Z " fill="#FFFFFF" transform="translate(98,727)"/>
<path d="M0,0 L636,0 L636,3 L3,3 L3,1117 L94,1117 L94,590 L217,590 L217,517 L174,517 L174,386 L149,386 L149,385 L174,385 L174,372 L175,372 L175,303 L177,303 L177,372 L178,372 L178,385 L217,385 L217,375 L221,375 L221,460 L220,460 L220,473 L221,473 L221,631 L216,631 L216,630 L217,630 L217,625 L216,625 L216,624 L217,624 L217,594 L199,594 L199,624 L198,624 L198,594 L192,594 L192,624 L191,624 L191,594 L185,594 L185,624 L184,624 L184,594 L178,594 L178,624 L177,624 L177,594 L171,594 L171,624 L170,624 L170,594 L164,594 L164,624 L163,624 L163,594 L157,594 L157,624 L156,624 L156,594 L150,594 L150,624 L149,624 L149,594 L143,594 L143,624 L142,624 L142,594 L136,594 L136,624 L135,624 L135,594 L129,594 L129,624 L128,624 L128,594 L98,594 L98,663 L128,663 L128,631 L129,631 L129,663 L135,663 L135,631 L136,631 L136,663 L142,663 L142,631 L143,631 L143,663 L149,663 L149,631 L150,631 L150,663 L156,663 L156,631 L157,631 L157,663 L163,663 L163,631 L164,631 L164,663 L170,663 L170,631 L171,631 L171,663 L177,663 L177,631 L178,631 L178,663 L184,663 L184,631 L185,631 L185,663 L191,663 L191,631 L192,631 L192,663 L198,663 L198,631 L199,631 L199,663 L220,663 L220,703 L216,703 L216,667 L98,667 L98,723 L353,723 L353,727 L352,727 L352,752 L353,752 L353,1095 L98,1095 L98,1117 L386,1117 L386,618 L359,618 L359,612 L360,612 L360,616 L385,616 L385,594 L360,594 L360,598 L359,598 L359,593 L267,593 L267,460 L268,460 L268,445 L267,445 L267,385 L299,385 L299,370 L314,370 L314,390 L319,390 L319,391 L334,391 L334,390 L351,390 L351,391 L366,391 L366,390 L371,390 L371,370 L386,370 L386,380 L557,380 L557,377 L568,377 L568,391 L563,391 L563,419 L589,419 L589,413 L687,413 L687,409 L681,409 L681,360 L696,360 L696,365 L783,365 L783,359 L795,359 L795,375 L798,375 L798,376 L813,376 L813,375 L821,375 L821,376 L837,376 L837,375 L840,375 L840,359 L851,359 L851,365 L857,365 L857,363 L858,363 L858,365 L943,365 L943,359 L941,359 L941,358 L943,358 L943,342 L956,342 L956,326 L959,326 L959,343 L977,343 L977,342 L986,342 L986,296 L977,296 L977,295 L960,295 L960,296 L947,296 L947,313 L943,313 L943,310 L851,310 L851,316 L840,316 L840,300 L837,300 L837,299 L821,299 L821,300 L813,300 L813,299 L797,299 L797,300 L794,300 L794,316 L783,316 L783,310 L697,310 L697,315 L680,315 L680,285 L688,285 L688,199 L645,199 L645,196 L642,196 L642,194 L664,194 L664,196 L687,196 L687,195 L688,195 L688,154 L692,154 L692,157 L943,157 L943,103 L1080,103 L1080,118 L1104,118 L1104,119 L1080,119 L1080,159 L1104,159 L1104,160 L1080,160 L1080,200 L1104,200 L1104,201 L1080,201 L1080,241 L1104,241 L1104,242 L1080,242 L1080,282 L1104,282 L1104,283 L1080,283 L1080,296 L989,296 L989,345 L983,345 L983,350 L1009,350 L1009,461 L954,461 L954,345 L948,345 L948,517 L271,517 L271,589 L390,589 L390,1121 L374,1121 L374,1204 L575,1204 L575,889 L961,889 L961,807 L1132,807 L1132,888 L1323,888 L1323,3 L670,3 L670,0 L1326,0 L1326,891 L578,891 L578,1207 L371,1207 L371,1162 L94,1162 L94,1121 L0,1121 Z M947,107 L947,292 L960,292 L960,293 L977,293 L977,292 L1076,292 L1076,107 Z M692,161 L692,306 L783,306 L783,296 L797,296 L797,297 L813,297 L813,296 L815,296 L815,161 Z M819,161 L819,296 L821,296 L821,297 L837,297 L837,296 L851,296 L851,306 L943,306 L943,161 Z M959,345 L959,346 L957,346 L957,383 L975,383 L975,384 L957,384 L957,388 L975,388 L975,389 L957,389 L957,393 L975,393 L975,394 L957,394 L957,398 L975,398 L975,399 L957,399 L957,403 L975,403 L975,404 L957,404 L957,408 L975,408 L975,409 L957,409 L957,413 L975,413 L975,414 L957,414 L957,418 L975,418 L975,419 L957,419 L957,423 L975,423 L975,424 L957,424 L957,428 L975,428 L975,429 L957,429 L957,433 L975,433 L975,434 L957,434 L957,438 L975,438 L975,439 L957,439 L957,458 L1006,458 L1006,439 L988,439 L988,438 L1006,438 L1006,434 L988,434 L988,433 L1006,433 L1006,429 L988,429 L988,428 L1006,428 L1006,424 L988,424 L988,423 L1006,423 L1006,419 L988,419 L988,418 L1006,418 L1006,414 L988,414 L988,413 L1006,413 L1006,409 L988,409 L988,408 L1006,408 L1006,404 L988,404 L988,403 L1006,403 L1006,399 L988,399 L988,398 L1006,398 L1006,394 L988,394 L988,393 L1006,393 L1006,389 L988,389 L988,388 L1006,388 L1006,384 L988,384 L988,383 L1006,383 L1006,379 L988,379 L988,378 L1006,378 L1006,353 L980,353 L980,346 L977,346 L977,345 Z M692,368 L692,513 L815,513 L815,478 L813,478 L813,413 L815,413 L815,379 L813,379 L813,378 L798,378 L798,379 L791,379 L791,369 L783,369 L783,368 Z M843,369 L843,379 L837,379 L837,378 L821,378 L821,379 L819,379 L819,413 L821,413 L821,478 L819,478 L819,513 L942,513 L942,369 Z M374,384 L374,394 L366,394 L366,393 L351,393 L351,394 L349,394 L349,513 L515,513 L515,384 Z M519,384 L519,513 L557,513 L557,471 L559,471 L559,486 L560,486 L560,505 L559,505 L559,513 L687,513 L687,457 L636,457 L636,455 L583,455 L583,454 L570,454 L570,455 L559,455 L559,384 Z M178,389 L178,446 L217,446 L217,389 Z M271,389 L271,445 L270,445 L270,460 L271,460 L271,513 L345,513 L345,394 L334,394 L334,393 L319,393 L319,394 L311,394 L311,389 Z M563,421 L563,451 L570,451 L570,452 L583,452 L583,451 L639,451 L639,453 L657,453 L657,446 L658,446 L658,432 L657,432 L657,423 L630,423 L630,427 L627,427 L627,425 L589,425 L589,421 Z M661,425 L661,432 L660,432 L660,446 L661,446 L661,452 L687,452 L687,425 Z M178,450 L178,513 L217,513 L217,473 L218,473 L218,460 L217,460 L217,450 Z M98,727 L98,1092 L349,1092 L349,752 L350,752 L350,727 Z M964,810 L964,889 L1129,889 L1129,810 Z M98,1121 L98,1159 L371,1159 L371,1121 Z " fill="#7D7D7E" transform="translate(0,0)"/>
<path d="M0,0 L129,0 L129,185 L30,185 L30,186 L13,186 L13,185 L0,185 Z " fill="#FEFEFE" transform="translate(947,107)"/>
<path d="M0,0 L167,0 L167,33 L166,33 L166,97 L165,97 L165,98 L167,98 L167,121 L156,121 L156,122 L141,122 L141,121 L133,121 L133,130 L0,130 Z " fill="#FEFEFE" transform="translate(178,161)"/>
<path d="M0,0 L141,0 L141,129 L-25,129 L-25,10 L-23,10 L-23,9 L-8,9 L-8,10 L0,10 Z " fill="#FEFEFE" transform="translate(374,384)"/>
<path d="M0,0 L94,0 L94,41 L371,41 L371,86 L0,86 Z " fill="#FFFFFF" transform="translate(0,1121)"/>
<path d="M0,0 L159,0 L159,130 L26,130 L26,121 L18,121 L18,122 L3,122 L3,121 L0,121 L0,98 L2,98 L2,97 L1,97 L1,33 L0,33 Z " fill="#FEFEFE" transform="translate(348,161)"/>
<path d="M0,0 L124,0 L124,145 L32,145 L32,135 L18,135 L18,136 L2,136 L2,135 L0,135 Z " fill="#FFFFFF" transform="translate(819,161)"/>
<path d="M0,0 L123,0 L123,135 L121,135 L121,136 L105,136 L105,135 L91,135 L91,145 L0,145 Z " fill="#FEFEFE" transform="translate(692,161)"/>
<path d="M0,0 L91,0 L91,1 L99,1 L99,11 L106,11 L106,10 L121,10 L121,11 L123,11 L123,45 L121,45 L121,110 L123,110 L123,145 L0,145 Z " fill="#FEFEFE" transform="translate(692,368)"/>
<path d="M0,0 L99,0 L99,144 L-24,144 L-24,109 L-22,109 L-22,44 L-24,44 L-24,10 L-22,10 L-22,9 L-6,9 L-6,10 L0,10 Z " fill="#FEFEFE" transform="translate(843,369)"/>
<path d="M0,0 L165,0 L165,79 L0,79 Z " fill="#FFFFFF" transform="translate(964,810)"/>
<path d="M0,0 L40,0 L40,71 L51,71 L51,70 L64,70 L64,71 L117,71 L117,73 L168,73 L168,129 L40,129 L40,121 L41,121 L41,102 L40,102 L40,87 L38,87 L38,129 L0,129 Z " fill="#FFFFFF" transform="translate(519,384)"/>
<path d="M0,0 L273,0 L273,38 L0,38 Z " fill="#FFFFFF" transform="translate(98,1121)"/>
<path d="M0,0 L40,0 L40,5 L48,5 L48,4 L63,4 L63,5 L74,5 L74,124 L0,124 L0,71 L-1,71 L-1,56 L0,56 Z " fill="#FFFFFF" transform="translate(271,389)"/>
<path d="M0,0 L48,0 L48,44 L49,44 L49,60 L48,60 L48,84 L49,84 L49,98 L48,98 L48,106 L49,106 L49,122 L48,122 L48,130 L0,130 Z " fill="#FFFFFF" transform="translate(511,161)"/>
<path d="M0,0 L62,0 L62,8 L63,8 L63,77 L62,77 L62,90 L37,90 L37,93 L9,93 L9,90 L0,90 Z " fill="#FFFFFF" transform="translate(112,295)"/>
<path d="M0,0 L5,0 L5,42 L28,42 L28,40 L50,40 L50,42 L47,42 L47,45 L5,45 L5,51 L4,51 L4,67 L5,67 L5,91 L4,91 L4,105 L5,105 L5,113 L4,113 L4,129 L5,129 L5,131 L10,131 L10,144 L-1,144 L-1,141 L-172,141 L-172,151 L-187,151 L-187,132 L-192,132 L-192,131 L-207,131 L-207,132 L-224,132 L-224,131 L-239,131 L-239,132 L-244,132 L-244,151 L-259,151 L-259,141 L-380,141 L-380,149 L-384,149 L-384,141 L-386,141 L-386,140 L-384,140 L-384,3 L0,3 Z M-380,7 L-380,137 L-247,137 L-247,128 L-239,128 L-239,129 L-224,129 L-224,128 L-213,128 L-213,105 L-215,105 L-215,104 L-214,104 L-214,40 L-213,40 L-213,7 Z M-210,7 L-210,40 L-209,40 L-209,104 L-208,104 L-208,105 L-210,105 L-210,128 L-207,128 L-207,129 L-192,129 L-192,128 L-184,128 L-184,137 L-51,137 L-51,7 Z M-47,7 L-47,137 L1,137 L1,129 L2,129 L2,113 L1,113 L1,105 L2,105 L2,91 L1,91 L1,67 L2,67 L2,51 L1,51 L1,7 Z " fill="#7E7F80" transform="translate(558,154)"/>
<path d="M0,0 L26,0 L26,4 L64,4 L64,6 L67,6 L67,2 L94,2 L94,11 L95,11 L95,25 L94,25 L94,32 L76,32 L76,30 L20,30 L20,31 L7,31 L7,30 L0,30 Z " fill="#FFFFFF" transform="translate(563,421)"/>
<path d="M0,0 L39,0 L39,10 L40,10 L40,23 L39,23 L39,63 L0,63 Z " fill="#FFFFFF" transform="translate(178,450)"/>
<path d="M0,0 L39,0 L39,57 L0,57 Z " fill="#FFFFFF" transform="translate(178,389)"/>
<path d="M0,0 L18,0 L18,1 L21,1 L21,8 L47,8 L47,33 L29,33 L29,25 L16,25 L16,38 L-2,38 L-2,1 L0,1 Z " fill="#FFFFFF" transform="translate(959,345)"/>
<path d="M0,0 L98,0 L98,42 L2,42 L2,66 L-13,66 L-13,64 L0,64 Z M2,1 L2,5 L24,5 L24,1 Z M26,1 L26,5 L48,5 L48,1 Z M50,1 L50,5 L72,5 L72,1 Z M74,1 L74,5 L96,5 L96,1 Z M2,6 L2,10 L24,10 L24,6 Z M26,6 L26,10 L48,10 L48,6 Z M50,6 L50,10 L72,10 L72,6 Z M74,6 L74,10 L96,10 L96,6 Z M2,11 L2,15 L24,15 L24,11 Z M26,11 L26,15 L48,15 L48,11 Z M50,11 L50,15 L72,15 L72,11 Z M74,11 L74,15 L96,15 L96,11 Z M2,16 L2,20 L24,20 L24,16 Z M26,16 L26,20 L48,20 L48,16 Z M50,16 L50,20 L72,20 L72,16 Z M74,16 L74,20 L96,20 L96,16 Z M2,21 L2,25 L24,25 L24,21 Z M26,21 L26,25 L48,25 L48,21 Z M50,21 L50,25 L72,25 L72,21 Z M74,21 L74,25 L96,25 L96,21 Z M2,26 L2,30 L24,30 L24,26 Z M26,26 L26,30 L48,30 L48,26 Z M50,26 L50,30 L72,30 L72,26 Z M74,26 L74,30 L96,30 L96,26 Z M2,31 L2,35 L24,35 L24,31 Z M26,31 L26,35 L48,35 L48,31 Z M50,31 L50,35 L72,35 L72,31 Z M74,31 L74,35 L96,35 L96,31 Z M2,36 L2,40 L24,40 L24,36 Z M26,36 L26,40 L48,40 L48,36 Z M50,36 L50,40 L72,40 L72,36 Z M74,36 L74,40 L96,40 L96,36 Z " fill="#000000" transform="translate(576,90)"/>
<path d="M0,0 L102,0 L102,39 L0,39 Z M1,2 L1,19 L5,19 L5,2 Z M6,2 L6,19 L10,19 L10,2 Z M11,2 L11,19 L15,19 L15,2 Z M16,2 L16,19 L20,19 L20,2 Z M21,2 L21,19 L25,19 L25,2 Z M26,2 L26,19 L30,19 L30,2 Z M31,2 L31,19 L35,19 L35,2 Z M36,2 L36,19 L40,19 L40,2 Z M41,2 L41,19 L45,19 L45,2 Z M46,2 L46,19 L50,19 L50,2 Z M51,2 L51,19 L55,19 L55,2 Z M56,2 L56,19 L60,19 L60,2 Z M61,2 L61,19 L65,19 L65,2 Z M66,2 L66,19 L70,19 L70,2 Z M71,2 L71,19 L75,19 L75,2 Z M76,2 L76,19 L80,19 L80,2 Z M81,2 L81,19 L85,19 L85,2 Z M86,2 L86,19 L90,19 L90,2 Z M91,2 L91,19 L95,19 L95,2 Z M96,2 L96,19 L100,19 L100,2 Z M1,20 L1,37 L5,37 L5,20 Z M6,20 L6,37 L10,37 L10,20 Z M11,20 L11,37 L15,37 L15,20 Z M16,20 L16,37 L20,37 L20,20 Z M21,20 L21,37 L25,37 L25,20 Z M26,20 L26,37 L30,37 L30,20 Z M31,20 L31,37 L35,37 L35,20 Z M36,20 L36,37 L40,37 L40,20 Z M41,20 L41,37 L45,37 L45,20 Z M46,20 L46,37 L50,37 L50,20 Z M51,20 L51,37 L55,37 L55,20 Z M56,20 L56,37 L60,37 L60,20 Z M61,20 L61,37 L65,37 L65,20 Z M66,20 L66,37 L70,37 L70,20 Z M71,20 L71,37 L75,37 L75,20 Z M76,20 L76,37 L80,37 L80,20 Z M81,20 L81,37 L85,37 L85,20 Z M86,20 L86,37 L90,37 L90,20 Z M91,20 L91,37 L95,37 L95,20 Z M96,20 L96,37 L100,37 L100,20 Z " fill="#000000" transform="translate(451,318)"/>
<path d="M0,0 L1,0 L1,2 L29,2 L29,0 L30,0 L30,128 L0,128 Z M1,3 L1,7 L29,7 L29,3 Z M1,8 L1,12 L29,12 L29,8 Z M1,13 L1,17 L29,17 L29,13 Z M1,18 L1,22 L29,22 L29,18 Z M1,23 L1,27 L29,27 L29,23 Z M1,28 L1,32 L29,32 L29,28 Z M1,33 L1,37 L29,37 L29,33 Z M1,38 L1,42 L29,42 L29,38 Z M1,43 L1,47 L29,47 L29,43 Z M1,48 L1,52 L29,52 L29,48 Z M1,53 L1,57 L29,57 L29,53 Z M1,58 L1,62 L29,62 L29,58 Z M1,63 L1,67 L29,67 L29,63 Z M1,68 L1,72 L29,72 L29,68 Z M1,73 L1,77 L29,77 L29,73 Z M1,78 L1,82 L29,82 L29,78 Z M1,83 L1,87 L29,87 L29,83 Z M1,88 L1,92 L29,92 L29,88 Z M1,93 L1,97 L29,97 L29,93 Z M1,98 L1,102 L29,102 L29,98 Z M1,103 L1,107 L29,107 L29,103 Z M1,108 L1,112 L29,112 L29,108 Z M1,113 L1,117 L29,117 L29,113 Z M1,118 L1,122 L29,122 L29,118 Z M1,123 L1,127 L29,127 L29,123 Z " fill="#000000" transform="translate(120,386)"/>
<path d="M0,0 L24,0 L24,40 L0,40 Z " fill="#FFFFFF" transform="translate(1080,242)"/>
<path d="M0,0 L24,0 L24,40 L0,40 Z " fill="#FFFFFF" transform="translate(1080,201)"/>
<path d="M0,0 L24,0 L24,40 L0,40 Z " fill="#FFFFFF" transform="translate(1080,160)"/>
<path d="M0,0 L24,0 L24,40 L0,40 Z " fill="#FFFFFF" transform="translate(1080,119)"/>
<path d="M0,0 L18,0 L18,2 L31,2 L31,0 L49,0 L49,19 L0,19 Z " fill="#FFFFFF" transform="translate(957,439)"/>
<path d="M0,0 L3,0 L3,70 L-181,70 L-181,67 L0,67 Z " fill="#BFBFBF" transform="translate(855,60)"/>
<path d="M0,0 L26,0 L26,27 L0,27 L0,21 L-1,21 L-1,7 L0,7 Z " fill="#FFFFFF" transform="translate(661,425)"/>
<path d="M0,0 L3,0 L3,96 L-214,96 L-214,94 L0,94 Z " fill="#BFBFBF" transform="translate(906,60)"/>
<path d="M0,0 L85,0 L85,6 L0,6 Z " fill="#FFFFFF" transform="translate(858,359)"/>
<path d="M0,0 L13,0 L13,71 L0,71 Z M3,3 L3,68 L10,68 L10,3 Z " fill="#7F7F7F" transform="translate(975,370)"/>
<path d="M0,0 L7,0 L7,65 L0,65 Z " fill="#FFFFFF" transform="translate(978,373)"/>
<path d="M0,0 L26,0 L26,1 L2,1 L2,41 L26,41 L26,42 L2,42 L2,82 L26,82 L26,83 L2,83 L2,123 L26,123 L26,124 L2,124 L2,164 L25,164 L25,165 L0,165 Z " fill="#8C8C8C" transform="translate(1104,118)"/>
<path d="M0,0 L215,0 L215,1 L0,1 Z " fill="#FEFEFE" transform="translate(692,156)"/>
<path d="M0,0 L61,0 L61,1 L1,1 L1,91 L10,91 L10,92 L0,92 Z " fill="#7E7F80" transform="translate(111,294)"/>
<path d="M0,0 L28,0 L28,4 L0,4 Z " fill="#FFFFFF" transform="translate(121,509)"/>
<path d="M0,0 L28,0 L28,4 L0,4 Z " fill="#FFFFFF" transform="translate(121,504)"/>
<path d="M0,0 L28,0 L28,4 L0,4 Z " fill="#FFFFFF" transform="translate(121,499)"/>
<path d="M0,0 L28,0 L28,4 L0,4 Z " fill="#FFFFFF" transform="translate(121,494)"/>
<path d="M0,0 L28,0 L28,4 L0,4 Z " fill="#FFFFFF" transform="translate(121,489)"/>
<path d="M0,0 L28,0 L28,4 L0,4 Z " fill="#FFFFFF" transform="translate(121,484)"/>
<path d="M0,0 L28,0 L28,4 L0,4 Z " fill="#FFFFFF" transform="translate(121,479)"/>
<path d="M0,0 L28,0 L28,4 L0,4 Z " fill="#FFFFFF" transform="translate(121,474)"/>
<path d="M0,0 L28,0 L28,4 L0,4 Z " fill="#FFFFFF" transform="translate(121,469)"/>
<path d="M0,0 L28,0 L28,4 L0,4 Z " fill="#FFFFFF" transform="translate(121,464)"/>
<path d="M0,0 L28,0 L28,4 L0,4 Z " fill="#FFFFFF" transform="translate(121,459)"/>
<path d="M0,0 L28,0 L28,4 L0,4 Z " fill="#FFFFFF" transform="translate(121,454)"/>
<path d="M0,0 L28,0 L28,4 L0,4 Z " fill="#FFFFFF" transform="translate(121,449)"/>
<path d="M0,0 L28,0 L28,4 L0,4 Z " fill="#FFFFFF" transform="translate(121,444)"/>
<path d="M0,0 L28,0 L28,4 L0,4 Z " fill="#FFFFFF" transform="translate(121,439)"/>
<path d="M0,0 L28,0 L28,4 L0,4 Z " fill="#FFFFFF" transform="translate(121,434)"/>
<path d="M0,0 L28,0 L28,4 L0,4 Z " fill="#FFFFFF" transform="translate(121,429)"/>
<path d="M0,0 L28,0 L28,4 L0,4 Z " fill="#FFFFFF" transform="translate(121,424)"/>
<path d="M0,0 L28,0 L28,4 L0,4 Z " fill="#FFFFFF" transform="translate(121,419)"/>
<path d="M0,0 L28,0 L28,4 L0,4 Z " fill="#FFFFFF" transform="translate(121,414)"/>
<path d="M0,0 L28,0 L28,4 L0,4 Z " fill="#FFFFFF" transform="translate(121,409)"/>
<path d="M0,0 L28,0 L28,4 L0,4 Z " fill="#FFFFFF" transform="translate(121,404)"/>
<path d="M0,0 L28,0 L28,4 L0,4 Z " fill="#FFFFFF" transform="translate(121,399)"/>
<path d="M0,0 L28,0 L28,4 L0,4 Z " fill="#FFFFFF" transform="translate(121,394)"/>
<path d="M0,0 L28,0 L28,4 L0,4 Z " fill="#FFFFFF" transform="translate(121,389)"/>
<path d="M0,0 L34,0 L34,3 L0,3 Z " fill="#5B7C8D" transform="translate(636,0)"/>
<path d="M0,0 L84,0 L84,1 L1,1 L1,5 L0,5 Z " fill="#7D7D7E" transform="translate(857,358)"/>
<path d="M0,0 L22,0 L22,4 L0,4 Z " fill="#FFFFFF" transform="translate(650,126)"/>
<path d="M0,0 L22,0 L22,4 L0,4 Z " fill="#FFFFFF" transform="translate(626,126)"/>
<path d="M0,0 L22,0 L22,4 L0,4 Z " fill="#FFFFFF" transform="translate(602,126)"/>
<path d="M0,0 L22,0 L22,4 L0,4 Z " fill="#FFFFFF" transform="translate(578,126)"/>
<path d="M0,0 L22,0 L22,4 L0,4 Z " fill="#FFFFFF" transform="translate(650,121)"/>
<path d="M0,0 L22,0 L22,4 L0,4 Z " fill="#FFFFFF" transform="translate(626,121)"/>
<path d="M0,0 L22,0 L22,4 L0,4 Z " fill="#FFFFFF" transform="translate(602,121)"/>
<path d="M0,0 L22,0 L22,4 L0,4 Z " fill="#FFFFFF" transform="translate(578,121)"/>
<path d="M0,0 L22,0 L22,4 L0,4 Z " fill="#FFFFFF" transform="translate(650,116)"/>
<path d="M0,0 L22,0 L22,4 L0,4 Z " fill="#FFFFFF" transform="translate(626,116)"/>
<path d="M0,0 L22,0 L22,4 L0,4 Z " fill="#FFFFFF" transform="translate(602,116)"/>
<path d="M0,0 L22,0 L22,4 L0,4 Z " fill="#FFFFFF" transform="translate(578,116)"/>
<path d="M0,0 L22,0 L22,4 L0,4 Z " fill="#FFFFFF" transform="translate(650,111)"/>
<path d="M0,0 L22,0 L22,4 L0,4 Z " fill="#FFFFFF" transform="translate(626,111)"/>
<path d="M0,0 L22,0 L22,4 L0,4 Z " fill="#FFFFFF" transform="translate(602,111)"/>
<path d="M0,0 L22,0 L22,4 L0,4 Z " fill="#FFFFFF" transform="translate(578,111)"/>
<path d="M0,0 L22,0 L22,4 L0,4 Z " fill="#FFFFFF" transform="translate(650,106)"/>
<path d="M0,0 L22,0 L22,4 L0,4 Z " fill="#FFFFFF" transform="translate(626,106)"/>
<path d="M0,0 L22,0 L22,4 L0,4 Z " fill="#FFFFFF" transform="translate(602,106)"/>
<path d="M0,0 L22,0 L22,4 L0,4 Z " fill="#FFFFFF" transform="translate(578,106)"/>
<path d="M0,0 L22,0 L22,4 L0,4 Z " fill="#FFFFFF" transform="translate(650,101)"/>
<path d="M0,0 L22,0 L22,4 L0,4 Z " fill="#FFFFFF" transform="translate(626,101)"/>
<path d="M0,0 L22,0 L22,4 L0,4 Z " fill="#FFFFFF" transform="translate(602,101)"/>
<path d="M0,0 L22,0 L22,4 L0,4 Z " fill="#FFFFFF" transform="translate(578,101)"/>
<path d="M0,0 L22,0 L22,4 L0,4 Z " fill="#FFFFFF" transform="translate(650,96)"/>
<path d="M0,0 L22,0 L22,4 L0,4 Z " fill="#FFFFFF" transform="translate(626,96)"/>
<path d="M0,0 L22,0 L22,4 L0,4 Z " fill="#FFFFFF" transform="translate(602,96)"/>
<path d="M0,0 L22,0 L22,4 L0,4 Z " fill="#FFFFFF" transform="translate(578,96)"/>
<path d="M0,0 L22,0 L22,4 L0,4 Z " fill="#FFFFFF" transform="translate(650,91)"/>
<path d="M0,0 L22,0 L22,4 L0,4 Z " fill="#FFFFFF" transform="translate(626,91)"/>
<path d="M0,0 L22,0 L22,4 L0,4 Z " fill="#FFFFFF" transform="translate(602,91)"/>
<path d="M0,0 L22,0 L22,4 L0,4 Z " fill="#FFFFFF" transform="translate(578,91)"/>
<path d="M0,0 L18,0 L18,4 L0,4 Z " fill="#FFFFFF" transform="translate(988,434)"/>
<path d="M0,0 L18,0 L18,4 L0,4 Z " fill="#FFFFFF" transform="translate(957,434)"/>
<path d="M0,0 L18,0 L18,4 L0,4 Z " fill="#FFFFFF" transform="translate(988,429)"/>
<path d="M0,0 L18,0 L18,4 L0,4 Z " fill="#FEFEFE" transform="translate(957,429)"/>
<path d="M0,0 L18,0 L18,4 L0,4 Z " fill="#FFFFFF" transform="translate(988,424)"/>
<path d="M0,0 L18,0 L18,4 L0,4 Z " fill="#FFFFFF" transform="translate(957,424)"/>
<path d="M0,0 L18,0 L18,4 L0,4 Z " fill="#FFFFFF" transform="translate(988,419)"/>
<path d="M0,0 L18,0 L18,4 L0,4 Z " fill="#FFFFFF" transform="translate(957,419)"/>
<path d="M0,0 L18,0 L18,4 L0,4 Z " fill="#FFFFFF" transform="translate(988,414)"/>
<path d="M0,0 L18,0 L18,4 L0,4 Z " fill="#FFFFFF" transform="translate(957,414)"/>
<path d="M0,0 L18,0 L18,4 L0,4 Z " fill="#FFFFFF" transform="translate(988,409)"/>
<path d="M0,0 L18,0 L18,4 L0,4 Z " fill="#FFFFFF" transform="translate(957,409)"/>
<path d="M0,0 L18,0 L18,4 L0,4 Z " fill="#FFFFFF" transform="translate(988,404)"/>
<path d="M0,0 L18,0 L18,4 L0,4 Z " fill="#FFFFFF" transform="translate(957,404)"/>
<path d="M0,0 L18,0 L18,4 L0,4 Z " fill="#FFFFFF" transform="translate(988,399)"/>
<path d="M0,0 L18,0 L18,4 L0,4 Z " fill="#FFFFFF" transform="translate(957,399)"/>
<path d="M0,0 L18,0 L18,4 L0,4 Z " fill="#FFFFFF" transform="translate(988,394)"/>
<path d="M0,0 L18,0 L18,4 L0,4 Z " fill="#FFFFFF" transform="translate(957,394)"/>
<path d="M0,0 L18,0 L18,4 L0,4 Z " fill="#FFFFFF" transform="translate(988,389)"/>
<path d="M0,0 L18,0 L18,4 L0,4 Z " fill="#FFFFFF" transform="translate(957,389)"/>
<path d="M0,0 L18,0 L18,4 L0,4 Z " fill="#FFFFFF" transform="translate(988,384)"/>
<path d="M0,0 L18,0 L18,4 L0,4 Z " fill="#FEFEFE" transform="translate(957,384)"/>
<path d="M0,0 L18,0 L18,4 L0,4 Z " fill="#FFFFFF" transform="translate(988,379)"/>
<path d="M0,0 L4,0 L4,17 L0,17 Z " fill="#FFFFFF" transform="translate(547,338)"/>
<path d="M0,0 L4,0 L4,17 L0,17 Z " fill="#FFFFFF" transform="translate(542,338)"/>
<path d="M0,0 L4,0 L4,17 L0,17 Z " fill="#FFFFFF" transform="translate(537,338)"/>
<path d="M0,0 L4,0 L4,17 L0,17 Z " fill="#FFFFFF" transform="translate(532,338)"/>
<path d="M0,0 L4,0 L4,17 L0,17 Z " fill="#FFFFFF" transform="translate(527,338)"/>
<path d="M0,0 L4,0 L4,17 L0,17 Z " fill="#FFFFFF" transform="translate(522,338)"/>
<path d="M0,0 L4,0 L4,17 L0,17 Z " fill="#FFFFFF" transform="translate(517,338)"/>
<path d="M0,0 L4,0 L4,17 L0,17 Z " fill="#FFFFFF" transform="translate(512,338)"/>
<path d="M0,0 L4,0 L4,17 L0,17 Z " fill="#FFFFFF" transform="translate(507,338)"/>
<path d="M0,0 L4,0 L4,17 L0,17 Z " fill="#FFFFFF" transform="translate(502,338)"/>
<path d="M0,0 L4,0 L4,17 L0,17 Z " fill="#FFFFFF" transform="translate(497,338)"/>
<path d="M0,0 L4,0 L4,17 L0,17 Z " fill="#FFFFFF" transform="translate(492,338)"/>
<path d="M0,0 L4,0 L4,17 L0,17 Z " fill="#FFFFFF" transform="translate(487,338)"/>
<path d="M0,0 L4,0 L4,17 L0,17 Z " fill="#FFFFFF" transform="translate(482,338)"/>
<path d="M0,0 L4,0 L4,17 L0,17 Z " fill="#FFFFFF" transform="translate(477,338)"/>
<path d="M0,0 L4,0 L4,17 L0,17 Z " fill="#FFFFFF" transform="translate(472,338)"/>
<path d="M0,0 L4,0 L4,17 L0,17 Z " fill="#FFFFFF" transform="translate(467,338)"/>
<path d="M0,0 L4,0 L4,17 L0,17 Z " fill="#FFFFFF" transform="translate(462,338)"/>
<path d="M0,0 L4,0 L4,17 L0,17 Z " fill="#FFFFFF" transform="translate(457,338)"/>
<path d="M0,0 L4,0 L4,17 L0,17 Z " fill="#FFFFFF" transform="translate(452,338)"/>
<path d="M0,0 L4,0 L4,17 L0,17 Z " fill="#FFFFFF" transform="translate(547,320)"/>
<path d="M0,0 L4,0 L4,17 L0,17 Z " fill="#FFFFFF" transform="translate(542,320)"/>
<path d="M0,0 L4,0 L4,17 L0,17 Z " fill="#FFFFFF" transform="translate(537,320)"/>
<path d="M0,0 L4,0 L4,17 L0,17 Z " fill="#FFFFFF" transform="translate(532,320)"/>
<path d="M0,0 L4,0 L4,17 L0,17 Z " fill="#FFFFFF" transform="translate(527,320)"/>
<path d="M0,0 L4,0 L4,17 L0,17 Z " fill="#FFFFFF" transform="translate(522,320)"/>
<path d="M0,0 L4,0 L4,17 L0,17 Z " fill="#FFFFFF" transform="translate(517,320)"/>
<path d="M0,0 L4,0 L4,17 L0,17 Z " fill="#FFFFFF" transform="translate(512,320)"/>
<path d="M0,0 L4,0 L4,17 L0,17 Z " fill="#FFFFFF" transform="translate(507,320)"/>
<path d="M0,0 L4,0 L4,17 L0,17 Z " fill="#FFFFFF" transform="translate(502,320)"/>
<path d="M0,0 L4,0 L4,17 L0,17 Z " fill="#FFFFFF" transform="translate(497,320)"/>
<path d="M0,0 L4,0 L4,17 L0,17 Z " fill="#FFFFFF" transform="translate(492,320)"/>
<path d="M0,0 L4,0 L4,17 L0,17 Z " fill="#FFFFFF" transform="translate(487,320)"/>
<path d="M0,0 L4,0 L4,17 L0,17 Z " fill="#FFFFFF" transform="translate(482,320)"/>
<path d="M0,0 L4,0 L4,17 L0,17 Z " fill="#FFFFFF" transform="translate(477,320)"/>
<path d="M0,0 L4,0 L4,17 L0,17 Z " fill="#FFFFFF" transform="translate(472,320)"/>
<path d="M0,0 L4,0 L4,17 L0,17 Z " fill="#FFFFFF" transform="translate(467,320)"/>
<path d="M0,0 L4,0 L4,17 L0,17 Z " fill="#FFFFFF" transform="translate(462,320)"/>
<path d="M0,0 L4,0 L4,17 L0,17 Z " fill="#FFFFFF" transform="translate(457,320)"/>
<path d="M0,0 L4,0 L4,17 L0,17 Z " fill="#FFFFFF" transform="translate(452,320)"/>
</svg>
